G04 (created by PCBNEW (2013-06-11 BZR 4021)-stable) date Sat 08 Feb 2014 02:59:37 AM CST*
%MOIN*%
G04 Gerber Fmt 3.4, Leading zero omitted, Abs format*
%FSLAX34Y34*%
G01*
G70*
G90*
G04 APERTURE LIST*
%ADD10C,0.00590551*%
%ADD11C,0.011811*%
%ADD12C,0.0039*%
%ADD13C,0.01*%
%ADD14C,0.015*%
%ADD15C,0.0043*%
%ADD16C,0.012*%
G04 APERTURE END LIST*
G54D10*
G54D11*
X30848Y-29171D02*
X31270Y-29171D01*
X31354Y-29199D01*
X31410Y-29255D01*
X31439Y-29340D01*
X31439Y-29396D01*
X31439Y-28552D02*
X31157Y-28749D01*
X31439Y-28890D02*
X30848Y-28890D01*
X30848Y-28665D01*
X30876Y-28609D01*
X30904Y-28580D01*
X30960Y-28552D01*
X31045Y-28552D01*
X31101Y-28580D01*
X31129Y-28609D01*
X31157Y-28665D01*
X31157Y-28890D01*
X30848Y-28356D02*
X30848Y-27990D01*
X31073Y-28187D01*
X31073Y-28102D01*
X31101Y-28046D01*
X31129Y-28018D01*
X31185Y-27990D01*
X31326Y-27990D01*
X31382Y-28018D01*
X31410Y-28046D01*
X31439Y-28102D01*
X31439Y-28271D01*
X31410Y-28327D01*
X31382Y-28356D01*
X31439Y-27287D02*
X30848Y-27287D01*
X31045Y-27006D02*
X31439Y-27006D01*
X31101Y-27006D02*
X31073Y-26978D01*
X31045Y-26921D01*
X31045Y-26837D01*
X31073Y-26781D01*
X31129Y-26753D01*
X31439Y-26753D01*
X31045Y-26556D02*
X31045Y-26331D01*
X30848Y-26471D02*
X31354Y-26471D01*
X31410Y-26443D01*
X31439Y-26387D01*
X31439Y-26331D01*
X31410Y-25909D02*
X31439Y-25965D01*
X31439Y-26078D01*
X31410Y-26134D01*
X31354Y-26162D01*
X31129Y-26162D01*
X31073Y-26134D01*
X31045Y-26078D01*
X31045Y-25965D01*
X31073Y-25909D01*
X31129Y-25881D01*
X31185Y-25881D01*
X31242Y-26162D01*
X31439Y-25628D02*
X31045Y-25628D01*
X31157Y-25628D02*
X31101Y-25600D01*
X31073Y-25571D01*
X31045Y-25515D01*
X31045Y-25459D01*
X31045Y-25347D02*
X31045Y-25122D01*
X31439Y-25262D02*
X30932Y-25262D01*
X30876Y-25234D01*
X30848Y-25178D01*
X30848Y-25122D01*
X31439Y-24672D02*
X31129Y-24672D01*
X31073Y-24700D01*
X31045Y-24756D01*
X31045Y-24868D01*
X31073Y-24925D01*
X31410Y-24672D02*
X31439Y-24728D01*
X31439Y-24868D01*
X31410Y-24925D01*
X31354Y-24953D01*
X31298Y-24953D01*
X31242Y-24925D01*
X31214Y-24868D01*
X31214Y-24728D01*
X31185Y-24672D01*
X31410Y-24137D02*
X31439Y-24194D01*
X31439Y-24306D01*
X31410Y-24362D01*
X31382Y-24390D01*
X31326Y-24419D01*
X31157Y-24419D01*
X31101Y-24390D01*
X31073Y-24362D01*
X31045Y-24306D01*
X31045Y-24194D01*
X31073Y-24137D01*
X31410Y-23659D02*
X31439Y-23715D01*
X31439Y-23828D01*
X31410Y-23884D01*
X31354Y-23912D01*
X31129Y-23912D01*
X31073Y-23884D01*
X31045Y-23828D01*
X31045Y-23715D01*
X31073Y-23659D01*
X31129Y-23631D01*
X31185Y-23631D01*
X31242Y-23912D01*
X32383Y-27273D02*
X32102Y-27470D01*
X32383Y-27610D02*
X31793Y-27610D01*
X31793Y-27385D01*
X31821Y-27329D01*
X31849Y-27301D01*
X31905Y-27273D01*
X31990Y-27273D01*
X32046Y-27301D01*
X32074Y-27329D01*
X32102Y-27385D01*
X32102Y-27610D01*
X32355Y-26795D02*
X32383Y-26851D01*
X32383Y-26964D01*
X32355Y-27020D01*
X32299Y-27048D01*
X32074Y-27048D01*
X32018Y-27020D01*
X31990Y-26964D01*
X31990Y-26851D01*
X32018Y-26795D01*
X32074Y-26767D01*
X32130Y-26767D01*
X32187Y-27048D01*
X31990Y-26570D02*
X32383Y-26429D01*
X31990Y-26289D01*
X32215Y-25642D02*
X32215Y-25361D01*
X32383Y-25698D02*
X31793Y-25501D01*
X32383Y-25304D01*
G54D12*
X34550Y-40450D02*
G75*
G03X34550Y-40450I-50J0D01*
G74*
G01*
X34500Y-40900D02*
X34500Y-40500D01*
X34500Y-40500D02*
X35100Y-40500D01*
X35100Y-40500D02*
X35100Y-40900D01*
X35100Y-41300D02*
X35100Y-41700D01*
X35100Y-41700D02*
X34500Y-41700D01*
X34500Y-41700D02*
X34500Y-41300D01*
X33550Y-40450D02*
G75*
G03X33550Y-40450I-50J0D01*
G74*
G01*
X33500Y-40900D02*
X33500Y-40500D01*
X33500Y-40500D02*
X34100Y-40500D01*
X34100Y-40500D02*
X34100Y-40900D01*
X34100Y-41300D02*
X34100Y-41700D01*
X34100Y-41700D02*
X33500Y-41700D01*
X33500Y-41700D02*
X33500Y-41300D01*
X28600Y-24400D02*
G75*
G03X28600Y-24400I-50J0D01*
G74*
G01*
X29000Y-24400D02*
X28600Y-24400D01*
X28600Y-24400D02*
X28600Y-23800D01*
X28600Y-23800D02*
X29000Y-23800D01*
X29400Y-23800D02*
X29800Y-23800D01*
X29800Y-23800D02*
X29800Y-24400D01*
X29800Y-24400D02*
X29400Y-24400D01*
G54D10*
X32626Y-22614D02*
X32902Y-22890D01*
X32902Y-22890D02*
X34004Y-22890D01*
X34004Y-22890D02*
X34280Y-22614D01*
X34280Y-22614D02*
X34280Y-21237D01*
X32626Y-21237D02*
X32626Y-22614D01*
X29083Y-21237D02*
X34516Y-21237D01*
X34516Y-21237D02*
X34516Y-23362D01*
X34516Y-23362D02*
X29083Y-23362D01*
X29083Y-23362D02*
X29083Y-21237D01*
X35618Y-27197D02*
X36800Y-27197D01*
X36800Y-27197D02*
X36800Y-29953D01*
X35618Y-39402D02*
X36800Y-39402D01*
X36800Y-39402D02*
X36800Y-36646D01*
X36800Y-29953D02*
X39359Y-29953D01*
X39359Y-29953D02*
X39359Y-36646D01*
X39359Y-36646D02*
X36800Y-36646D01*
X33453Y-39402D02*
X33453Y-27197D01*
X33453Y-27197D02*
X35618Y-27197D01*
X35618Y-39402D02*
X33453Y-39402D01*
G54D13*
X34272Y-42972D02*
X34272Y-42027D01*
X35217Y-42027D02*
X32303Y-42027D01*
X32303Y-42027D02*
X32303Y-42893D01*
X32303Y-42893D02*
X32303Y-42972D01*
X32303Y-42972D02*
X35296Y-42972D01*
X35296Y-42972D02*
X35296Y-42027D01*
X35296Y-42027D02*
X35217Y-42027D01*
G54D10*
X30300Y-40800D02*
X29300Y-40800D01*
X29300Y-40800D02*
X29300Y-41800D01*
X28300Y-41800D02*
X28300Y-24800D01*
X28300Y-24800D02*
X30300Y-24800D01*
X30300Y-24800D02*
X30300Y-41800D01*
X30300Y-41800D02*
X28300Y-41800D01*
G54D14*
X29200Y-44700D02*
G75*
G03X29200Y-44700I-900J0D01*
G74*
G01*
X29200Y-18500D02*
G75*
G03X29200Y-18500I-900J0D01*
G74*
G01*
X36200Y-44700D02*
G75*
G03X36200Y-44700I-900J0D01*
G74*
G01*
X36200Y-18500D02*
G75*
G03X36200Y-18500I-900J0D01*
G74*
G01*
G54D15*
X35479Y-41132D02*
X35385Y-41198D01*
X35479Y-41245D02*
X35282Y-41245D01*
X35282Y-41170D01*
X35292Y-41151D01*
X35301Y-41142D01*
X35320Y-41132D01*
X35348Y-41132D01*
X35367Y-41142D01*
X35376Y-41151D01*
X35385Y-41170D01*
X35385Y-41245D01*
X35282Y-41067D02*
X35282Y-40945D01*
X35357Y-41010D01*
X35357Y-40982D01*
X35367Y-40963D01*
X35376Y-40954D01*
X35395Y-40945D01*
X35442Y-40945D01*
X35460Y-40954D01*
X35470Y-40963D01*
X35479Y-40982D01*
X35479Y-41039D01*
X35470Y-41057D01*
X35460Y-41067D01*
X33279Y-41132D02*
X33185Y-41198D01*
X33279Y-41245D02*
X33082Y-41245D01*
X33082Y-41170D01*
X33092Y-41151D01*
X33101Y-41142D01*
X33120Y-41132D01*
X33148Y-41132D01*
X33167Y-41142D01*
X33176Y-41151D01*
X33185Y-41170D01*
X33185Y-41245D01*
X33101Y-41057D02*
X33092Y-41048D01*
X33082Y-41029D01*
X33082Y-40982D01*
X33092Y-40963D01*
X33101Y-40954D01*
X33120Y-40945D01*
X33139Y-40945D01*
X33167Y-40954D01*
X33279Y-41067D01*
X33279Y-40945D01*
X28379Y-24132D02*
X28285Y-24198D01*
X28379Y-24245D02*
X28182Y-24245D01*
X28182Y-24170D01*
X28192Y-24151D01*
X28201Y-24142D01*
X28220Y-24132D01*
X28248Y-24132D01*
X28267Y-24142D01*
X28276Y-24151D01*
X28285Y-24170D01*
X28285Y-24245D01*
X28379Y-23945D02*
X28379Y-24057D01*
X28379Y-24001D02*
X28182Y-24001D01*
X28210Y-24020D01*
X28229Y-24039D01*
X28239Y-24057D01*
G54D10*
X33068Y-20665D02*
X33068Y-20946D01*
X33050Y-21003D01*
X33012Y-21040D01*
X32956Y-21059D01*
X32918Y-21059D01*
X33237Y-20703D02*
X33256Y-20684D01*
X33293Y-20665D01*
X33387Y-20665D01*
X33424Y-20684D01*
X33443Y-20703D01*
X33462Y-20740D01*
X33462Y-20778D01*
X33443Y-20834D01*
X33218Y-21059D01*
X33462Y-21059D01*
X34897Y-26372D02*
X34897Y-26653D01*
X34878Y-26710D01*
X34840Y-26747D01*
X34784Y-26766D01*
X34747Y-26766D01*
X35290Y-26766D02*
X35065Y-26766D01*
X35178Y-26766D02*
X35178Y-26372D01*
X35140Y-26428D01*
X35103Y-26466D01*
X35065Y-26485D01*
G54D16*
X33600Y-43142D02*
X33600Y-43571D01*
X33571Y-43657D01*
X33514Y-43714D01*
X33428Y-43742D01*
X33371Y-43742D01*
X33828Y-43142D02*
X34200Y-43142D01*
X34000Y-43371D01*
X34085Y-43371D01*
X34142Y-43400D01*
X34171Y-43428D01*
X34200Y-43485D01*
X34200Y-43628D01*
X34171Y-43685D01*
X34142Y-43714D01*
X34085Y-43742D01*
X33914Y-43742D01*
X33857Y-43714D01*
X33828Y-43685D01*
X28857Y-42642D02*
X28857Y-42042D01*
X29085Y-42042D01*
X29142Y-42071D01*
X29171Y-42100D01*
X29200Y-42157D01*
X29200Y-42242D01*
X29171Y-42300D01*
X29142Y-42328D01*
X29085Y-42357D01*
X28857Y-42357D01*
X29771Y-42642D02*
X29428Y-42642D01*
X29600Y-42642D02*
X29600Y-42042D01*
X29542Y-42128D01*
X29485Y-42185D01*
X29428Y-42214D01*
M02*
