G04 (created by PCBNEW (2013-06-11 BZR 4021)-stable) date Wed 16 Apr 2014 08:44:16 AM CDT*
%MOIN*%
G04 Gerber Fmt 3.4, Leading zero omitted, Abs format*
%FSLAX34Y34*%
G01*
G70*
G90*
G04 APERTURE LIST*
%ADD10C,0.00590551*%
%ADD11C,0.141732*%
%ADD12C,0.0590551*%
%ADD13R,0.0551181X0.0551181*%
%ADD14R,0.055X0.055*%
%ADD15C,0.055*%
%ADD16C,0.16*%
%ADD17C,0.0787402*%
%ADD18C,0.15748*%
G04 APERTURE END LIST*
G54D10*
G54D11*
X34496Y-38221D03*
X34496Y-28378D03*
G54D12*
X34122Y-33300D03*
X34122Y-32221D03*
G54D13*
X34122Y-31142D03*
G54D12*
X34122Y-35457D03*
X34122Y-34378D03*
X34870Y-34918D03*
X34870Y-33839D03*
X34870Y-32760D03*
X34870Y-31681D03*
G54D14*
X34800Y-42476D03*
G54D15*
X33800Y-42524D03*
X32800Y-42476D03*
G54D14*
X29800Y-41300D03*
G54D15*
X28800Y-41300D03*
X29800Y-40300D03*
X28800Y-40300D03*
X29800Y-39300D03*
X28800Y-39300D03*
X29800Y-38300D03*
X28800Y-38300D03*
X29800Y-37300D03*
X28800Y-37300D03*
X29800Y-36300D03*
X28800Y-36300D03*
X29800Y-35300D03*
X28800Y-35300D03*
X29800Y-34300D03*
X28800Y-34300D03*
X29800Y-33300D03*
X28800Y-33300D03*
X29800Y-32300D03*
X28800Y-32300D03*
X29800Y-31300D03*
X28800Y-31300D03*
X29800Y-30300D03*
X28800Y-30300D03*
X29800Y-29300D03*
X28800Y-29300D03*
X29800Y-28300D03*
X28800Y-28300D03*
X29800Y-27300D03*
X28800Y-27300D03*
X29800Y-26300D03*
X28800Y-26300D03*
X29800Y-25300D03*
X28800Y-25300D03*
G54D16*
X28300Y-44700D03*
X28300Y-18500D03*
X35300Y-44700D03*
X35300Y-18500D03*
G54D17*
X34413Y-21230D03*
X32760Y-21230D03*
X31106Y-21230D03*
G54D18*
X31106Y-19714D03*
X33586Y-23415D03*
M02*
