G04 (created by PCBNEW (2013-06-11 BZR 4021)-stable) date Sat 08 Feb 2014 02:59:37 AM CST*
%MOIN*%
G04 Gerber Fmt 3.4, Leading zero omitted, Abs format*
%FSLAX34Y34*%
G01*
G70*
G90*
G04 APERTURE LIST*
%ADD10C,0.00590551*%
%ADD11R,0.055X0.035*%
%ADD12R,0.035X0.055*%
%ADD13C,0.0787402*%
%ADD14C,0.15748*%
%ADD15C,0.141732*%
%ADD16C,0.0590551*%
%ADD17R,0.0551181X0.0551181*%
%ADD18R,0.055X0.055*%
%ADD19C,0.055*%
%ADD20C,0.16*%
G04 APERTURE END LIST*
G54D10*
G54D11*
X34800Y-40725D03*
X34800Y-41475D03*
X33800Y-40725D03*
X33800Y-41475D03*
G54D12*
X28825Y-24100D03*
X29575Y-24100D03*
G54D13*
X33453Y-22300D03*
X31800Y-22300D03*
X30146Y-22300D03*
G54D14*
X30146Y-20803D03*
X33453Y-23796D03*
G54D15*
X34496Y-38221D03*
X34496Y-28378D03*
G54D16*
X34122Y-33300D03*
X34122Y-32221D03*
G54D17*
X34122Y-31142D03*
G54D16*
X34122Y-35457D03*
X34122Y-34378D03*
X34870Y-34918D03*
X34870Y-33839D03*
X34870Y-32760D03*
X34870Y-31681D03*
G54D18*
X34800Y-42476D03*
G54D19*
X33800Y-42524D03*
X32800Y-42476D03*
G54D18*
X29800Y-41300D03*
G54D19*
X28800Y-41300D03*
X29800Y-40300D03*
X28800Y-40300D03*
X29800Y-39300D03*
X28800Y-39300D03*
X29800Y-38300D03*
X28800Y-38300D03*
X29800Y-37300D03*
X28800Y-37300D03*
X29800Y-36300D03*
X28800Y-36300D03*
X29800Y-35300D03*
X28800Y-35300D03*
X29800Y-34300D03*
X28800Y-34300D03*
X29800Y-33300D03*
X28800Y-33300D03*
X29800Y-32300D03*
X28800Y-32300D03*
X29800Y-31300D03*
X28800Y-31300D03*
X29800Y-30300D03*
X28800Y-30300D03*
X29800Y-29300D03*
X28800Y-29300D03*
X29800Y-28300D03*
X28800Y-28300D03*
X29800Y-27300D03*
X28800Y-27300D03*
X29800Y-26300D03*
X28800Y-26300D03*
X29800Y-25300D03*
X28800Y-25300D03*
G54D20*
X28300Y-44700D03*
X28300Y-18500D03*
X35300Y-44700D03*
X35300Y-18500D03*
M02*
