G04 (created by PCBNEW (2013-06-11 BZR 4021)-stable) date Wed 16 Apr 2014 12:44:10 AM CDT*
%MOIN*%
G04 Gerber Fmt 3.4, Leading zero omitted, Abs format*
%FSLAX34Y34*%
G01*
G70*
G90*
G04 APERTURE LIST*
%ADD10C,0.00590551*%
%ADD11R,0.055X0.035*%
%ADD12R,0.035X0.055*%
%ADD13C,0.141732*%
%ADD14C,0.0590551*%
%ADD15R,0.0551181X0.0551181*%
%ADD16R,0.055X0.055*%
%ADD17C,0.055*%
%ADD18C,0.16*%
%ADD19C,0.0787402*%
%ADD20C,0.15748*%
%ADD21C,0.035*%
%ADD22C,0.01*%
G04 APERTURE END LIST*
G54D10*
G54D11*
X34800Y-40725D03*
X34800Y-41475D03*
X33800Y-40725D03*
X33800Y-41475D03*
G54D12*
X28795Y-22380D03*
X29545Y-22380D03*
G54D13*
X34496Y-38221D03*
X34496Y-28378D03*
G54D14*
X34122Y-33300D03*
X34122Y-32221D03*
G54D15*
X34122Y-31142D03*
G54D14*
X34122Y-35457D03*
X34122Y-34378D03*
X34870Y-34918D03*
X34870Y-33839D03*
X34870Y-32760D03*
X34870Y-31681D03*
G54D16*
X34800Y-42476D03*
G54D17*
X33800Y-42524D03*
X32800Y-42476D03*
G54D16*
X29800Y-41300D03*
G54D17*
X28800Y-41300D03*
X29800Y-40300D03*
X28800Y-40300D03*
X29800Y-39300D03*
X28800Y-39300D03*
X29800Y-38300D03*
X28800Y-38300D03*
X29800Y-37300D03*
X28800Y-37300D03*
X29800Y-36300D03*
X28800Y-36300D03*
X29800Y-35300D03*
X28800Y-35300D03*
X29800Y-34300D03*
X28800Y-34300D03*
X29800Y-33300D03*
X28800Y-33300D03*
X29800Y-32300D03*
X28800Y-32300D03*
X29800Y-31300D03*
X28800Y-31300D03*
X29800Y-30300D03*
X28800Y-30300D03*
X29800Y-29300D03*
X28800Y-29300D03*
X29800Y-28300D03*
X28800Y-28300D03*
X29800Y-27300D03*
X28800Y-27300D03*
X29800Y-26300D03*
X28800Y-26300D03*
X29800Y-25300D03*
X28800Y-25300D03*
G54D18*
X28300Y-44700D03*
X28300Y-18500D03*
X35300Y-44700D03*
X35300Y-18500D03*
G54D19*
X34413Y-21230D03*
X32760Y-21230D03*
X31106Y-21230D03*
G54D20*
X31106Y-19714D03*
X33586Y-23415D03*
G54D21*
X33800Y-40100D03*
G54D22*
X35600Y-23800D02*
X35600Y-21630D01*
X35600Y-32031D02*
X35600Y-23800D01*
X35200Y-21230D02*
X34413Y-21230D01*
X35600Y-21630D02*
X35200Y-21230D01*
X34870Y-32760D02*
X35600Y-32031D01*
X35600Y-32031D02*
X35600Y-32100D01*
X34800Y-40725D02*
X34800Y-40400D01*
X35600Y-39600D02*
X35600Y-32100D01*
X35600Y-32100D02*
X35600Y-32031D01*
X34800Y-40400D02*
X35600Y-39600D01*
X33800Y-40725D02*
X33800Y-40100D01*
X28795Y-22380D02*
X28795Y-25295D01*
X28795Y-25295D02*
X28800Y-25300D01*
X28785Y-25285D02*
X28800Y-25300D01*
X28800Y-29300D02*
X29300Y-29800D01*
X33142Y-31142D02*
X34122Y-31142D01*
X31800Y-29800D02*
X33142Y-31142D01*
X29300Y-29800D02*
X31800Y-29800D01*
X28800Y-32300D02*
X29300Y-31800D01*
X33221Y-32221D02*
X34122Y-32221D01*
X32800Y-31800D02*
X33221Y-32221D01*
X29300Y-31800D02*
X32800Y-31800D01*
X34122Y-33300D02*
X29800Y-33300D01*
X28800Y-35300D02*
X29300Y-34800D01*
X32421Y-34378D02*
X34122Y-34378D01*
X32000Y-34800D02*
X32421Y-34378D01*
X29300Y-34800D02*
X32000Y-34800D01*
X29800Y-36300D02*
X31600Y-36300D01*
X32442Y-35457D02*
X34122Y-35457D01*
X31600Y-36300D02*
X32442Y-35457D01*
X34870Y-31681D02*
X33181Y-31681D01*
X31800Y-30300D02*
X29800Y-30300D01*
X33181Y-31681D02*
X31800Y-30300D01*
X33800Y-41475D02*
X33800Y-42524D01*
X34800Y-42476D02*
X34800Y-41475D01*
G54D10*
G36*
X35250Y-43749D02*
X35225Y-43749D01*
X35225Y-42721D01*
X35225Y-42171D01*
X35202Y-42116D01*
X35160Y-42073D01*
X35104Y-42051D01*
X35045Y-42050D01*
X35000Y-42050D01*
X35000Y-41800D01*
X35104Y-41800D01*
X35159Y-41777D01*
X35202Y-41735D01*
X35224Y-41679D01*
X35225Y-41620D01*
X35225Y-41270D01*
X35202Y-41215D01*
X35160Y-41172D01*
X35104Y-41150D01*
X35045Y-41149D01*
X34495Y-41149D01*
X34440Y-41172D01*
X34397Y-41214D01*
X34375Y-41270D01*
X34374Y-41329D01*
X34374Y-41679D01*
X34397Y-41734D01*
X34439Y-41777D01*
X34495Y-41799D01*
X34554Y-41800D01*
X34600Y-41800D01*
X34600Y-42050D01*
X34495Y-42050D01*
X34440Y-42073D01*
X34397Y-42115D01*
X34375Y-42171D01*
X34374Y-42230D01*
X34374Y-42780D01*
X34397Y-42835D01*
X34439Y-42878D01*
X34495Y-42900D01*
X34554Y-42901D01*
X35104Y-42901D01*
X35159Y-42878D01*
X35202Y-42836D01*
X35224Y-42780D01*
X35225Y-42721D01*
X35225Y-43749D01*
X35111Y-43749D01*
X34762Y-43894D01*
X34495Y-44161D01*
X34350Y-44510D01*
X34350Y-44650D01*
X34225Y-44650D01*
X34225Y-42439D01*
X34160Y-42283D01*
X34041Y-42163D01*
X34000Y-42146D01*
X34000Y-41800D01*
X34104Y-41800D01*
X34159Y-41777D01*
X34202Y-41735D01*
X34224Y-41679D01*
X34225Y-41620D01*
X34225Y-41270D01*
X34225Y-40870D01*
X34225Y-40520D01*
X34202Y-40465D01*
X34160Y-40422D01*
X34104Y-40400D01*
X34045Y-40399D01*
X34000Y-40399D01*
X34000Y-40359D01*
X34075Y-40284D01*
X34124Y-40164D01*
X34125Y-40035D01*
X34075Y-39916D01*
X33984Y-39824D01*
X33864Y-39775D01*
X33735Y-39774D01*
X33616Y-39824D01*
X33524Y-39915D01*
X33475Y-40035D01*
X33474Y-40164D01*
X33524Y-40283D01*
X33600Y-40359D01*
X33600Y-40399D01*
X33495Y-40399D01*
X33440Y-40422D01*
X33397Y-40464D01*
X33375Y-40520D01*
X33374Y-40579D01*
X33374Y-40929D01*
X33397Y-40984D01*
X33439Y-41027D01*
X33495Y-41049D01*
X33554Y-41050D01*
X34104Y-41050D01*
X34159Y-41027D01*
X34202Y-40985D01*
X34224Y-40929D01*
X34225Y-40870D01*
X34225Y-41270D01*
X34202Y-41215D01*
X34160Y-41172D01*
X34104Y-41150D01*
X34045Y-41149D01*
X33495Y-41149D01*
X33440Y-41172D01*
X33397Y-41214D01*
X33375Y-41270D01*
X33374Y-41329D01*
X33374Y-41679D01*
X33397Y-41734D01*
X33439Y-41777D01*
X33495Y-41799D01*
X33554Y-41800D01*
X33600Y-41800D01*
X33600Y-42146D01*
X33559Y-42163D01*
X33439Y-42282D01*
X33375Y-42439D01*
X33374Y-42608D01*
X33439Y-42764D01*
X33558Y-42884D01*
X33715Y-42948D01*
X33884Y-42949D01*
X34040Y-42884D01*
X34160Y-42765D01*
X34224Y-42608D01*
X34225Y-42439D01*
X34225Y-44650D01*
X33210Y-44650D01*
X33210Y-42433D01*
X33195Y-42358D01*
X33148Y-42322D01*
X32994Y-42476D01*
X33148Y-42629D01*
X33195Y-42593D01*
X33210Y-42433D01*
X33210Y-44650D01*
X32953Y-44650D01*
X32953Y-42824D01*
X32953Y-42127D01*
X32917Y-42080D01*
X32757Y-42065D01*
X32682Y-42080D01*
X32646Y-42127D01*
X32800Y-42281D01*
X32953Y-42127D01*
X32953Y-42824D01*
X32800Y-42670D01*
X32646Y-42824D01*
X32682Y-42871D01*
X32842Y-42886D01*
X32917Y-42871D01*
X32953Y-42824D01*
X32953Y-44650D01*
X32605Y-44650D01*
X32605Y-42476D01*
X32451Y-42322D01*
X32404Y-42358D01*
X32389Y-42518D01*
X32404Y-42593D01*
X32451Y-42629D01*
X32605Y-42476D01*
X32605Y-44650D01*
X30225Y-44650D01*
X30225Y-40215D01*
X30225Y-39215D01*
X30225Y-38215D01*
X30210Y-38181D01*
X30210Y-37257D01*
X30195Y-37182D01*
X30148Y-37146D01*
X29994Y-37300D01*
X30148Y-37453D01*
X30195Y-37417D01*
X30210Y-37257D01*
X30210Y-38181D01*
X30160Y-38059D01*
X30041Y-37939D01*
X29953Y-37903D01*
X29953Y-37648D01*
X29953Y-36951D01*
X29917Y-36904D01*
X29757Y-36889D01*
X29682Y-36904D01*
X29646Y-36951D01*
X29800Y-37105D01*
X29953Y-36951D01*
X29953Y-37648D01*
X29800Y-37494D01*
X29646Y-37648D01*
X29682Y-37695D01*
X29842Y-37710D01*
X29917Y-37695D01*
X29953Y-37648D01*
X29953Y-37903D01*
X29884Y-37875D01*
X29715Y-37874D01*
X29605Y-37920D01*
X29605Y-37300D01*
X29451Y-37146D01*
X29404Y-37182D01*
X29389Y-37342D01*
X29404Y-37417D01*
X29451Y-37453D01*
X29605Y-37300D01*
X29605Y-37920D01*
X29559Y-37939D01*
X29439Y-38058D01*
X29375Y-38215D01*
X29374Y-38384D01*
X29439Y-38540D01*
X29558Y-38660D01*
X29715Y-38724D01*
X29884Y-38725D01*
X30040Y-38660D01*
X30160Y-38541D01*
X30224Y-38384D01*
X30225Y-38215D01*
X30225Y-39215D01*
X30160Y-39059D01*
X30041Y-38939D01*
X29884Y-38875D01*
X29715Y-38874D01*
X29559Y-38939D01*
X29439Y-39058D01*
X29375Y-39215D01*
X29374Y-39384D01*
X29439Y-39540D01*
X29558Y-39660D01*
X29715Y-39724D01*
X29884Y-39725D01*
X30040Y-39660D01*
X30160Y-39541D01*
X30224Y-39384D01*
X30225Y-39215D01*
X30225Y-40215D01*
X30160Y-40059D01*
X30041Y-39939D01*
X29884Y-39875D01*
X29715Y-39874D01*
X29559Y-39939D01*
X29439Y-40058D01*
X29375Y-40215D01*
X29374Y-40384D01*
X29439Y-40540D01*
X29558Y-40660D01*
X29715Y-40724D01*
X29884Y-40725D01*
X30040Y-40660D01*
X30160Y-40541D01*
X30224Y-40384D01*
X30225Y-40215D01*
X30225Y-44650D01*
X30225Y-44650D01*
X30225Y-41545D01*
X30225Y-40995D01*
X30202Y-40940D01*
X30160Y-40897D01*
X30104Y-40875D01*
X30045Y-40874D01*
X29495Y-40874D01*
X29440Y-40897D01*
X29397Y-40939D01*
X29375Y-40995D01*
X29374Y-41054D01*
X29374Y-41604D01*
X29397Y-41659D01*
X29439Y-41702D01*
X29495Y-41724D01*
X29554Y-41725D01*
X30104Y-41725D01*
X30159Y-41702D01*
X30202Y-41660D01*
X30224Y-41604D01*
X30225Y-41545D01*
X30225Y-44650D01*
X29250Y-44650D01*
X29250Y-44511D01*
X29225Y-44451D01*
X29225Y-41215D01*
X29225Y-40215D01*
X29225Y-39215D01*
X29225Y-38215D01*
X29225Y-37215D01*
X29210Y-37181D01*
X29210Y-36257D01*
X29195Y-36182D01*
X29148Y-36146D01*
X28994Y-36300D01*
X29148Y-36453D01*
X29195Y-36417D01*
X29210Y-36257D01*
X29210Y-37181D01*
X29160Y-37059D01*
X29041Y-36939D01*
X28953Y-36903D01*
X28953Y-36648D01*
X28953Y-35951D01*
X28917Y-35904D01*
X28757Y-35889D01*
X28682Y-35904D01*
X28646Y-35951D01*
X28800Y-36105D01*
X28953Y-35951D01*
X28953Y-36648D01*
X28800Y-36494D01*
X28646Y-36648D01*
X28682Y-36695D01*
X28842Y-36710D01*
X28917Y-36695D01*
X28953Y-36648D01*
X28953Y-36903D01*
X28884Y-36875D01*
X28715Y-36874D01*
X28605Y-36920D01*
X28605Y-36300D01*
X28451Y-36146D01*
X28404Y-36182D01*
X28389Y-36342D01*
X28404Y-36417D01*
X28451Y-36453D01*
X28605Y-36300D01*
X28605Y-36920D01*
X28559Y-36939D01*
X28439Y-37058D01*
X28375Y-37215D01*
X28374Y-37384D01*
X28439Y-37540D01*
X28558Y-37660D01*
X28715Y-37724D01*
X28884Y-37725D01*
X29040Y-37660D01*
X29160Y-37541D01*
X29224Y-37384D01*
X29225Y-37215D01*
X29225Y-38215D01*
X29160Y-38059D01*
X29041Y-37939D01*
X28884Y-37875D01*
X28715Y-37874D01*
X28559Y-37939D01*
X28439Y-38058D01*
X28375Y-38215D01*
X28374Y-38384D01*
X28439Y-38540D01*
X28558Y-38660D01*
X28715Y-38724D01*
X28884Y-38725D01*
X29040Y-38660D01*
X29160Y-38541D01*
X29224Y-38384D01*
X29225Y-38215D01*
X29225Y-39215D01*
X29160Y-39059D01*
X29041Y-38939D01*
X28884Y-38875D01*
X28715Y-38874D01*
X28559Y-38939D01*
X28439Y-39058D01*
X28375Y-39215D01*
X28374Y-39384D01*
X28439Y-39540D01*
X28558Y-39660D01*
X28715Y-39724D01*
X28884Y-39725D01*
X29040Y-39660D01*
X29160Y-39541D01*
X29224Y-39384D01*
X29225Y-39215D01*
X29225Y-40215D01*
X29160Y-40059D01*
X29041Y-39939D01*
X28884Y-39875D01*
X28715Y-39874D01*
X28559Y-39939D01*
X28439Y-40058D01*
X28375Y-40215D01*
X28374Y-40384D01*
X28439Y-40540D01*
X28558Y-40660D01*
X28715Y-40724D01*
X28884Y-40725D01*
X29040Y-40660D01*
X29160Y-40541D01*
X29224Y-40384D01*
X29225Y-40215D01*
X29225Y-41215D01*
X29160Y-41059D01*
X29041Y-40939D01*
X28884Y-40875D01*
X28715Y-40874D01*
X28559Y-40939D01*
X28439Y-41058D01*
X28375Y-41215D01*
X28374Y-41384D01*
X28439Y-41540D01*
X28558Y-41660D01*
X28715Y-41724D01*
X28884Y-41725D01*
X29040Y-41660D01*
X29160Y-41541D01*
X29224Y-41384D01*
X29225Y-41215D01*
X29225Y-44451D01*
X29105Y-44162D01*
X28838Y-43895D01*
X28489Y-43750D01*
X28350Y-43750D01*
X28350Y-19450D01*
X28488Y-19450D01*
X28837Y-19305D01*
X29104Y-19038D01*
X29249Y-18689D01*
X29249Y-18550D01*
X34349Y-18550D01*
X34349Y-18688D01*
X34494Y-19037D01*
X34761Y-19304D01*
X35110Y-19449D01*
X35250Y-19449D01*
X35250Y-21039D01*
X35200Y-21030D01*
X34919Y-21030D01*
X34874Y-20922D01*
X34721Y-20769D01*
X34522Y-20686D01*
X34305Y-20686D01*
X34105Y-20768D01*
X33952Y-20921D01*
X33869Y-21121D01*
X33869Y-21337D01*
X33952Y-21537D01*
X34105Y-21690D01*
X34304Y-21773D01*
X34521Y-21773D01*
X34721Y-21691D01*
X34874Y-21538D01*
X34919Y-21430D01*
X35117Y-21430D01*
X35250Y-21562D01*
X35250Y-27952D01*
X35225Y-27892D01*
X34983Y-27651D01*
X34668Y-27520D01*
X34524Y-27520D01*
X34524Y-23229D01*
X34381Y-22884D01*
X34118Y-22620D01*
X33774Y-22477D01*
X33401Y-22477D01*
X33303Y-22517D01*
X33303Y-21122D01*
X33221Y-20922D01*
X33068Y-20769D01*
X32868Y-20686D01*
X32652Y-20686D01*
X32452Y-20768D01*
X32299Y-20921D01*
X32216Y-21121D01*
X32216Y-21337D01*
X32298Y-21537D01*
X32451Y-21690D01*
X32651Y-21773D01*
X32867Y-21773D01*
X33067Y-21691D01*
X33220Y-21538D01*
X33303Y-21338D01*
X33303Y-21122D01*
X33303Y-22517D01*
X33056Y-22619D01*
X32792Y-22883D01*
X32649Y-23227D01*
X32649Y-23600D01*
X32791Y-23945D01*
X33055Y-24209D01*
X33399Y-24352D01*
X33772Y-24352D01*
X34117Y-24210D01*
X34380Y-23946D01*
X34524Y-23602D01*
X34524Y-23229D01*
X34524Y-27520D01*
X34326Y-27519D01*
X34011Y-27650D01*
X33769Y-27891D01*
X33638Y-28207D01*
X33638Y-28548D01*
X33768Y-28864D01*
X34009Y-29106D01*
X34325Y-29237D01*
X34666Y-29237D01*
X34982Y-29107D01*
X35224Y-28865D01*
X35250Y-28804D01*
X35250Y-31433D01*
X35248Y-31429D01*
X35123Y-31304D01*
X34959Y-31236D01*
X34782Y-31236D01*
X34618Y-31304D01*
X34548Y-31374D01*
X34548Y-30837D01*
X34525Y-30782D01*
X34483Y-30739D01*
X34428Y-30716D01*
X34368Y-30716D01*
X33817Y-30716D01*
X33762Y-30739D01*
X33720Y-30781D01*
X33697Y-30836D01*
X33697Y-30896D01*
X33697Y-30942D01*
X33225Y-30942D01*
X32044Y-29761D01*
X32044Y-19528D01*
X31901Y-19183D01*
X31638Y-18920D01*
X31293Y-18777D01*
X30920Y-18776D01*
X30576Y-18919D01*
X30312Y-19182D01*
X30169Y-19526D01*
X30168Y-19899D01*
X30311Y-20244D01*
X30574Y-20508D01*
X30919Y-20651D01*
X31292Y-20651D01*
X31636Y-20509D01*
X31900Y-20245D01*
X32043Y-19901D01*
X32044Y-19528D01*
X32044Y-29761D01*
X31941Y-29658D01*
X31876Y-29615D01*
X31800Y-29600D01*
X31635Y-29600D01*
X31635Y-21154D01*
X31623Y-21097D01*
X31571Y-21043D01*
X31384Y-21230D01*
X31571Y-21416D01*
X31623Y-21362D01*
X31635Y-21154D01*
X31635Y-29600D01*
X31293Y-29600D01*
X31293Y-21695D01*
X31293Y-20764D01*
X31238Y-20712D01*
X31030Y-20701D01*
X30973Y-20712D01*
X30919Y-20764D01*
X31106Y-20951D01*
X31293Y-20764D01*
X31293Y-21695D01*
X31106Y-21508D01*
X30919Y-21695D01*
X30973Y-21747D01*
X31181Y-21758D01*
X31238Y-21747D01*
X31293Y-21695D01*
X31293Y-29600D01*
X30828Y-29600D01*
X30828Y-21230D01*
X30641Y-21043D01*
X30589Y-21097D01*
X30577Y-21305D01*
X30589Y-21362D01*
X30641Y-21416D01*
X30828Y-21230D01*
X30828Y-29600D01*
X30101Y-29600D01*
X30160Y-29541D01*
X30224Y-29384D01*
X30225Y-29215D01*
X30225Y-27215D01*
X30225Y-26215D01*
X30225Y-25215D01*
X30160Y-25059D01*
X30041Y-24939D01*
X29884Y-24875D01*
X29850Y-24875D01*
X29850Y-22629D01*
X29850Y-22130D01*
X29849Y-22079D01*
X29830Y-22031D01*
X29793Y-21994D01*
X29745Y-21974D01*
X29665Y-21975D01*
X29632Y-22007D01*
X29632Y-22242D01*
X29817Y-22242D01*
X29850Y-22210D01*
X29850Y-22130D01*
X29850Y-22629D01*
X29850Y-22550D01*
X29817Y-22517D01*
X29632Y-22517D01*
X29632Y-22752D01*
X29665Y-22785D01*
X29745Y-22785D01*
X29793Y-22765D01*
X29830Y-22728D01*
X29849Y-22680D01*
X29850Y-22629D01*
X29850Y-24875D01*
X29715Y-24874D01*
X29559Y-24939D01*
X29457Y-25041D01*
X29457Y-22752D01*
X29457Y-22517D01*
X29457Y-22242D01*
X29457Y-22007D01*
X29425Y-21975D01*
X29344Y-21974D01*
X29296Y-21994D01*
X29259Y-22031D01*
X29240Y-22079D01*
X29239Y-22130D01*
X29240Y-22210D01*
X29272Y-22242D01*
X29457Y-22242D01*
X29457Y-22517D01*
X29272Y-22517D01*
X29240Y-22550D01*
X29239Y-22629D01*
X29240Y-22680D01*
X29259Y-22728D01*
X29296Y-22765D01*
X29344Y-22785D01*
X29425Y-22785D01*
X29457Y-22752D01*
X29457Y-25041D01*
X29439Y-25058D01*
X29375Y-25215D01*
X29374Y-25384D01*
X29439Y-25540D01*
X29558Y-25660D01*
X29715Y-25724D01*
X29884Y-25725D01*
X30040Y-25660D01*
X30160Y-25541D01*
X30224Y-25384D01*
X30225Y-25215D01*
X30225Y-26215D01*
X30160Y-26059D01*
X30041Y-25939D01*
X29884Y-25875D01*
X29715Y-25874D01*
X29559Y-25939D01*
X29439Y-26058D01*
X29375Y-26215D01*
X29374Y-26384D01*
X29439Y-26540D01*
X29558Y-26660D01*
X29715Y-26724D01*
X29884Y-26725D01*
X30040Y-26660D01*
X30160Y-26541D01*
X30224Y-26384D01*
X30225Y-26215D01*
X30225Y-27215D01*
X30160Y-27059D01*
X30041Y-26939D01*
X29884Y-26875D01*
X29715Y-26874D01*
X29559Y-26939D01*
X29439Y-27058D01*
X29375Y-27215D01*
X29374Y-27384D01*
X29439Y-27540D01*
X29558Y-27660D01*
X29715Y-27724D01*
X29884Y-27725D01*
X30040Y-27660D01*
X30160Y-27541D01*
X30224Y-27384D01*
X30225Y-27215D01*
X30225Y-29215D01*
X30210Y-29181D01*
X30210Y-28257D01*
X30195Y-28182D01*
X30148Y-28146D01*
X29994Y-28300D01*
X30148Y-28453D01*
X30195Y-28417D01*
X30210Y-28257D01*
X30210Y-29181D01*
X30160Y-29059D01*
X30041Y-28939D01*
X29953Y-28903D01*
X29953Y-28648D01*
X29953Y-27951D01*
X29917Y-27904D01*
X29757Y-27889D01*
X29682Y-27904D01*
X29646Y-27951D01*
X29800Y-28105D01*
X29953Y-27951D01*
X29953Y-28648D01*
X29800Y-28494D01*
X29646Y-28648D01*
X29682Y-28695D01*
X29842Y-28710D01*
X29917Y-28695D01*
X29953Y-28648D01*
X29953Y-28903D01*
X29884Y-28875D01*
X29715Y-28874D01*
X29605Y-28920D01*
X29605Y-28300D01*
X29451Y-28146D01*
X29404Y-28182D01*
X29389Y-28342D01*
X29404Y-28417D01*
X29451Y-28453D01*
X29605Y-28300D01*
X29605Y-28920D01*
X29559Y-28939D01*
X29439Y-29058D01*
X29375Y-29215D01*
X29374Y-29384D01*
X29439Y-29540D01*
X29498Y-29600D01*
X29382Y-29600D01*
X29208Y-29425D01*
X29224Y-29384D01*
X29225Y-29215D01*
X29225Y-28215D01*
X29225Y-27215D01*
X29225Y-26215D01*
X29225Y-25215D01*
X29160Y-25059D01*
X29041Y-24939D01*
X28995Y-24920D01*
X28995Y-22805D01*
X28999Y-22805D01*
X29054Y-22782D01*
X29097Y-22740D01*
X29119Y-22684D01*
X29120Y-22625D01*
X29120Y-22075D01*
X29097Y-22020D01*
X29055Y-21977D01*
X28999Y-21955D01*
X28940Y-21954D01*
X28590Y-21954D01*
X28535Y-21977D01*
X28492Y-22019D01*
X28470Y-22075D01*
X28469Y-22134D01*
X28469Y-22684D01*
X28492Y-22739D01*
X28534Y-22782D01*
X28590Y-22804D01*
X28595Y-22804D01*
X28595Y-24924D01*
X28559Y-24939D01*
X28439Y-25058D01*
X28375Y-25215D01*
X28374Y-25384D01*
X28439Y-25540D01*
X28558Y-25660D01*
X28715Y-25724D01*
X28884Y-25725D01*
X29040Y-25660D01*
X29160Y-25541D01*
X29224Y-25384D01*
X29225Y-25215D01*
X29225Y-26215D01*
X29160Y-26059D01*
X29041Y-25939D01*
X28884Y-25875D01*
X28715Y-25874D01*
X28559Y-25939D01*
X28439Y-26058D01*
X28375Y-26215D01*
X28374Y-26384D01*
X28439Y-26540D01*
X28558Y-26660D01*
X28715Y-26724D01*
X28884Y-26725D01*
X29040Y-26660D01*
X29160Y-26541D01*
X29224Y-26384D01*
X29225Y-26215D01*
X29225Y-27215D01*
X29160Y-27059D01*
X29041Y-26939D01*
X28884Y-26875D01*
X28715Y-26874D01*
X28559Y-26939D01*
X28439Y-27058D01*
X28375Y-27215D01*
X28374Y-27384D01*
X28439Y-27540D01*
X28558Y-27660D01*
X28715Y-27724D01*
X28884Y-27725D01*
X29040Y-27660D01*
X29160Y-27541D01*
X29224Y-27384D01*
X29225Y-27215D01*
X29225Y-28215D01*
X29160Y-28059D01*
X29041Y-27939D01*
X28884Y-27875D01*
X28715Y-27874D01*
X28559Y-27939D01*
X28439Y-28058D01*
X28375Y-28215D01*
X28374Y-28384D01*
X28439Y-28540D01*
X28558Y-28660D01*
X28715Y-28724D01*
X28884Y-28725D01*
X29040Y-28660D01*
X29160Y-28541D01*
X29224Y-28384D01*
X29225Y-28215D01*
X29225Y-29215D01*
X29160Y-29059D01*
X29041Y-28939D01*
X28884Y-28875D01*
X28715Y-28874D01*
X28559Y-28939D01*
X28439Y-29058D01*
X28375Y-29215D01*
X28374Y-29384D01*
X28439Y-29540D01*
X28558Y-29660D01*
X28715Y-29724D01*
X28884Y-29725D01*
X28925Y-29708D01*
X29158Y-29941D01*
X29223Y-29984D01*
X29223Y-29984D01*
X29236Y-29987D01*
X29300Y-30000D01*
X29498Y-30000D01*
X29439Y-30058D01*
X29375Y-30215D01*
X29374Y-30384D01*
X29439Y-30540D01*
X29558Y-30660D01*
X29715Y-30724D01*
X29884Y-30725D01*
X30040Y-30660D01*
X30160Y-30541D01*
X30177Y-30500D01*
X31717Y-30500D01*
X32821Y-31604D01*
X32800Y-31600D01*
X30210Y-31600D01*
X30210Y-31257D01*
X30195Y-31182D01*
X30148Y-31146D01*
X29994Y-31300D01*
X30148Y-31453D01*
X30195Y-31417D01*
X30210Y-31257D01*
X30210Y-31600D01*
X29953Y-31600D01*
X29953Y-30951D01*
X29917Y-30904D01*
X29757Y-30889D01*
X29682Y-30904D01*
X29646Y-30951D01*
X29800Y-31105D01*
X29953Y-30951D01*
X29953Y-31600D01*
X29905Y-31600D01*
X29800Y-31494D01*
X29694Y-31600D01*
X29605Y-31600D01*
X29605Y-31300D01*
X29451Y-31146D01*
X29404Y-31182D01*
X29389Y-31342D01*
X29404Y-31417D01*
X29451Y-31453D01*
X29605Y-31300D01*
X29605Y-31600D01*
X29300Y-31600D01*
X29236Y-31612D01*
X29225Y-31614D01*
X29225Y-31215D01*
X29210Y-31181D01*
X29210Y-30257D01*
X29195Y-30182D01*
X29148Y-30146D01*
X28994Y-30300D01*
X29148Y-30453D01*
X29195Y-30417D01*
X29210Y-30257D01*
X29210Y-31181D01*
X29160Y-31059D01*
X29041Y-30939D01*
X28953Y-30903D01*
X28953Y-30648D01*
X28953Y-29951D01*
X28917Y-29904D01*
X28757Y-29889D01*
X28682Y-29904D01*
X28646Y-29951D01*
X28800Y-30105D01*
X28953Y-29951D01*
X28953Y-30648D01*
X28800Y-30494D01*
X28646Y-30648D01*
X28682Y-30695D01*
X28842Y-30710D01*
X28917Y-30695D01*
X28953Y-30648D01*
X28953Y-30903D01*
X28884Y-30875D01*
X28715Y-30874D01*
X28605Y-30920D01*
X28605Y-30300D01*
X28451Y-30146D01*
X28404Y-30182D01*
X28389Y-30342D01*
X28404Y-30417D01*
X28451Y-30453D01*
X28605Y-30300D01*
X28605Y-30920D01*
X28559Y-30939D01*
X28439Y-31058D01*
X28375Y-31215D01*
X28374Y-31384D01*
X28439Y-31540D01*
X28558Y-31660D01*
X28715Y-31724D01*
X28884Y-31725D01*
X29040Y-31660D01*
X29160Y-31541D01*
X29224Y-31384D01*
X29225Y-31215D01*
X29225Y-31614D01*
X29223Y-31615D01*
X29158Y-31658D01*
X28925Y-31891D01*
X28884Y-31875D01*
X28715Y-31874D01*
X28559Y-31939D01*
X28439Y-32058D01*
X28375Y-32215D01*
X28374Y-32384D01*
X28439Y-32540D01*
X28558Y-32660D01*
X28715Y-32724D01*
X28884Y-32725D01*
X29040Y-32660D01*
X29160Y-32541D01*
X29224Y-32384D01*
X29225Y-32215D01*
X29208Y-32174D01*
X29382Y-32000D01*
X29498Y-32000D01*
X29439Y-32058D01*
X29375Y-32215D01*
X29374Y-32384D01*
X29439Y-32540D01*
X29558Y-32660D01*
X29715Y-32724D01*
X29884Y-32725D01*
X30040Y-32660D01*
X30160Y-32541D01*
X30224Y-32384D01*
X30225Y-32215D01*
X30160Y-32059D01*
X30101Y-32000D01*
X32717Y-32000D01*
X33079Y-32362D01*
X33079Y-32362D01*
X33123Y-32391D01*
X33144Y-32406D01*
X33144Y-32406D01*
X33221Y-32421D01*
X33723Y-32421D01*
X33745Y-32473D01*
X33870Y-32598D01*
X34033Y-32666D01*
X34211Y-32666D01*
X34374Y-32598D01*
X34500Y-32473D01*
X34568Y-32310D01*
X34568Y-32133D01*
X34500Y-31969D01*
X34413Y-31881D01*
X34471Y-31881D01*
X34493Y-31933D01*
X34618Y-32059D01*
X34781Y-32127D01*
X34959Y-32127D01*
X35122Y-32059D01*
X35248Y-31934D01*
X35250Y-31929D01*
X35250Y-32098D01*
X35011Y-32336D01*
X34959Y-32315D01*
X34782Y-32315D01*
X34618Y-32382D01*
X34493Y-32508D01*
X34425Y-32671D01*
X34425Y-32848D01*
X34493Y-33012D01*
X34618Y-33137D01*
X34781Y-33205D01*
X34959Y-33205D01*
X35122Y-33138D01*
X35248Y-33013D01*
X35250Y-33008D01*
X35250Y-33590D01*
X35248Y-33587D01*
X35123Y-33462D01*
X34959Y-33394D01*
X34782Y-33394D01*
X34618Y-33461D01*
X34568Y-33512D01*
X34568Y-33211D01*
X34500Y-33048D01*
X34375Y-32922D01*
X34211Y-32854D01*
X34034Y-32854D01*
X33870Y-32922D01*
X33745Y-33047D01*
X33723Y-33100D01*
X30177Y-33100D01*
X30160Y-33059D01*
X30041Y-32939D01*
X29884Y-32875D01*
X29715Y-32874D01*
X29559Y-32939D01*
X29439Y-33058D01*
X29375Y-33215D01*
X29374Y-33384D01*
X29439Y-33540D01*
X29558Y-33660D01*
X29715Y-33724D01*
X29884Y-33725D01*
X30040Y-33660D01*
X30160Y-33541D01*
X30177Y-33500D01*
X33723Y-33500D01*
X33745Y-33551D01*
X33870Y-33677D01*
X34033Y-33745D01*
X34211Y-33745D01*
X34374Y-33677D01*
X34500Y-33552D01*
X34568Y-33388D01*
X34568Y-33211D01*
X34568Y-33512D01*
X34493Y-33586D01*
X34425Y-33750D01*
X34425Y-33927D01*
X34493Y-34091D01*
X34618Y-34216D01*
X34781Y-34284D01*
X34959Y-34284D01*
X35122Y-34217D01*
X35248Y-34091D01*
X35250Y-34087D01*
X35250Y-34767D01*
X35238Y-34758D01*
X35079Y-34918D01*
X35238Y-35077D01*
X35250Y-35068D01*
X35250Y-37795D01*
X35225Y-37735D01*
X35030Y-37540D01*
X35030Y-35286D01*
X35030Y-34550D01*
X34991Y-34501D01*
X34822Y-34487D01*
X34750Y-34501D01*
X34711Y-34550D01*
X34870Y-34709D01*
X35030Y-34550D01*
X35030Y-35286D01*
X34870Y-35126D01*
X34711Y-35286D01*
X34750Y-35334D01*
X34919Y-35349D01*
X34991Y-35334D01*
X35030Y-35286D01*
X35030Y-37540D01*
X34983Y-37493D01*
X34668Y-37362D01*
X34662Y-37362D01*
X34662Y-34918D01*
X34568Y-34824D01*
X34568Y-34290D01*
X34500Y-34126D01*
X34375Y-34001D01*
X34211Y-33933D01*
X34034Y-33933D01*
X33870Y-34001D01*
X33745Y-34126D01*
X33723Y-34178D01*
X32421Y-34178D01*
X32344Y-34193D01*
X32323Y-34208D01*
X32279Y-34237D01*
X31917Y-34600D01*
X30210Y-34600D01*
X30210Y-34257D01*
X30195Y-34182D01*
X30148Y-34146D01*
X29994Y-34300D01*
X30148Y-34453D01*
X30195Y-34417D01*
X30210Y-34257D01*
X30210Y-34600D01*
X29953Y-34600D01*
X29953Y-33951D01*
X29917Y-33904D01*
X29757Y-33889D01*
X29682Y-33904D01*
X29646Y-33951D01*
X29800Y-34105D01*
X29953Y-33951D01*
X29953Y-34600D01*
X29905Y-34600D01*
X29800Y-34494D01*
X29694Y-34600D01*
X29605Y-34600D01*
X29605Y-34300D01*
X29451Y-34146D01*
X29404Y-34182D01*
X29389Y-34342D01*
X29404Y-34417D01*
X29451Y-34453D01*
X29605Y-34300D01*
X29605Y-34600D01*
X29300Y-34600D01*
X29236Y-34612D01*
X29225Y-34614D01*
X29225Y-34215D01*
X29210Y-34181D01*
X29210Y-33257D01*
X29195Y-33182D01*
X29148Y-33146D01*
X28994Y-33300D01*
X29148Y-33453D01*
X29195Y-33417D01*
X29210Y-33257D01*
X29210Y-34181D01*
X29160Y-34059D01*
X29041Y-33939D01*
X28953Y-33903D01*
X28953Y-33648D01*
X28953Y-32951D01*
X28917Y-32904D01*
X28757Y-32889D01*
X28682Y-32904D01*
X28646Y-32951D01*
X28800Y-33105D01*
X28953Y-32951D01*
X28953Y-33648D01*
X28800Y-33494D01*
X28646Y-33648D01*
X28682Y-33695D01*
X28842Y-33710D01*
X28917Y-33695D01*
X28953Y-33648D01*
X28953Y-33903D01*
X28884Y-33875D01*
X28715Y-33874D01*
X28605Y-33920D01*
X28605Y-33300D01*
X28451Y-33146D01*
X28404Y-33182D01*
X28389Y-33342D01*
X28404Y-33417D01*
X28451Y-33453D01*
X28605Y-33300D01*
X28605Y-33920D01*
X28559Y-33939D01*
X28439Y-34058D01*
X28375Y-34215D01*
X28374Y-34384D01*
X28439Y-34540D01*
X28558Y-34660D01*
X28715Y-34724D01*
X28884Y-34725D01*
X29040Y-34660D01*
X29160Y-34541D01*
X29224Y-34384D01*
X29225Y-34215D01*
X29225Y-34614D01*
X29223Y-34615D01*
X29158Y-34658D01*
X28925Y-34891D01*
X28884Y-34875D01*
X28715Y-34874D01*
X28559Y-34939D01*
X28439Y-35058D01*
X28375Y-35215D01*
X28374Y-35384D01*
X28439Y-35540D01*
X28558Y-35660D01*
X28715Y-35724D01*
X28884Y-35725D01*
X29040Y-35660D01*
X29160Y-35541D01*
X29224Y-35384D01*
X29225Y-35215D01*
X29208Y-35174D01*
X29382Y-35000D01*
X29498Y-35000D01*
X29439Y-35058D01*
X29375Y-35215D01*
X29374Y-35384D01*
X29439Y-35540D01*
X29558Y-35660D01*
X29715Y-35724D01*
X29884Y-35725D01*
X30040Y-35660D01*
X30160Y-35541D01*
X30224Y-35384D01*
X30225Y-35215D01*
X30160Y-35059D01*
X30101Y-35000D01*
X32000Y-35000D01*
X32076Y-34984D01*
X32141Y-34941D01*
X32504Y-34578D01*
X33723Y-34578D01*
X33745Y-34630D01*
X33870Y-34756D01*
X34033Y-34823D01*
X34211Y-34824D01*
X34374Y-34756D01*
X34500Y-34631D01*
X34568Y-34467D01*
X34568Y-34290D01*
X34568Y-34824D01*
X34502Y-34758D01*
X34454Y-34797D01*
X34439Y-34966D01*
X34454Y-35038D01*
X34502Y-35077D01*
X34662Y-34918D01*
X34662Y-37362D01*
X34568Y-37362D01*
X34568Y-35369D01*
X34500Y-35205D01*
X34375Y-35080D01*
X34211Y-35012D01*
X34034Y-35012D01*
X33870Y-35079D01*
X33745Y-35204D01*
X33723Y-35257D01*
X32442Y-35257D01*
X32365Y-35272D01*
X32301Y-35316D01*
X31517Y-36100D01*
X30177Y-36100D01*
X30160Y-36059D01*
X30041Y-35939D01*
X29884Y-35875D01*
X29715Y-35874D01*
X29559Y-35939D01*
X29439Y-36058D01*
X29375Y-36215D01*
X29374Y-36384D01*
X29439Y-36540D01*
X29558Y-36660D01*
X29715Y-36724D01*
X29884Y-36725D01*
X30040Y-36660D01*
X30160Y-36541D01*
X30177Y-36500D01*
X31600Y-36500D01*
X31676Y-36484D01*
X31741Y-36441D01*
X32525Y-35657D01*
X33723Y-35657D01*
X33745Y-35709D01*
X33870Y-35834D01*
X34033Y-35902D01*
X34211Y-35902D01*
X34374Y-35835D01*
X34500Y-35710D01*
X34568Y-35546D01*
X34568Y-35369D01*
X34568Y-37362D01*
X34326Y-37362D01*
X34011Y-37492D01*
X33769Y-37734D01*
X33638Y-38049D01*
X33638Y-38391D01*
X33768Y-38707D01*
X34009Y-38948D01*
X34325Y-39079D01*
X34666Y-39080D01*
X34982Y-38949D01*
X35224Y-38708D01*
X35250Y-38646D01*
X35250Y-39667D01*
X34658Y-40258D01*
X34615Y-40323D01*
X34600Y-40399D01*
X34495Y-40399D01*
X34440Y-40422D01*
X34397Y-40464D01*
X34375Y-40520D01*
X34374Y-40579D01*
X34374Y-40929D01*
X34397Y-40984D01*
X34439Y-41027D01*
X34495Y-41049D01*
X34554Y-41050D01*
X35104Y-41050D01*
X35159Y-41027D01*
X35202Y-40985D01*
X35224Y-40929D01*
X35225Y-40870D01*
X35225Y-40520D01*
X35202Y-40465D01*
X35160Y-40422D01*
X35104Y-40400D01*
X35082Y-40400D01*
X35250Y-40232D01*
X35250Y-43749D01*
X35250Y-43749D01*
G37*
G54D22*
X35250Y-43749D02*
X35225Y-43749D01*
X35225Y-42721D01*
X35225Y-42171D01*
X35202Y-42116D01*
X35160Y-42073D01*
X35104Y-42051D01*
X35045Y-42050D01*
X35000Y-42050D01*
X35000Y-41800D01*
X35104Y-41800D01*
X35159Y-41777D01*
X35202Y-41735D01*
X35224Y-41679D01*
X35225Y-41620D01*
X35225Y-41270D01*
X35202Y-41215D01*
X35160Y-41172D01*
X35104Y-41150D01*
X35045Y-41149D01*
X34495Y-41149D01*
X34440Y-41172D01*
X34397Y-41214D01*
X34375Y-41270D01*
X34374Y-41329D01*
X34374Y-41679D01*
X34397Y-41734D01*
X34439Y-41777D01*
X34495Y-41799D01*
X34554Y-41800D01*
X34600Y-41800D01*
X34600Y-42050D01*
X34495Y-42050D01*
X34440Y-42073D01*
X34397Y-42115D01*
X34375Y-42171D01*
X34374Y-42230D01*
X34374Y-42780D01*
X34397Y-42835D01*
X34439Y-42878D01*
X34495Y-42900D01*
X34554Y-42901D01*
X35104Y-42901D01*
X35159Y-42878D01*
X35202Y-42836D01*
X35224Y-42780D01*
X35225Y-42721D01*
X35225Y-43749D01*
X35111Y-43749D01*
X34762Y-43894D01*
X34495Y-44161D01*
X34350Y-44510D01*
X34350Y-44650D01*
X34225Y-44650D01*
X34225Y-42439D01*
X34160Y-42283D01*
X34041Y-42163D01*
X34000Y-42146D01*
X34000Y-41800D01*
X34104Y-41800D01*
X34159Y-41777D01*
X34202Y-41735D01*
X34224Y-41679D01*
X34225Y-41620D01*
X34225Y-41270D01*
X34225Y-40870D01*
X34225Y-40520D01*
X34202Y-40465D01*
X34160Y-40422D01*
X34104Y-40400D01*
X34045Y-40399D01*
X34000Y-40399D01*
X34000Y-40359D01*
X34075Y-40284D01*
X34124Y-40164D01*
X34125Y-40035D01*
X34075Y-39916D01*
X33984Y-39824D01*
X33864Y-39775D01*
X33735Y-39774D01*
X33616Y-39824D01*
X33524Y-39915D01*
X33475Y-40035D01*
X33474Y-40164D01*
X33524Y-40283D01*
X33600Y-40359D01*
X33600Y-40399D01*
X33495Y-40399D01*
X33440Y-40422D01*
X33397Y-40464D01*
X33375Y-40520D01*
X33374Y-40579D01*
X33374Y-40929D01*
X33397Y-40984D01*
X33439Y-41027D01*
X33495Y-41049D01*
X33554Y-41050D01*
X34104Y-41050D01*
X34159Y-41027D01*
X34202Y-40985D01*
X34224Y-40929D01*
X34225Y-40870D01*
X34225Y-41270D01*
X34202Y-41215D01*
X34160Y-41172D01*
X34104Y-41150D01*
X34045Y-41149D01*
X33495Y-41149D01*
X33440Y-41172D01*
X33397Y-41214D01*
X33375Y-41270D01*
X33374Y-41329D01*
X33374Y-41679D01*
X33397Y-41734D01*
X33439Y-41777D01*
X33495Y-41799D01*
X33554Y-41800D01*
X33600Y-41800D01*
X33600Y-42146D01*
X33559Y-42163D01*
X33439Y-42282D01*
X33375Y-42439D01*
X33374Y-42608D01*
X33439Y-42764D01*
X33558Y-42884D01*
X33715Y-42948D01*
X33884Y-42949D01*
X34040Y-42884D01*
X34160Y-42765D01*
X34224Y-42608D01*
X34225Y-42439D01*
X34225Y-44650D01*
X33210Y-44650D01*
X33210Y-42433D01*
X33195Y-42358D01*
X33148Y-42322D01*
X32994Y-42476D01*
X33148Y-42629D01*
X33195Y-42593D01*
X33210Y-42433D01*
X33210Y-44650D01*
X32953Y-44650D01*
X32953Y-42824D01*
X32953Y-42127D01*
X32917Y-42080D01*
X32757Y-42065D01*
X32682Y-42080D01*
X32646Y-42127D01*
X32800Y-42281D01*
X32953Y-42127D01*
X32953Y-42824D01*
X32800Y-42670D01*
X32646Y-42824D01*
X32682Y-42871D01*
X32842Y-42886D01*
X32917Y-42871D01*
X32953Y-42824D01*
X32953Y-44650D01*
X32605Y-44650D01*
X32605Y-42476D01*
X32451Y-42322D01*
X32404Y-42358D01*
X32389Y-42518D01*
X32404Y-42593D01*
X32451Y-42629D01*
X32605Y-42476D01*
X32605Y-44650D01*
X30225Y-44650D01*
X30225Y-40215D01*
X30225Y-39215D01*
X30225Y-38215D01*
X30210Y-38181D01*
X30210Y-37257D01*
X30195Y-37182D01*
X30148Y-37146D01*
X29994Y-37300D01*
X30148Y-37453D01*
X30195Y-37417D01*
X30210Y-37257D01*
X30210Y-38181D01*
X30160Y-38059D01*
X30041Y-37939D01*
X29953Y-37903D01*
X29953Y-37648D01*
X29953Y-36951D01*
X29917Y-36904D01*
X29757Y-36889D01*
X29682Y-36904D01*
X29646Y-36951D01*
X29800Y-37105D01*
X29953Y-36951D01*
X29953Y-37648D01*
X29800Y-37494D01*
X29646Y-37648D01*
X29682Y-37695D01*
X29842Y-37710D01*
X29917Y-37695D01*
X29953Y-37648D01*
X29953Y-37903D01*
X29884Y-37875D01*
X29715Y-37874D01*
X29605Y-37920D01*
X29605Y-37300D01*
X29451Y-37146D01*
X29404Y-37182D01*
X29389Y-37342D01*
X29404Y-37417D01*
X29451Y-37453D01*
X29605Y-37300D01*
X29605Y-37920D01*
X29559Y-37939D01*
X29439Y-38058D01*
X29375Y-38215D01*
X29374Y-38384D01*
X29439Y-38540D01*
X29558Y-38660D01*
X29715Y-38724D01*
X29884Y-38725D01*
X30040Y-38660D01*
X30160Y-38541D01*
X30224Y-38384D01*
X30225Y-38215D01*
X30225Y-39215D01*
X30160Y-39059D01*
X30041Y-38939D01*
X29884Y-38875D01*
X29715Y-38874D01*
X29559Y-38939D01*
X29439Y-39058D01*
X29375Y-39215D01*
X29374Y-39384D01*
X29439Y-39540D01*
X29558Y-39660D01*
X29715Y-39724D01*
X29884Y-39725D01*
X30040Y-39660D01*
X30160Y-39541D01*
X30224Y-39384D01*
X30225Y-39215D01*
X30225Y-40215D01*
X30160Y-40059D01*
X30041Y-39939D01*
X29884Y-39875D01*
X29715Y-39874D01*
X29559Y-39939D01*
X29439Y-40058D01*
X29375Y-40215D01*
X29374Y-40384D01*
X29439Y-40540D01*
X29558Y-40660D01*
X29715Y-40724D01*
X29884Y-40725D01*
X30040Y-40660D01*
X30160Y-40541D01*
X30224Y-40384D01*
X30225Y-40215D01*
X30225Y-44650D01*
X30225Y-44650D01*
X30225Y-41545D01*
X30225Y-40995D01*
X30202Y-40940D01*
X30160Y-40897D01*
X30104Y-40875D01*
X30045Y-40874D01*
X29495Y-40874D01*
X29440Y-40897D01*
X29397Y-40939D01*
X29375Y-40995D01*
X29374Y-41054D01*
X29374Y-41604D01*
X29397Y-41659D01*
X29439Y-41702D01*
X29495Y-41724D01*
X29554Y-41725D01*
X30104Y-41725D01*
X30159Y-41702D01*
X30202Y-41660D01*
X30224Y-41604D01*
X30225Y-41545D01*
X30225Y-44650D01*
X29250Y-44650D01*
X29250Y-44511D01*
X29225Y-44451D01*
X29225Y-41215D01*
X29225Y-40215D01*
X29225Y-39215D01*
X29225Y-38215D01*
X29225Y-37215D01*
X29210Y-37181D01*
X29210Y-36257D01*
X29195Y-36182D01*
X29148Y-36146D01*
X28994Y-36300D01*
X29148Y-36453D01*
X29195Y-36417D01*
X29210Y-36257D01*
X29210Y-37181D01*
X29160Y-37059D01*
X29041Y-36939D01*
X28953Y-36903D01*
X28953Y-36648D01*
X28953Y-35951D01*
X28917Y-35904D01*
X28757Y-35889D01*
X28682Y-35904D01*
X28646Y-35951D01*
X28800Y-36105D01*
X28953Y-35951D01*
X28953Y-36648D01*
X28800Y-36494D01*
X28646Y-36648D01*
X28682Y-36695D01*
X28842Y-36710D01*
X28917Y-36695D01*
X28953Y-36648D01*
X28953Y-36903D01*
X28884Y-36875D01*
X28715Y-36874D01*
X28605Y-36920D01*
X28605Y-36300D01*
X28451Y-36146D01*
X28404Y-36182D01*
X28389Y-36342D01*
X28404Y-36417D01*
X28451Y-36453D01*
X28605Y-36300D01*
X28605Y-36920D01*
X28559Y-36939D01*
X28439Y-37058D01*
X28375Y-37215D01*
X28374Y-37384D01*
X28439Y-37540D01*
X28558Y-37660D01*
X28715Y-37724D01*
X28884Y-37725D01*
X29040Y-37660D01*
X29160Y-37541D01*
X29224Y-37384D01*
X29225Y-37215D01*
X29225Y-38215D01*
X29160Y-38059D01*
X29041Y-37939D01*
X28884Y-37875D01*
X28715Y-37874D01*
X28559Y-37939D01*
X28439Y-38058D01*
X28375Y-38215D01*
X28374Y-38384D01*
X28439Y-38540D01*
X28558Y-38660D01*
X28715Y-38724D01*
X28884Y-38725D01*
X29040Y-38660D01*
X29160Y-38541D01*
X29224Y-38384D01*
X29225Y-38215D01*
X29225Y-39215D01*
X29160Y-39059D01*
X29041Y-38939D01*
X28884Y-38875D01*
X28715Y-38874D01*
X28559Y-38939D01*
X28439Y-39058D01*
X28375Y-39215D01*
X28374Y-39384D01*
X28439Y-39540D01*
X28558Y-39660D01*
X28715Y-39724D01*
X28884Y-39725D01*
X29040Y-39660D01*
X29160Y-39541D01*
X29224Y-39384D01*
X29225Y-39215D01*
X29225Y-40215D01*
X29160Y-40059D01*
X29041Y-39939D01*
X28884Y-39875D01*
X28715Y-39874D01*
X28559Y-39939D01*
X28439Y-40058D01*
X28375Y-40215D01*
X28374Y-40384D01*
X28439Y-40540D01*
X28558Y-40660D01*
X28715Y-40724D01*
X28884Y-40725D01*
X29040Y-40660D01*
X29160Y-40541D01*
X29224Y-40384D01*
X29225Y-40215D01*
X29225Y-41215D01*
X29160Y-41059D01*
X29041Y-40939D01*
X28884Y-40875D01*
X28715Y-40874D01*
X28559Y-40939D01*
X28439Y-41058D01*
X28375Y-41215D01*
X28374Y-41384D01*
X28439Y-41540D01*
X28558Y-41660D01*
X28715Y-41724D01*
X28884Y-41725D01*
X29040Y-41660D01*
X29160Y-41541D01*
X29224Y-41384D01*
X29225Y-41215D01*
X29225Y-44451D01*
X29105Y-44162D01*
X28838Y-43895D01*
X28489Y-43750D01*
X28350Y-43750D01*
X28350Y-19450D01*
X28488Y-19450D01*
X28837Y-19305D01*
X29104Y-19038D01*
X29249Y-18689D01*
X29249Y-18550D01*
X34349Y-18550D01*
X34349Y-18688D01*
X34494Y-19037D01*
X34761Y-19304D01*
X35110Y-19449D01*
X35250Y-19449D01*
X35250Y-21039D01*
X35200Y-21030D01*
X34919Y-21030D01*
X34874Y-20922D01*
X34721Y-20769D01*
X34522Y-20686D01*
X34305Y-20686D01*
X34105Y-20768D01*
X33952Y-20921D01*
X33869Y-21121D01*
X33869Y-21337D01*
X33952Y-21537D01*
X34105Y-21690D01*
X34304Y-21773D01*
X34521Y-21773D01*
X34721Y-21691D01*
X34874Y-21538D01*
X34919Y-21430D01*
X35117Y-21430D01*
X35250Y-21562D01*
X35250Y-27952D01*
X35225Y-27892D01*
X34983Y-27651D01*
X34668Y-27520D01*
X34524Y-27520D01*
X34524Y-23229D01*
X34381Y-22884D01*
X34118Y-22620D01*
X33774Y-22477D01*
X33401Y-22477D01*
X33303Y-22517D01*
X33303Y-21122D01*
X33221Y-20922D01*
X33068Y-20769D01*
X32868Y-20686D01*
X32652Y-20686D01*
X32452Y-20768D01*
X32299Y-20921D01*
X32216Y-21121D01*
X32216Y-21337D01*
X32298Y-21537D01*
X32451Y-21690D01*
X32651Y-21773D01*
X32867Y-21773D01*
X33067Y-21691D01*
X33220Y-21538D01*
X33303Y-21338D01*
X33303Y-21122D01*
X33303Y-22517D01*
X33056Y-22619D01*
X32792Y-22883D01*
X32649Y-23227D01*
X32649Y-23600D01*
X32791Y-23945D01*
X33055Y-24209D01*
X33399Y-24352D01*
X33772Y-24352D01*
X34117Y-24210D01*
X34380Y-23946D01*
X34524Y-23602D01*
X34524Y-23229D01*
X34524Y-27520D01*
X34326Y-27519D01*
X34011Y-27650D01*
X33769Y-27891D01*
X33638Y-28207D01*
X33638Y-28548D01*
X33768Y-28864D01*
X34009Y-29106D01*
X34325Y-29237D01*
X34666Y-29237D01*
X34982Y-29107D01*
X35224Y-28865D01*
X35250Y-28804D01*
X35250Y-31433D01*
X35248Y-31429D01*
X35123Y-31304D01*
X34959Y-31236D01*
X34782Y-31236D01*
X34618Y-31304D01*
X34548Y-31374D01*
X34548Y-30837D01*
X34525Y-30782D01*
X34483Y-30739D01*
X34428Y-30716D01*
X34368Y-30716D01*
X33817Y-30716D01*
X33762Y-30739D01*
X33720Y-30781D01*
X33697Y-30836D01*
X33697Y-30896D01*
X33697Y-30942D01*
X33225Y-30942D01*
X32044Y-29761D01*
X32044Y-19528D01*
X31901Y-19183D01*
X31638Y-18920D01*
X31293Y-18777D01*
X30920Y-18776D01*
X30576Y-18919D01*
X30312Y-19182D01*
X30169Y-19526D01*
X30168Y-19899D01*
X30311Y-20244D01*
X30574Y-20508D01*
X30919Y-20651D01*
X31292Y-20651D01*
X31636Y-20509D01*
X31900Y-20245D01*
X32043Y-19901D01*
X32044Y-19528D01*
X32044Y-29761D01*
X31941Y-29658D01*
X31876Y-29615D01*
X31800Y-29600D01*
X31635Y-29600D01*
X31635Y-21154D01*
X31623Y-21097D01*
X31571Y-21043D01*
X31384Y-21230D01*
X31571Y-21416D01*
X31623Y-21362D01*
X31635Y-21154D01*
X31635Y-29600D01*
X31293Y-29600D01*
X31293Y-21695D01*
X31293Y-20764D01*
X31238Y-20712D01*
X31030Y-20701D01*
X30973Y-20712D01*
X30919Y-20764D01*
X31106Y-20951D01*
X31293Y-20764D01*
X31293Y-21695D01*
X31106Y-21508D01*
X30919Y-21695D01*
X30973Y-21747D01*
X31181Y-21758D01*
X31238Y-21747D01*
X31293Y-21695D01*
X31293Y-29600D01*
X30828Y-29600D01*
X30828Y-21230D01*
X30641Y-21043D01*
X30589Y-21097D01*
X30577Y-21305D01*
X30589Y-21362D01*
X30641Y-21416D01*
X30828Y-21230D01*
X30828Y-29600D01*
X30101Y-29600D01*
X30160Y-29541D01*
X30224Y-29384D01*
X30225Y-29215D01*
X30225Y-27215D01*
X30225Y-26215D01*
X30225Y-25215D01*
X30160Y-25059D01*
X30041Y-24939D01*
X29884Y-24875D01*
X29850Y-24875D01*
X29850Y-22629D01*
X29850Y-22130D01*
X29849Y-22079D01*
X29830Y-22031D01*
X29793Y-21994D01*
X29745Y-21974D01*
X29665Y-21975D01*
X29632Y-22007D01*
X29632Y-22242D01*
X29817Y-22242D01*
X29850Y-22210D01*
X29850Y-22130D01*
X29850Y-22629D01*
X29850Y-22550D01*
X29817Y-22517D01*
X29632Y-22517D01*
X29632Y-22752D01*
X29665Y-22785D01*
X29745Y-22785D01*
X29793Y-22765D01*
X29830Y-22728D01*
X29849Y-22680D01*
X29850Y-22629D01*
X29850Y-24875D01*
X29715Y-24874D01*
X29559Y-24939D01*
X29457Y-25041D01*
X29457Y-22752D01*
X29457Y-22517D01*
X29457Y-22242D01*
X29457Y-22007D01*
X29425Y-21975D01*
X29344Y-21974D01*
X29296Y-21994D01*
X29259Y-22031D01*
X29240Y-22079D01*
X29239Y-22130D01*
X29240Y-22210D01*
X29272Y-22242D01*
X29457Y-22242D01*
X29457Y-22517D01*
X29272Y-22517D01*
X29240Y-22550D01*
X29239Y-22629D01*
X29240Y-22680D01*
X29259Y-22728D01*
X29296Y-22765D01*
X29344Y-22785D01*
X29425Y-22785D01*
X29457Y-22752D01*
X29457Y-25041D01*
X29439Y-25058D01*
X29375Y-25215D01*
X29374Y-25384D01*
X29439Y-25540D01*
X29558Y-25660D01*
X29715Y-25724D01*
X29884Y-25725D01*
X30040Y-25660D01*
X30160Y-25541D01*
X30224Y-25384D01*
X30225Y-25215D01*
X30225Y-26215D01*
X30160Y-26059D01*
X30041Y-25939D01*
X29884Y-25875D01*
X29715Y-25874D01*
X29559Y-25939D01*
X29439Y-26058D01*
X29375Y-26215D01*
X29374Y-26384D01*
X29439Y-26540D01*
X29558Y-26660D01*
X29715Y-26724D01*
X29884Y-26725D01*
X30040Y-26660D01*
X30160Y-26541D01*
X30224Y-26384D01*
X30225Y-26215D01*
X30225Y-27215D01*
X30160Y-27059D01*
X30041Y-26939D01*
X29884Y-26875D01*
X29715Y-26874D01*
X29559Y-26939D01*
X29439Y-27058D01*
X29375Y-27215D01*
X29374Y-27384D01*
X29439Y-27540D01*
X29558Y-27660D01*
X29715Y-27724D01*
X29884Y-27725D01*
X30040Y-27660D01*
X30160Y-27541D01*
X30224Y-27384D01*
X30225Y-27215D01*
X30225Y-29215D01*
X30210Y-29181D01*
X30210Y-28257D01*
X30195Y-28182D01*
X30148Y-28146D01*
X29994Y-28300D01*
X30148Y-28453D01*
X30195Y-28417D01*
X30210Y-28257D01*
X30210Y-29181D01*
X30160Y-29059D01*
X30041Y-28939D01*
X29953Y-28903D01*
X29953Y-28648D01*
X29953Y-27951D01*
X29917Y-27904D01*
X29757Y-27889D01*
X29682Y-27904D01*
X29646Y-27951D01*
X29800Y-28105D01*
X29953Y-27951D01*
X29953Y-28648D01*
X29800Y-28494D01*
X29646Y-28648D01*
X29682Y-28695D01*
X29842Y-28710D01*
X29917Y-28695D01*
X29953Y-28648D01*
X29953Y-28903D01*
X29884Y-28875D01*
X29715Y-28874D01*
X29605Y-28920D01*
X29605Y-28300D01*
X29451Y-28146D01*
X29404Y-28182D01*
X29389Y-28342D01*
X29404Y-28417D01*
X29451Y-28453D01*
X29605Y-28300D01*
X29605Y-28920D01*
X29559Y-28939D01*
X29439Y-29058D01*
X29375Y-29215D01*
X29374Y-29384D01*
X29439Y-29540D01*
X29498Y-29600D01*
X29382Y-29600D01*
X29208Y-29425D01*
X29224Y-29384D01*
X29225Y-29215D01*
X29225Y-28215D01*
X29225Y-27215D01*
X29225Y-26215D01*
X29225Y-25215D01*
X29160Y-25059D01*
X29041Y-24939D01*
X28995Y-24920D01*
X28995Y-22805D01*
X28999Y-22805D01*
X29054Y-22782D01*
X29097Y-22740D01*
X29119Y-22684D01*
X29120Y-22625D01*
X29120Y-22075D01*
X29097Y-22020D01*
X29055Y-21977D01*
X28999Y-21955D01*
X28940Y-21954D01*
X28590Y-21954D01*
X28535Y-21977D01*
X28492Y-22019D01*
X28470Y-22075D01*
X28469Y-22134D01*
X28469Y-22684D01*
X28492Y-22739D01*
X28534Y-22782D01*
X28590Y-22804D01*
X28595Y-22804D01*
X28595Y-24924D01*
X28559Y-24939D01*
X28439Y-25058D01*
X28375Y-25215D01*
X28374Y-25384D01*
X28439Y-25540D01*
X28558Y-25660D01*
X28715Y-25724D01*
X28884Y-25725D01*
X29040Y-25660D01*
X29160Y-25541D01*
X29224Y-25384D01*
X29225Y-25215D01*
X29225Y-26215D01*
X29160Y-26059D01*
X29041Y-25939D01*
X28884Y-25875D01*
X28715Y-25874D01*
X28559Y-25939D01*
X28439Y-26058D01*
X28375Y-26215D01*
X28374Y-26384D01*
X28439Y-26540D01*
X28558Y-26660D01*
X28715Y-26724D01*
X28884Y-26725D01*
X29040Y-26660D01*
X29160Y-26541D01*
X29224Y-26384D01*
X29225Y-26215D01*
X29225Y-27215D01*
X29160Y-27059D01*
X29041Y-26939D01*
X28884Y-26875D01*
X28715Y-26874D01*
X28559Y-26939D01*
X28439Y-27058D01*
X28375Y-27215D01*
X28374Y-27384D01*
X28439Y-27540D01*
X28558Y-27660D01*
X28715Y-27724D01*
X28884Y-27725D01*
X29040Y-27660D01*
X29160Y-27541D01*
X29224Y-27384D01*
X29225Y-27215D01*
X29225Y-28215D01*
X29160Y-28059D01*
X29041Y-27939D01*
X28884Y-27875D01*
X28715Y-27874D01*
X28559Y-27939D01*
X28439Y-28058D01*
X28375Y-28215D01*
X28374Y-28384D01*
X28439Y-28540D01*
X28558Y-28660D01*
X28715Y-28724D01*
X28884Y-28725D01*
X29040Y-28660D01*
X29160Y-28541D01*
X29224Y-28384D01*
X29225Y-28215D01*
X29225Y-29215D01*
X29160Y-29059D01*
X29041Y-28939D01*
X28884Y-28875D01*
X28715Y-28874D01*
X28559Y-28939D01*
X28439Y-29058D01*
X28375Y-29215D01*
X28374Y-29384D01*
X28439Y-29540D01*
X28558Y-29660D01*
X28715Y-29724D01*
X28884Y-29725D01*
X28925Y-29708D01*
X29158Y-29941D01*
X29223Y-29984D01*
X29223Y-29984D01*
X29236Y-29987D01*
X29300Y-30000D01*
X29498Y-30000D01*
X29439Y-30058D01*
X29375Y-30215D01*
X29374Y-30384D01*
X29439Y-30540D01*
X29558Y-30660D01*
X29715Y-30724D01*
X29884Y-30725D01*
X30040Y-30660D01*
X30160Y-30541D01*
X30177Y-30500D01*
X31717Y-30500D01*
X32821Y-31604D01*
X32800Y-31600D01*
X30210Y-31600D01*
X30210Y-31257D01*
X30195Y-31182D01*
X30148Y-31146D01*
X29994Y-31300D01*
X30148Y-31453D01*
X30195Y-31417D01*
X30210Y-31257D01*
X30210Y-31600D01*
X29953Y-31600D01*
X29953Y-30951D01*
X29917Y-30904D01*
X29757Y-30889D01*
X29682Y-30904D01*
X29646Y-30951D01*
X29800Y-31105D01*
X29953Y-30951D01*
X29953Y-31600D01*
X29905Y-31600D01*
X29800Y-31494D01*
X29694Y-31600D01*
X29605Y-31600D01*
X29605Y-31300D01*
X29451Y-31146D01*
X29404Y-31182D01*
X29389Y-31342D01*
X29404Y-31417D01*
X29451Y-31453D01*
X29605Y-31300D01*
X29605Y-31600D01*
X29300Y-31600D01*
X29236Y-31612D01*
X29225Y-31614D01*
X29225Y-31215D01*
X29210Y-31181D01*
X29210Y-30257D01*
X29195Y-30182D01*
X29148Y-30146D01*
X28994Y-30300D01*
X29148Y-30453D01*
X29195Y-30417D01*
X29210Y-30257D01*
X29210Y-31181D01*
X29160Y-31059D01*
X29041Y-30939D01*
X28953Y-30903D01*
X28953Y-30648D01*
X28953Y-29951D01*
X28917Y-29904D01*
X28757Y-29889D01*
X28682Y-29904D01*
X28646Y-29951D01*
X28800Y-30105D01*
X28953Y-29951D01*
X28953Y-30648D01*
X28800Y-30494D01*
X28646Y-30648D01*
X28682Y-30695D01*
X28842Y-30710D01*
X28917Y-30695D01*
X28953Y-30648D01*
X28953Y-30903D01*
X28884Y-30875D01*
X28715Y-30874D01*
X28605Y-30920D01*
X28605Y-30300D01*
X28451Y-30146D01*
X28404Y-30182D01*
X28389Y-30342D01*
X28404Y-30417D01*
X28451Y-30453D01*
X28605Y-30300D01*
X28605Y-30920D01*
X28559Y-30939D01*
X28439Y-31058D01*
X28375Y-31215D01*
X28374Y-31384D01*
X28439Y-31540D01*
X28558Y-31660D01*
X28715Y-31724D01*
X28884Y-31725D01*
X29040Y-31660D01*
X29160Y-31541D01*
X29224Y-31384D01*
X29225Y-31215D01*
X29225Y-31614D01*
X29223Y-31615D01*
X29158Y-31658D01*
X28925Y-31891D01*
X28884Y-31875D01*
X28715Y-31874D01*
X28559Y-31939D01*
X28439Y-32058D01*
X28375Y-32215D01*
X28374Y-32384D01*
X28439Y-32540D01*
X28558Y-32660D01*
X28715Y-32724D01*
X28884Y-32725D01*
X29040Y-32660D01*
X29160Y-32541D01*
X29224Y-32384D01*
X29225Y-32215D01*
X29208Y-32174D01*
X29382Y-32000D01*
X29498Y-32000D01*
X29439Y-32058D01*
X29375Y-32215D01*
X29374Y-32384D01*
X29439Y-32540D01*
X29558Y-32660D01*
X29715Y-32724D01*
X29884Y-32725D01*
X30040Y-32660D01*
X30160Y-32541D01*
X30224Y-32384D01*
X30225Y-32215D01*
X30160Y-32059D01*
X30101Y-32000D01*
X32717Y-32000D01*
X33079Y-32362D01*
X33079Y-32362D01*
X33123Y-32391D01*
X33144Y-32406D01*
X33144Y-32406D01*
X33221Y-32421D01*
X33723Y-32421D01*
X33745Y-32473D01*
X33870Y-32598D01*
X34033Y-32666D01*
X34211Y-32666D01*
X34374Y-32598D01*
X34500Y-32473D01*
X34568Y-32310D01*
X34568Y-32133D01*
X34500Y-31969D01*
X34413Y-31881D01*
X34471Y-31881D01*
X34493Y-31933D01*
X34618Y-32059D01*
X34781Y-32127D01*
X34959Y-32127D01*
X35122Y-32059D01*
X35248Y-31934D01*
X35250Y-31929D01*
X35250Y-32098D01*
X35011Y-32336D01*
X34959Y-32315D01*
X34782Y-32315D01*
X34618Y-32382D01*
X34493Y-32508D01*
X34425Y-32671D01*
X34425Y-32848D01*
X34493Y-33012D01*
X34618Y-33137D01*
X34781Y-33205D01*
X34959Y-33205D01*
X35122Y-33138D01*
X35248Y-33013D01*
X35250Y-33008D01*
X35250Y-33590D01*
X35248Y-33587D01*
X35123Y-33462D01*
X34959Y-33394D01*
X34782Y-33394D01*
X34618Y-33461D01*
X34568Y-33512D01*
X34568Y-33211D01*
X34500Y-33048D01*
X34375Y-32922D01*
X34211Y-32854D01*
X34034Y-32854D01*
X33870Y-32922D01*
X33745Y-33047D01*
X33723Y-33100D01*
X30177Y-33100D01*
X30160Y-33059D01*
X30041Y-32939D01*
X29884Y-32875D01*
X29715Y-32874D01*
X29559Y-32939D01*
X29439Y-33058D01*
X29375Y-33215D01*
X29374Y-33384D01*
X29439Y-33540D01*
X29558Y-33660D01*
X29715Y-33724D01*
X29884Y-33725D01*
X30040Y-33660D01*
X30160Y-33541D01*
X30177Y-33500D01*
X33723Y-33500D01*
X33745Y-33551D01*
X33870Y-33677D01*
X34033Y-33745D01*
X34211Y-33745D01*
X34374Y-33677D01*
X34500Y-33552D01*
X34568Y-33388D01*
X34568Y-33211D01*
X34568Y-33512D01*
X34493Y-33586D01*
X34425Y-33750D01*
X34425Y-33927D01*
X34493Y-34091D01*
X34618Y-34216D01*
X34781Y-34284D01*
X34959Y-34284D01*
X35122Y-34217D01*
X35248Y-34091D01*
X35250Y-34087D01*
X35250Y-34767D01*
X35238Y-34758D01*
X35079Y-34918D01*
X35238Y-35077D01*
X35250Y-35068D01*
X35250Y-37795D01*
X35225Y-37735D01*
X35030Y-37540D01*
X35030Y-35286D01*
X35030Y-34550D01*
X34991Y-34501D01*
X34822Y-34487D01*
X34750Y-34501D01*
X34711Y-34550D01*
X34870Y-34709D01*
X35030Y-34550D01*
X35030Y-35286D01*
X34870Y-35126D01*
X34711Y-35286D01*
X34750Y-35334D01*
X34919Y-35349D01*
X34991Y-35334D01*
X35030Y-35286D01*
X35030Y-37540D01*
X34983Y-37493D01*
X34668Y-37362D01*
X34662Y-37362D01*
X34662Y-34918D01*
X34568Y-34824D01*
X34568Y-34290D01*
X34500Y-34126D01*
X34375Y-34001D01*
X34211Y-33933D01*
X34034Y-33933D01*
X33870Y-34001D01*
X33745Y-34126D01*
X33723Y-34178D01*
X32421Y-34178D01*
X32344Y-34193D01*
X32323Y-34208D01*
X32279Y-34237D01*
X31917Y-34600D01*
X30210Y-34600D01*
X30210Y-34257D01*
X30195Y-34182D01*
X30148Y-34146D01*
X29994Y-34300D01*
X30148Y-34453D01*
X30195Y-34417D01*
X30210Y-34257D01*
X30210Y-34600D01*
X29953Y-34600D01*
X29953Y-33951D01*
X29917Y-33904D01*
X29757Y-33889D01*
X29682Y-33904D01*
X29646Y-33951D01*
X29800Y-34105D01*
X29953Y-33951D01*
X29953Y-34600D01*
X29905Y-34600D01*
X29800Y-34494D01*
X29694Y-34600D01*
X29605Y-34600D01*
X29605Y-34300D01*
X29451Y-34146D01*
X29404Y-34182D01*
X29389Y-34342D01*
X29404Y-34417D01*
X29451Y-34453D01*
X29605Y-34300D01*
X29605Y-34600D01*
X29300Y-34600D01*
X29236Y-34612D01*
X29225Y-34614D01*
X29225Y-34215D01*
X29210Y-34181D01*
X29210Y-33257D01*
X29195Y-33182D01*
X29148Y-33146D01*
X28994Y-33300D01*
X29148Y-33453D01*
X29195Y-33417D01*
X29210Y-33257D01*
X29210Y-34181D01*
X29160Y-34059D01*
X29041Y-33939D01*
X28953Y-33903D01*
X28953Y-33648D01*
X28953Y-32951D01*
X28917Y-32904D01*
X28757Y-32889D01*
X28682Y-32904D01*
X28646Y-32951D01*
X28800Y-33105D01*
X28953Y-32951D01*
X28953Y-33648D01*
X28800Y-33494D01*
X28646Y-33648D01*
X28682Y-33695D01*
X28842Y-33710D01*
X28917Y-33695D01*
X28953Y-33648D01*
X28953Y-33903D01*
X28884Y-33875D01*
X28715Y-33874D01*
X28605Y-33920D01*
X28605Y-33300D01*
X28451Y-33146D01*
X28404Y-33182D01*
X28389Y-33342D01*
X28404Y-33417D01*
X28451Y-33453D01*
X28605Y-33300D01*
X28605Y-33920D01*
X28559Y-33939D01*
X28439Y-34058D01*
X28375Y-34215D01*
X28374Y-34384D01*
X28439Y-34540D01*
X28558Y-34660D01*
X28715Y-34724D01*
X28884Y-34725D01*
X29040Y-34660D01*
X29160Y-34541D01*
X29224Y-34384D01*
X29225Y-34215D01*
X29225Y-34614D01*
X29223Y-34615D01*
X29158Y-34658D01*
X28925Y-34891D01*
X28884Y-34875D01*
X28715Y-34874D01*
X28559Y-34939D01*
X28439Y-35058D01*
X28375Y-35215D01*
X28374Y-35384D01*
X28439Y-35540D01*
X28558Y-35660D01*
X28715Y-35724D01*
X28884Y-35725D01*
X29040Y-35660D01*
X29160Y-35541D01*
X29224Y-35384D01*
X29225Y-35215D01*
X29208Y-35174D01*
X29382Y-35000D01*
X29498Y-35000D01*
X29439Y-35058D01*
X29375Y-35215D01*
X29374Y-35384D01*
X29439Y-35540D01*
X29558Y-35660D01*
X29715Y-35724D01*
X29884Y-35725D01*
X30040Y-35660D01*
X30160Y-35541D01*
X30224Y-35384D01*
X30225Y-35215D01*
X30160Y-35059D01*
X30101Y-35000D01*
X32000Y-35000D01*
X32076Y-34984D01*
X32141Y-34941D01*
X32504Y-34578D01*
X33723Y-34578D01*
X33745Y-34630D01*
X33870Y-34756D01*
X34033Y-34823D01*
X34211Y-34824D01*
X34374Y-34756D01*
X34500Y-34631D01*
X34568Y-34467D01*
X34568Y-34290D01*
X34568Y-34824D01*
X34502Y-34758D01*
X34454Y-34797D01*
X34439Y-34966D01*
X34454Y-35038D01*
X34502Y-35077D01*
X34662Y-34918D01*
X34662Y-37362D01*
X34568Y-37362D01*
X34568Y-35369D01*
X34500Y-35205D01*
X34375Y-35080D01*
X34211Y-35012D01*
X34034Y-35012D01*
X33870Y-35079D01*
X33745Y-35204D01*
X33723Y-35257D01*
X32442Y-35257D01*
X32365Y-35272D01*
X32301Y-35316D01*
X31517Y-36100D01*
X30177Y-36100D01*
X30160Y-36059D01*
X30041Y-35939D01*
X29884Y-35875D01*
X29715Y-35874D01*
X29559Y-35939D01*
X29439Y-36058D01*
X29375Y-36215D01*
X29374Y-36384D01*
X29439Y-36540D01*
X29558Y-36660D01*
X29715Y-36724D01*
X29884Y-36725D01*
X30040Y-36660D01*
X30160Y-36541D01*
X30177Y-36500D01*
X31600Y-36500D01*
X31676Y-36484D01*
X31741Y-36441D01*
X32525Y-35657D01*
X33723Y-35657D01*
X33745Y-35709D01*
X33870Y-35834D01*
X34033Y-35902D01*
X34211Y-35902D01*
X34374Y-35835D01*
X34500Y-35710D01*
X34568Y-35546D01*
X34568Y-35369D01*
X34568Y-37362D01*
X34326Y-37362D01*
X34011Y-37492D01*
X33769Y-37734D01*
X33638Y-38049D01*
X33638Y-38391D01*
X33768Y-38707D01*
X34009Y-38948D01*
X34325Y-39079D01*
X34666Y-39080D01*
X34982Y-38949D01*
X35224Y-38708D01*
X35250Y-38646D01*
X35250Y-39667D01*
X34658Y-40258D01*
X34615Y-40323D01*
X34600Y-40399D01*
X34495Y-40399D01*
X34440Y-40422D01*
X34397Y-40464D01*
X34375Y-40520D01*
X34374Y-40579D01*
X34374Y-40929D01*
X34397Y-40984D01*
X34439Y-41027D01*
X34495Y-41049D01*
X34554Y-41050D01*
X35104Y-41050D01*
X35159Y-41027D01*
X35202Y-40985D01*
X35224Y-40929D01*
X35225Y-40870D01*
X35225Y-40520D01*
X35202Y-40465D01*
X35160Y-40422D01*
X35104Y-40400D01*
X35082Y-40400D01*
X35250Y-40232D01*
X35250Y-43749D01*
M02*
