G04 (created by PCBNEW (2013-06-11 BZR 4021)-stable) date Wed 16 Apr 2014 08:44:16 AM CDT*
%MOIN*%
G04 Gerber Fmt 3.4, Leading zero omitted, Abs format*
%FSLAX34Y34*%
G01*
G70*
G90*
G04 APERTURE LIST*
%ADD10C,0.00590551*%
%ADD11C,0.141732*%
%ADD12C,0.0590551*%
%ADD13R,0.0551181X0.0551181*%
%ADD14R,0.055X0.055*%
%ADD15C,0.055*%
%ADD16C,0.16*%
%ADD17C,0.0787402*%
%ADD18C,0.15748*%
%ADD19C,0.035*%
%ADD20C,0.01*%
G04 APERTURE END LIST*
G54D10*
G54D11*
X34496Y-38221D03*
X34496Y-28378D03*
G54D12*
X34122Y-33300D03*
X34122Y-32221D03*
G54D13*
X34122Y-31142D03*
G54D12*
X34122Y-35457D03*
X34122Y-34378D03*
X34870Y-34918D03*
X34870Y-33839D03*
X34870Y-32760D03*
X34870Y-31681D03*
G54D14*
X34800Y-42476D03*
G54D15*
X33800Y-42524D03*
X32800Y-42476D03*
G54D14*
X29800Y-41300D03*
G54D15*
X28800Y-41300D03*
X29800Y-40300D03*
X28800Y-40300D03*
X29800Y-39300D03*
X28800Y-39300D03*
X29800Y-38300D03*
X28800Y-38300D03*
X29800Y-37300D03*
X28800Y-37300D03*
X29800Y-36300D03*
X28800Y-36300D03*
X29800Y-35300D03*
X28800Y-35300D03*
X29800Y-34300D03*
X28800Y-34300D03*
X29800Y-33300D03*
X28800Y-33300D03*
X29800Y-32300D03*
X28800Y-32300D03*
X29800Y-31300D03*
X28800Y-31300D03*
X29800Y-30300D03*
X28800Y-30300D03*
X29800Y-29300D03*
X28800Y-29300D03*
X29800Y-28300D03*
X28800Y-28300D03*
X29800Y-27300D03*
X28800Y-27300D03*
X29800Y-26300D03*
X28800Y-26300D03*
X29800Y-25300D03*
X28800Y-25300D03*
G54D16*
X28300Y-44700D03*
X28300Y-18500D03*
X35300Y-44700D03*
X35300Y-18500D03*
G54D17*
X34413Y-21230D03*
X32760Y-21230D03*
X31106Y-21230D03*
G54D18*
X31106Y-19714D03*
X33586Y-23415D03*
G54D19*
X33800Y-40100D03*
G54D20*
X35600Y-25600D02*
X35600Y-23140D01*
X33670Y-22140D02*
X32760Y-21230D01*
X34600Y-22140D02*
X33670Y-22140D01*
X35600Y-23140D02*
X34600Y-22140D01*
X35600Y-39000D02*
X35600Y-33110D01*
X35300Y-39300D02*
X35600Y-39000D01*
X34600Y-39300D02*
X35300Y-39300D01*
X33800Y-40100D02*
X34600Y-39300D01*
X35600Y-33110D02*
X34870Y-33839D01*
X35600Y-25600D02*
X35600Y-33110D01*
G54D10*
G36*
X30750Y-42250D02*
X30225Y-42250D01*
X30225Y-40215D01*
X30225Y-39215D01*
X30225Y-38215D01*
X30225Y-37215D01*
X30225Y-36215D01*
X30225Y-34215D01*
X30225Y-33215D01*
X30225Y-31215D01*
X30225Y-30215D01*
X30225Y-28215D01*
X30225Y-27215D01*
X30225Y-25215D01*
X30160Y-25059D01*
X30041Y-24939D01*
X29884Y-24875D01*
X29715Y-24874D01*
X29559Y-24939D01*
X29439Y-25058D01*
X29375Y-25215D01*
X29374Y-25384D01*
X29439Y-25540D01*
X29558Y-25660D01*
X29715Y-25724D01*
X29884Y-25725D01*
X30040Y-25660D01*
X30160Y-25541D01*
X30224Y-25384D01*
X30225Y-25215D01*
X30225Y-27215D01*
X30210Y-27181D01*
X30210Y-26257D01*
X30195Y-26182D01*
X30148Y-26146D01*
X29994Y-26300D01*
X30148Y-26453D01*
X30195Y-26417D01*
X30210Y-26257D01*
X30210Y-27181D01*
X30160Y-27059D01*
X30041Y-26939D01*
X29953Y-26903D01*
X29953Y-26648D01*
X29953Y-25951D01*
X29917Y-25904D01*
X29757Y-25889D01*
X29682Y-25904D01*
X29646Y-25951D01*
X29800Y-26105D01*
X29953Y-25951D01*
X29953Y-26648D01*
X29800Y-26494D01*
X29646Y-26648D01*
X29682Y-26695D01*
X29842Y-26710D01*
X29917Y-26695D01*
X29953Y-26648D01*
X29953Y-26903D01*
X29884Y-26875D01*
X29715Y-26874D01*
X29605Y-26920D01*
X29605Y-26300D01*
X29451Y-26146D01*
X29404Y-26182D01*
X29389Y-26342D01*
X29404Y-26417D01*
X29451Y-26453D01*
X29605Y-26300D01*
X29605Y-26920D01*
X29559Y-26939D01*
X29439Y-27058D01*
X29375Y-27215D01*
X29374Y-27384D01*
X29439Y-27540D01*
X29558Y-27660D01*
X29715Y-27724D01*
X29884Y-27725D01*
X30040Y-27660D01*
X30160Y-27541D01*
X30224Y-27384D01*
X30225Y-27215D01*
X30225Y-28215D01*
X30160Y-28059D01*
X30041Y-27939D01*
X29884Y-27875D01*
X29715Y-27874D01*
X29559Y-27939D01*
X29439Y-28058D01*
X29375Y-28215D01*
X29374Y-28384D01*
X29439Y-28540D01*
X29558Y-28660D01*
X29715Y-28724D01*
X29884Y-28725D01*
X30040Y-28660D01*
X30160Y-28541D01*
X30224Y-28384D01*
X30225Y-28215D01*
X30225Y-30215D01*
X30210Y-30181D01*
X30210Y-29257D01*
X30195Y-29182D01*
X30148Y-29146D01*
X29994Y-29300D01*
X30148Y-29453D01*
X30195Y-29417D01*
X30210Y-29257D01*
X30210Y-30181D01*
X30160Y-30059D01*
X30041Y-29939D01*
X29953Y-29903D01*
X29953Y-29648D01*
X29953Y-28951D01*
X29917Y-28904D01*
X29757Y-28889D01*
X29682Y-28904D01*
X29646Y-28951D01*
X29800Y-29105D01*
X29953Y-28951D01*
X29953Y-29648D01*
X29800Y-29494D01*
X29646Y-29648D01*
X29682Y-29695D01*
X29842Y-29710D01*
X29917Y-29695D01*
X29953Y-29648D01*
X29953Y-29903D01*
X29884Y-29875D01*
X29715Y-29874D01*
X29605Y-29920D01*
X29605Y-29300D01*
X29451Y-29146D01*
X29404Y-29182D01*
X29389Y-29342D01*
X29404Y-29417D01*
X29451Y-29453D01*
X29605Y-29300D01*
X29605Y-29920D01*
X29559Y-29939D01*
X29439Y-30058D01*
X29375Y-30215D01*
X29374Y-30384D01*
X29439Y-30540D01*
X29558Y-30660D01*
X29715Y-30724D01*
X29884Y-30725D01*
X30040Y-30660D01*
X30160Y-30541D01*
X30224Y-30384D01*
X30225Y-30215D01*
X30225Y-31215D01*
X30160Y-31059D01*
X30041Y-30939D01*
X29884Y-30875D01*
X29715Y-30874D01*
X29559Y-30939D01*
X29439Y-31058D01*
X29375Y-31215D01*
X29374Y-31384D01*
X29439Y-31540D01*
X29558Y-31660D01*
X29715Y-31724D01*
X29884Y-31725D01*
X30040Y-31660D01*
X30160Y-31541D01*
X30224Y-31384D01*
X30225Y-31215D01*
X30225Y-33215D01*
X30210Y-33181D01*
X30210Y-32257D01*
X30195Y-32182D01*
X30148Y-32146D01*
X29994Y-32300D01*
X30148Y-32453D01*
X30195Y-32417D01*
X30210Y-32257D01*
X30210Y-33181D01*
X30160Y-33059D01*
X30041Y-32939D01*
X29953Y-32903D01*
X29953Y-32648D01*
X29953Y-31951D01*
X29917Y-31904D01*
X29757Y-31889D01*
X29682Y-31904D01*
X29646Y-31951D01*
X29800Y-32105D01*
X29953Y-31951D01*
X29953Y-32648D01*
X29800Y-32494D01*
X29646Y-32648D01*
X29682Y-32695D01*
X29842Y-32710D01*
X29917Y-32695D01*
X29953Y-32648D01*
X29953Y-32903D01*
X29884Y-32875D01*
X29715Y-32874D01*
X29605Y-32920D01*
X29605Y-32300D01*
X29451Y-32146D01*
X29404Y-32182D01*
X29389Y-32342D01*
X29404Y-32417D01*
X29451Y-32453D01*
X29605Y-32300D01*
X29605Y-32920D01*
X29559Y-32939D01*
X29439Y-33058D01*
X29375Y-33215D01*
X29374Y-33384D01*
X29439Y-33540D01*
X29558Y-33660D01*
X29715Y-33724D01*
X29884Y-33725D01*
X30040Y-33660D01*
X30160Y-33541D01*
X30224Y-33384D01*
X30225Y-33215D01*
X30225Y-34215D01*
X30160Y-34059D01*
X30041Y-33939D01*
X29884Y-33875D01*
X29715Y-33874D01*
X29559Y-33939D01*
X29439Y-34058D01*
X29375Y-34215D01*
X29374Y-34384D01*
X29439Y-34540D01*
X29558Y-34660D01*
X29715Y-34724D01*
X29884Y-34725D01*
X30040Y-34660D01*
X30160Y-34541D01*
X30224Y-34384D01*
X30225Y-34215D01*
X30225Y-36215D01*
X30210Y-36181D01*
X30210Y-35257D01*
X30195Y-35182D01*
X30148Y-35146D01*
X29994Y-35300D01*
X30148Y-35453D01*
X30195Y-35417D01*
X30210Y-35257D01*
X30210Y-36181D01*
X30160Y-36059D01*
X30041Y-35939D01*
X29953Y-35903D01*
X29953Y-35648D01*
X29953Y-34951D01*
X29917Y-34904D01*
X29757Y-34889D01*
X29682Y-34904D01*
X29646Y-34951D01*
X29800Y-35105D01*
X29953Y-34951D01*
X29953Y-35648D01*
X29800Y-35494D01*
X29646Y-35648D01*
X29682Y-35695D01*
X29842Y-35710D01*
X29917Y-35695D01*
X29953Y-35648D01*
X29953Y-35903D01*
X29884Y-35875D01*
X29715Y-35874D01*
X29605Y-35920D01*
X29605Y-35300D01*
X29451Y-35146D01*
X29404Y-35182D01*
X29389Y-35342D01*
X29404Y-35417D01*
X29451Y-35453D01*
X29605Y-35300D01*
X29605Y-35920D01*
X29559Y-35939D01*
X29439Y-36058D01*
X29375Y-36215D01*
X29374Y-36384D01*
X29439Y-36540D01*
X29558Y-36660D01*
X29715Y-36724D01*
X29884Y-36725D01*
X30040Y-36660D01*
X30160Y-36541D01*
X30224Y-36384D01*
X30225Y-36215D01*
X30225Y-37215D01*
X30160Y-37059D01*
X30041Y-36939D01*
X29884Y-36875D01*
X29715Y-36874D01*
X29559Y-36939D01*
X29439Y-37058D01*
X29375Y-37215D01*
X29374Y-37384D01*
X29439Y-37540D01*
X29558Y-37660D01*
X29715Y-37724D01*
X29884Y-37725D01*
X30040Y-37660D01*
X30160Y-37541D01*
X30224Y-37384D01*
X30225Y-37215D01*
X30225Y-38215D01*
X30160Y-38059D01*
X30041Y-37939D01*
X29884Y-37875D01*
X29715Y-37874D01*
X29559Y-37939D01*
X29439Y-38058D01*
X29375Y-38215D01*
X29374Y-38384D01*
X29439Y-38540D01*
X29558Y-38660D01*
X29715Y-38724D01*
X29884Y-38725D01*
X30040Y-38660D01*
X30160Y-38541D01*
X30224Y-38384D01*
X30225Y-38215D01*
X30225Y-39215D01*
X30160Y-39059D01*
X30041Y-38939D01*
X29884Y-38875D01*
X29715Y-38874D01*
X29559Y-38939D01*
X29439Y-39058D01*
X29375Y-39215D01*
X29374Y-39384D01*
X29439Y-39540D01*
X29558Y-39660D01*
X29715Y-39724D01*
X29884Y-39725D01*
X30040Y-39660D01*
X30160Y-39541D01*
X30224Y-39384D01*
X30225Y-39215D01*
X30225Y-40215D01*
X30160Y-40059D01*
X30041Y-39939D01*
X29884Y-39875D01*
X29715Y-39874D01*
X29559Y-39939D01*
X29439Y-40058D01*
X29375Y-40215D01*
X29374Y-40384D01*
X29439Y-40540D01*
X29558Y-40660D01*
X29715Y-40724D01*
X29884Y-40725D01*
X30040Y-40660D01*
X30160Y-40541D01*
X30224Y-40384D01*
X30225Y-40215D01*
X30225Y-42250D01*
X30225Y-42250D01*
X30225Y-41545D01*
X30225Y-40995D01*
X30202Y-40940D01*
X30160Y-40897D01*
X30104Y-40875D01*
X30045Y-40874D01*
X29495Y-40874D01*
X29440Y-40897D01*
X29397Y-40939D01*
X29375Y-40995D01*
X29374Y-41054D01*
X29374Y-41604D01*
X29397Y-41659D01*
X29439Y-41702D01*
X29495Y-41724D01*
X29554Y-41725D01*
X30104Y-41725D01*
X30159Y-41702D01*
X30202Y-41660D01*
X30224Y-41604D01*
X30225Y-41545D01*
X30225Y-42250D01*
X29225Y-42250D01*
X29225Y-41215D01*
X29225Y-40215D01*
X29225Y-36215D01*
X29225Y-35215D01*
X29225Y-33215D01*
X29225Y-32215D01*
X29225Y-30215D01*
X29225Y-29215D01*
X29225Y-27215D01*
X29225Y-26215D01*
X29210Y-26181D01*
X29210Y-25257D01*
X29195Y-25182D01*
X29148Y-25146D01*
X28994Y-25300D01*
X29148Y-25453D01*
X29195Y-25417D01*
X29210Y-25257D01*
X29210Y-26181D01*
X29160Y-26059D01*
X29041Y-25939D01*
X28953Y-25903D01*
X28953Y-25648D01*
X28953Y-24951D01*
X28917Y-24904D01*
X28757Y-24889D01*
X28682Y-24904D01*
X28646Y-24951D01*
X28800Y-25105D01*
X28953Y-24951D01*
X28953Y-25648D01*
X28800Y-25494D01*
X28646Y-25648D01*
X28682Y-25695D01*
X28842Y-25710D01*
X28917Y-25695D01*
X28953Y-25648D01*
X28953Y-25903D01*
X28884Y-25875D01*
X28715Y-25874D01*
X28605Y-25920D01*
X28605Y-25300D01*
X28451Y-25146D01*
X28404Y-25182D01*
X28389Y-25342D01*
X28404Y-25417D01*
X28451Y-25453D01*
X28605Y-25300D01*
X28605Y-25920D01*
X28559Y-25939D01*
X28439Y-26058D01*
X28375Y-26215D01*
X28374Y-26384D01*
X28439Y-26540D01*
X28558Y-26660D01*
X28715Y-26724D01*
X28884Y-26725D01*
X29040Y-26660D01*
X29160Y-26541D01*
X29224Y-26384D01*
X29225Y-26215D01*
X29225Y-27215D01*
X29160Y-27059D01*
X29041Y-26939D01*
X28884Y-26875D01*
X28715Y-26874D01*
X28559Y-26939D01*
X28439Y-27058D01*
X28375Y-27215D01*
X28374Y-27384D01*
X28439Y-27540D01*
X28558Y-27660D01*
X28715Y-27724D01*
X28884Y-27725D01*
X29040Y-27660D01*
X29160Y-27541D01*
X29224Y-27384D01*
X29225Y-27215D01*
X29225Y-29215D01*
X29210Y-29181D01*
X29210Y-28257D01*
X29195Y-28182D01*
X29148Y-28146D01*
X28994Y-28300D01*
X29148Y-28453D01*
X29195Y-28417D01*
X29210Y-28257D01*
X29210Y-29181D01*
X29160Y-29059D01*
X29041Y-28939D01*
X28953Y-28903D01*
X28953Y-28648D01*
X28953Y-27951D01*
X28917Y-27904D01*
X28757Y-27889D01*
X28682Y-27904D01*
X28646Y-27951D01*
X28800Y-28105D01*
X28953Y-27951D01*
X28953Y-28648D01*
X28800Y-28494D01*
X28646Y-28648D01*
X28682Y-28695D01*
X28842Y-28710D01*
X28917Y-28695D01*
X28953Y-28648D01*
X28953Y-28903D01*
X28884Y-28875D01*
X28715Y-28874D01*
X28605Y-28920D01*
X28605Y-28300D01*
X28451Y-28146D01*
X28404Y-28182D01*
X28389Y-28342D01*
X28404Y-28417D01*
X28451Y-28453D01*
X28605Y-28300D01*
X28605Y-28920D01*
X28559Y-28939D01*
X28439Y-29058D01*
X28375Y-29215D01*
X28374Y-29384D01*
X28439Y-29540D01*
X28558Y-29660D01*
X28715Y-29724D01*
X28884Y-29725D01*
X29040Y-29660D01*
X29160Y-29541D01*
X29224Y-29384D01*
X29225Y-29215D01*
X29225Y-30215D01*
X29160Y-30059D01*
X29041Y-29939D01*
X28884Y-29875D01*
X28715Y-29874D01*
X28559Y-29939D01*
X28439Y-30058D01*
X28375Y-30215D01*
X28374Y-30384D01*
X28439Y-30540D01*
X28558Y-30660D01*
X28715Y-30724D01*
X28884Y-30725D01*
X29040Y-30660D01*
X29160Y-30541D01*
X29224Y-30384D01*
X29225Y-30215D01*
X29225Y-32215D01*
X29210Y-32181D01*
X29210Y-31257D01*
X29195Y-31182D01*
X29148Y-31146D01*
X28994Y-31300D01*
X29148Y-31453D01*
X29195Y-31417D01*
X29210Y-31257D01*
X29210Y-32181D01*
X29160Y-32059D01*
X29041Y-31939D01*
X28953Y-31903D01*
X28953Y-31648D01*
X28953Y-30951D01*
X28917Y-30904D01*
X28757Y-30889D01*
X28682Y-30904D01*
X28646Y-30951D01*
X28800Y-31105D01*
X28953Y-30951D01*
X28953Y-31648D01*
X28800Y-31494D01*
X28646Y-31648D01*
X28682Y-31695D01*
X28842Y-31710D01*
X28917Y-31695D01*
X28953Y-31648D01*
X28953Y-31903D01*
X28884Y-31875D01*
X28715Y-31874D01*
X28605Y-31920D01*
X28605Y-31300D01*
X28451Y-31146D01*
X28404Y-31182D01*
X28389Y-31342D01*
X28404Y-31417D01*
X28451Y-31453D01*
X28605Y-31300D01*
X28605Y-31920D01*
X28559Y-31939D01*
X28439Y-32058D01*
X28375Y-32215D01*
X28374Y-32384D01*
X28439Y-32540D01*
X28558Y-32660D01*
X28715Y-32724D01*
X28884Y-32725D01*
X29040Y-32660D01*
X29160Y-32541D01*
X29224Y-32384D01*
X29225Y-32215D01*
X29225Y-33215D01*
X29160Y-33059D01*
X29041Y-32939D01*
X28884Y-32875D01*
X28715Y-32874D01*
X28559Y-32939D01*
X28439Y-33058D01*
X28375Y-33215D01*
X28374Y-33384D01*
X28439Y-33540D01*
X28558Y-33660D01*
X28715Y-33724D01*
X28884Y-33725D01*
X29040Y-33660D01*
X29160Y-33541D01*
X29224Y-33384D01*
X29225Y-33215D01*
X29225Y-35215D01*
X29210Y-35181D01*
X29210Y-34257D01*
X29195Y-34182D01*
X29148Y-34146D01*
X28994Y-34300D01*
X29148Y-34453D01*
X29195Y-34417D01*
X29210Y-34257D01*
X29210Y-35181D01*
X29160Y-35059D01*
X29041Y-34939D01*
X28953Y-34903D01*
X28953Y-34648D01*
X28953Y-33951D01*
X28917Y-33904D01*
X28757Y-33889D01*
X28682Y-33904D01*
X28646Y-33951D01*
X28800Y-34105D01*
X28953Y-33951D01*
X28953Y-34648D01*
X28800Y-34494D01*
X28646Y-34648D01*
X28682Y-34695D01*
X28842Y-34710D01*
X28917Y-34695D01*
X28953Y-34648D01*
X28953Y-34903D01*
X28884Y-34875D01*
X28715Y-34874D01*
X28605Y-34920D01*
X28605Y-34300D01*
X28451Y-34146D01*
X28404Y-34182D01*
X28389Y-34342D01*
X28404Y-34417D01*
X28451Y-34453D01*
X28605Y-34300D01*
X28605Y-34920D01*
X28559Y-34939D01*
X28439Y-35058D01*
X28375Y-35215D01*
X28374Y-35384D01*
X28439Y-35540D01*
X28558Y-35660D01*
X28715Y-35724D01*
X28884Y-35725D01*
X29040Y-35660D01*
X29160Y-35541D01*
X29224Y-35384D01*
X29225Y-35215D01*
X29225Y-36215D01*
X29160Y-36059D01*
X29041Y-35939D01*
X28884Y-35875D01*
X28715Y-35874D01*
X28559Y-35939D01*
X28439Y-36058D01*
X28375Y-36215D01*
X28374Y-36384D01*
X28439Y-36540D01*
X28558Y-36660D01*
X28715Y-36724D01*
X28884Y-36725D01*
X29040Y-36660D01*
X29160Y-36541D01*
X29224Y-36384D01*
X29225Y-36215D01*
X29225Y-40215D01*
X29210Y-40181D01*
X29210Y-39257D01*
X29210Y-38257D01*
X29210Y-37257D01*
X29195Y-37182D01*
X29148Y-37146D01*
X28994Y-37300D01*
X29148Y-37453D01*
X29195Y-37417D01*
X29210Y-37257D01*
X29210Y-38257D01*
X29195Y-38182D01*
X29148Y-38146D01*
X28994Y-38300D01*
X29148Y-38453D01*
X29195Y-38417D01*
X29210Y-38257D01*
X29210Y-39257D01*
X29195Y-39182D01*
X29148Y-39146D01*
X28994Y-39300D01*
X29148Y-39453D01*
X29195Y-39417D01*
X29210Y-39257D01*
X29210Y-40181D01*
X29160Y-40059D01*
X29041Y-39939D01*
X28953Y-39903D01*
X28953Y-39648D01*
X28953Y-38951D01*
X28953Y-38648D01*
X28953Y-37951D01*
X28953Y-37648D01*
X28953Y-36951D01*
X28917Y-36904D01*
X28757Y-36889D01*
X28682Y-36904D01*
X28646Y-36951D01*
X28800Y-37105D01*
X28953Y-36951D01*
X28953Y-37648D01*
X28800Y-37494D01*
X28646Y-37648D01*
X28682Y-37695D01*
X28842Y-37710D01*
X28917Y-37695D01*
X28953Y-37648D01*
X28953Y-37951D01*
X28917Y-37904D01*
X28757Y-37889D01*
X28682Y-37904D01*
X28646Y-37951D01*
X28800Y-38105D01*
X28953Y-37951D01*
X28953Y-38648D01*
X28800Y-38494D01*
X28646Y-38648D01*
X28682Y-38695D01*
X28842Y-38710D01*
X28917Y-38695D01*
X28953Y-38648D01*
X28953Y-38951D01*
X28917Y-38904D01*
X28757Y-38889D01*
X28682Y-38904D01*
X28646Y-38951D01*
X28800Y-39105D01*
X28953Y-38951D01*
X28953Y-39648D01*
X28800Y-39494D01*
X28646Y-39648D01*
X28682Y-39695D01*
X28842Y-39710D01*
X28917Y-39695D01*
X28953Y-39648D01*
X28953Y-39903D01*
X28884Y-39875D01*
X28715Y-39874D01*
X28605Y-39920D01*
X28605Y-39300D01*
X28605Y-38300D01*
X28605Y-37300D01*
X28451Y-37146D01*
X28404Y-37182D01*
X28389Y-37342D01*
X28404Y-37417D01*
X28451Y-37453D01*
X28605Y-37300D01*
X28605Y-38300D01*
X28451Y-38146D01*
X28404Y-38182D01*
X28389Y-38342D01*
X28404Y-38417D01*
X28451Y-38453D01*
X28605Y-38300D01*
X28605Y-39300D01*
X28451Y-39146D01*
X28404Y-39182D01*
X28389Y-39342D01*
X28404Y-39417D01*
X28451Y-39453D01*
X28605Y-39300D01*
X28605Y-39920D01*
X28559Y-39939D01*
X28439Y-40058D01*
X28375Y-40215D01*
X28374Y-40384D01*
X28439Y-40540D01*
X28558Y-40660D01*
X28715Y-40724D01*
X28884Y-40725D01*
X29040Y-40660D01*
X29160Y-40541D01*
X29224Y-40384D01*
X29225Y-40215D01*
X29225Y-41215D01*
X29160Y-41059D01*
X29041Y-40939D01*
X28884Y-40875D01*
X28715Y-40874D01*
X28559Y-40939D01*
X28439Y-41058D01*
X28375Y-41215D01*
X28374Y-41384D01*
X28439Y-41540D01*
X28558Y-41660D01*
X28715Y-41724D01*
X28884Y-41725D01*
X29040Y-41660D01*
X29160Y-41541D01*
X29224Y-41384D01*
X29225Y-41215D01*
X29225Y-42250D01*
X27850Y-42250D01*
X27850Y-23850D01*
X30750Y-23850D01*
X30750Y-42250D01*
X30750Y-42250D01*
G37*
G54D20*
X30750Y-42250D02*
X30225Y-42250D01*
X30225Y-40215D01*
X30225Y-39215D01*
X30225Y-38215D01*
X30225Y-37215D01*
X30225Y-36215D01*
X30225Y-34215D01*
X30225Y-33215D01*
X30225Y-31215D01*
X30225Y-30215D01*
X30225Y-28215D01*
X30225Y-27215D01*
X30225Y-25215D01*
X30160Y-25059D01*
X30041Y-24939D01*
X29884Y-24875D01*
X29715Y-24874D01*
X29559Y-24939D01*
X29439Y-25058D01*
X29375Y-25215D01*
X29374Y-25384D01*
X29439Y-25540D01*
X29558Y-25660D01*
X29715Y-25724D01*
X29884Y-25725D01*
X30040Y-25660D01*
X30160Y-25541D01*
X30224Y-25384D01*
X30225Y-25215D01*
X30225Y-27215D01*
X30210Y-27181D01*
X30210Y-26257D01*
X30195Y-26182D01*
X30148Y-26146D01*
X29994Y-26300D01*
X30148Y-26453D01*
X30195Y-26417D01*
X30210Y-26257D01*
X30210Y-27181D01*
X30160Y-27059D01*
X30041Y-26939D01*
X29953Y-26903D01*
X29953Y-26648D01*
X29953Y-25951D01*
X29917Y-25904D01*
X29757Y-25889D01*
X29682Y-25904D01*
X29646Y-25951D01*
X29800Y-26105D01*
X29953Y-25951D01*
X29953Y-26648D01*
X29800Y-26494D01*
X29646Y-26648D01*
X29682Y-26695D01*
X29842Y-26710D01*
X29917Y-26695D01*
X29953Y-26648D01*
X29953Y-26903D01*
X29884Y-26875D01*
X29715Y-26874D01*
X29605Y-26920D01*
X29605Y-26300D01*
X29451Y-26146D01*
X29404Y-26182D01*
X29389Y-26342D01*
X29404Y-26417D01*
X29451Y-26453D01*
X29605Y-26300D01*
X29605Y-26920D01*
X29559Y-26939D01*
X29439Y-27058D01*
X29375Y-27215D01*
X29374Y-27384D01*
X29439Y-27540D01*
X29558Y-27660D01*
X29715Y-27724D01*
X29884Y-27725D01*
X30040Y-27660D01*
X30160Y-27541D01*
X30224Y-27384D01*
X30225Y-27215D01*
X30225Y-28215D01*
X30160Y-28059D01*
X30041Y-27939D01*
X29884Y-27875D01*
X29715Y-27874D01*
X29559Y-27939D01*
X29439Y-28058D01*
X29375Y-28215D01*
X29374Y-28384D01*
X29439Y-28540D01*
X29558Y-28660D01*
X29715Y-28724D01*
X29884Y-28725D01*
X30040Y-28660D01*
X30160Y-28541D01*
X30224Y-28384D01*
X30225Y-28215D01*
X30225Y-30215D01*
X30210Y-30181D01*
X30210Y-29257D01*
X30195Y-29182D01*
X30148Y-29146D01*
X29994Y-29300D01*
X30148Y-29453D01*
X30195Y-29417D01*
X30210Y-29257D01*
X30210Y-30181D01*
X30160Y-30059D01*
X30041Y-29939D01*
X29953Y-29903D01*
X29953Y-29648D01*
X29953Y-28951D01*
X29917Y-28904D01*
X29757Y-28889D01*
X29682Y-28904D01*
X29646Y-28951D01*
X29800Y-29105D01*
X29953Y-28951D01*
X29953Y-29648D01*
X29800Y-29494D01*
X29646Y-29648D01*
X29682Y-29695D01*
X29842Y-29710D01*
X29917Y-29695D01*
X29953Y-29648D01*
X29953Y-29903D01*
X29884Y-29875D01*
X29715Y-29874D01*
X29605Y-29920D01*
X29605Y-29300D01*
X29451Y-29146D01*
X29404Y-29182D01*
X29389Y-29342D01*
X29404Y-29417D01*
X29451Y-29453D01*
X29605Y-29300D01*
X29605Y-29920D01*
X29559Y-29939D01*
X29439Y-30058D01*
X29375Y-30215D01*
X29374Y-30384D01*
X29439Y-30540D01*
X29558Y-30660D01*
X29715Y-30724D01*
X29884Y-30725D01*
X30040Y-30660D01*
X30160Y-30541D01*
X30224Y-30384D01*
X30225Y-30215D01*
X30225Y-31215D01*
X30160Y-31059D01*
X30041Y-30939D01*
X29884Y-30875D01*
X29715Y-30874D01*
X29559Y-30939D01*
X29439Y-31058D01*
X29375Y-31215D01*
X29374Y-31384D01*
X29439Y-31540D01*
X29558Y-31660D01*
X29715Y-31724D01*
X29884Y-31725D01*
X30040Y-31660D01*
X30160Y-31541D01*
X30224Y-31384D01*
X30225Y-31215D01*
X30225Y-33215D01*
X30210Y-33181D01*
X30210Y-32257D01*
X30195Y-32182D01*
X30148Y-32146D01*
X29994Y-32300D01*
X30148Y-32453D01*
X30195Y-32417D01*
X30210Y-32257D01*
X30210Y-33181D01*
X30160Y-33059D01*
X30041Y-32939D01*
X29953Y-32903D01*
X29953Y-32648D01*
X29953Y-31951D01*
X29917Y-31904D01*
X29757Y-31889D01*
X29682Y-31904D01*
X29646Y-31951D01*
X29800Y-32105D01*
X29953Y-31951D01*
X29953Y-32648D01*
X29800Y-32494D01*
X29646Y-32648D01*
X29682Y-32695D01*
X29842Y-32710D01*
X29917Y-32695D01*
X29953Y-32648D01*
X29953Y-32903D01*
X29884Y-32875D01*
X29715Y-32874D01*
X29605Y-32920D01*
X29605Y-32300D01*
X29451Y-32146D01*
X29404Y-32182D01*
X29389Y-32342D01*
X29404Y-32417D01*
X29451Y-32453D01*
X29605Y-32300D01*
X29605Y-32920D01*
X29559Y-32939D01*
X29439Y-33058D01*
X29375Y-33215D01*
X29374Y-33384D01*
X29439Y-33540D01*
X29558Y-33660D01*
X29715Y-33724D01*
X29884Y-33725D01*
X30040Y-33660D01*
X30160Y-33541D01*
X30224Y-33384D01*
X30225Y-33215D01*
X30225Y-34215D01*
X30160Y-34059D01*
X30041Y-33939D01*
X29884Y-33875D01*
X29715Y-33874D01*
X29559Y-33939D01*
X29439Y-34058D01*
X29375Y-34215D01*
X29374Y-34384D01*
X29439Y-34540D01*
X29558Y-34660D01*
X29715Y-34724D01*
X29884Y-34725D01*
X30040Y-34660D01*
X30160Y-34541D01*
X30224Y-34384D01*
X30225Y-34215D01*
X30225Y-36215D01*
X30210Y-36181D01*
X30210Y-35257D01*
X30195Y-35182D01*
X30148Y-35146D01*
X29994Y-35300D01*
X30148Y-35453D01*
X30195Y-35417D01*
X30210Y-35257D01*
X30210Y-36181D01*
X30160Y-36059D01*
X30041Y-35939D01*
X29953Y-35903D01*
X29953Y-35648D01*
X29953Y-34951D01*
X29917Y-34904D01*
X29757Y-34889D01*
X29682Y-34904D01*
X29646Y-34951D01*
X29800Y-35105D01*
X29953Y-34951D01*
X29953Y-35648D01*
X29800Y-35494D01*
X29646Y-35648D01*
X29682Y-35695D01*
X29842Y-35710D01*
X29917Y-35695D01*
X29953Y-35648D01*
X29953Y-35903D01*
X29884Y-35875D01*
X29715Y-35874D01*
X29605Y-35920D01*
X29605Y-35300D01*
X29451Y-35146D01*
X29404Y-35182D01*
X29389Y-35342D01*
X29404Y-35417D01*
X29451Y-35453D01*
X29605Y-35300D01*
X29605Y-35920D01*
X29559Y-35939D01*
X29439Y-36058D01*
X29375Y-36215D01*
X29374Y-36384D01*
X29439Y-36540D01*
X29558Y-36660D01*
X29715Y-36724D01*
X29884Y-36725D01*
X30040Y-36660D01*
X30160Y-36541D01*
X30224Y-36384D01*
X30225Y-36215D01*
X30225Y-37215D01*
X30160Y-37059D01*
X30041Y-36939D01*
X29884Y-36875D01*
X29715Y-36874D01*
X29559Y-36939D01*
X29439Y-37058D01*
X29375Y-37215D01*
X29374Y-37384D01*
X29439Y-37540D01*
X29558Y-37660D01*
X29715Y-37724D01*
X29884Y-37725D01*
X30040Y-37660D01*
X30160Y-37541D01*
X30224Y-37384D01*
X30225Y-37215D01*
X30225Y-38215D01*
X30160Y-38059D01*
X30041Y-37939D01*
X29884Y-37875D01*
X29715Y-37874D01*
X29559Y-37939D01*
X29439Y-38058D01*
X29375Y-38215D01*
X29374Y-38384D01*
X29439Y-38540D01*
X29558Y-38660D01*
X29715Y-38724D01*
X29884Y-38725D01*
X30040Y-38660D01*
X30160Y-38541D01*
X30224Y-38384D01*
X30225Y-38215D01*
X30225Y-39215D01*
X30160Y-39059D01*
X30041Y-38939D01*
X29884Y-38875D01*
X29715Y-38874D01*
X29559Y-38939D01*
X29439Y-39058D01*
X29375Y-39215D01*
X29374Y-39384D01*
X29439Y-39540D01*
X29558Y-39660D01*
X29715Y-39724D01*
X29884Y-39725D01*
X30040Y-39660D01*
X30160Y-39541D01*
X30224Y-39384D01*
X30225Y-39215D01*
X30225Y-40215D01*
X30160Y-40059D01*
X30041Y-39939D01*
X29884Y-39875D01*
X29715Y-39874D01*
X29559Y-39939D01*
X29439Y-40058D01*
X29375Y-40215D01*
X29374Y-40384D01*
X29439Y-40540D01*
X29558Y-40660D01*
X29715Y-40724D01*
X29884Y-40725D01*
X30040Y-40660D01*
X30160Y-40541D01*
X30224Y-40384D01*
X30225Y-40215D01*
X30225Y-42250D01*
X30225Y-42250D01*
X30225Y-41545D01*
X30225Y-40995D01*
X30202Y-40940D01*
X30160Y-40897D01*
X30104Y-40875D01*
X30045Y-40874D01*
X29495Y-40874D01*
X29440Y-40897D01*
X29397Y-40939D01*
X29375Y-40995D01*
X29374Y-41054D01*
X29374Y-41604D01*
X29397Y-41659D01*
X29439Y-41702D01*
X29495Y-41724D01*
X29554Y-41725D01*
X30104Y-41725D01*
X30159Y-41702D01*
X30202Y-41660D01*
X30224Y-41604D01*
X30225Y-41545D01*
X30225Y-42250D01*
X29225Y-42250D01*
X29225Y-41215D01*
X29225Y-40215D01*
X29225Y-36215D01*
X29225Y-35215D01*
X29225Y-33215D01*
X29225Y-32215D01*
X29225Y-30215D01*
X29225Y-29215D01*
X29225Y-27215D01*
X29225Y-26215D01*
X29210Y-26181D01*
X29210Y-25257D01*
X29195Y-25182D01*
X29148Y-25146D01*
X28994Y-25300D01*
X29148Y-25453D01*
X29195Y-25417D01*
X29210Y-25257D01*
X29210Y-26181D01*
X29160Y-26059D01*
X29041Y-25939D01*
X28953Y-25903D01*
X28953Y-25648D01*
X28953Y-24951D01*
X28917Y-24904D01*
X28757Y-24889D01*
X28682Y-24904D01*
X28646Y-24951D01*
X28800Y-25105D01*
X28953Y-24951D01*
X28953Y-25648D01*
X28800Y-25494D01*
X28646Y-25648D01*
X28682Y-25695D01*
X28842Y-25710D01*
X28917Y-25695D01*
X28953Y-25648D01*
X28953Y-25903D01*
X28884Y-25875D01*
X28715Y-25874D01*
X28605Y-25920D01*
X28605Y-25300D01*
X28451Y-25146D01*
X28404Y-25182D01*
X28389Y-25342D01*
X28404Y-25417D01*
X28451Y-25453D01*
X28605Y-25300D01*
X28605Y-25920D01*
X28559Y-25939D01*
X28439Y-26058D01*
X28375Y-26215D01*
X28374Y-26384D01*
X28439Y-26540D01*
X28558Y-26660D01*
X28715Y-26724D01*
X28884Y-26725D01*
X29040Y-26660D01*
X29160Y-26541D01*
X29224Y-26384D01*
X29225Y-26215D01*
X29225Y-27215D01*
X29160Y-27059D01*
X29041Y-26939D01*
X28884Y-26875D01*
X28715Y-26874D01*
X28559Y-26939D01*
X28439Y-27058D01*
X28375Y-27215D01*
X28374Y-27384D01*
X28439Y-27540D01*
X28558Y-27660D01*
X28715Y-27724D01*
X28884Y-27725D01*
X29040Y-27660D01*
X29160Y-27541D01*
X29224Y-27384D01*
X29225Y-27215D01*
X29225Y-29215D01*
X29210Y-29181D01*
X29210Y-28257D01*
X29195Y-28182D01*
X29148Y-28146D01*
X28994Y-28300D01*
X29148Y-28453D01*
X29195Y-28417D01*
X29210Y-28257D01*
X29210Y-29181D01*
X29160Y-29059D01*
X29041Y-28939D01*
X28953Y-28903D01*
X28953Y-28648D01*
X28953Y-27951D01*
X28917Y-27904D01*
X28757Y-27889D01*
X28682Y-27904D01*
X28646Y-27951D01*
X28800Y-28105D01*
X28953Y-27951D01*
X28953Y-28648D01*
X28800Y-28494D01*
X28646Y-28648D01*
X28682Y-28695D01*
X28842Y-28710D01*
X28917Y-28695D01*
X28953Y-28648D01*
X28953Y-28903D01*
X28884Y-28875D01*
X28715Y-28874D01*
X28605Y-28920D01*
X28605Y-28300D01*
X28451Y-28146D01*
X28404Y-28182D01*
X28389Y-28342D01*
X28404Y-28417D01*
X28451Y-28453D01*
X28605Y-28300D01*
X28605Y-28920D01*
X28559Y-28939D01*
X28439Y-29058D01*
X28375Y-29215D01*
X28374Y-29384D01*
X28439Y-29540D01*
X28558Y-29660D01*
X28715Y-29724D01*
X28884Y-29725D01*
X29040Y-29660D01*
X29160Y-29541D01*
X29224Y-29384D01*
X29225Y-29215D01*
X29225Y-30215D01*
X29160Y-30059D01*
X29041Y-29939D01*
X28884Y-29875D01*
X28715Y-29874D01*
X28559Y-29939D01*
X28439Y-30058D01*
X28375Y-30215D01*
X28374Y-30384D01*
X28439Y-30540D01*
X28558Y-30660D01*
X28715Y-30724D01*
X28884Y-30725D01*
X29040Y-30660D01*
X29160Y-30541D01*
X29224Y-30384D01*
X29225Y-30215D01*
X29225Y-32215D01*
X29210Y-32181D01*
X29210Y-31257D01*
X29195Y-31182D01*
X29148Y-31146D01*
X28994Y-31300D01*
X29148Y-31453D01*
X29195Y-31417D01*
X29210Y-31257D01*
X29210Y-32181D01*
X29160Y-32059D01*
X29041Y-31939D01*
X28953Y-31903D01*
X28953Y-31648D01*
X28953Y-30951D01*
X28917Y-30904D01*
X28757Y-30889D01*
X28682Y-30904D01*
X28646Y-30951D01*
X28800Y-31105D01*
X28953Y-30951D01*
X28953Y-31648D01*
X28800Y-31494D01*
X28646Y-31648D01*
X28682Y-31695D01*
X28842Y-31710D01*
X28917Y-31695D01*
X28953Y-31648D01*
X28953Y-31903D01*
X28884Y-31875D01*
X28715Y-31874D01*
X28605Y-31920D01*
X28605Y-31300D01*
X28451Y-31146D01*
X28404Y-31182D01*
X28389Y-31342D01*
X28404Y-31417D01*
X28451Y-31453D01*
X28605Y-31300D01*
X28605Y-31920D01*
X28559Y-31939D01*
X28439Y-32058D01*
X28375Y-32215D01*
X28374Y-32384D01*
X28439Y-32540D01*
X28558Y-32660D01*
X28715Y-32724D01*
X28884Y-32725D01*
X29040Y-32660D01*
X29160Y-32541D01*
X29224Y-32384D01*
X29225Y-32215D01*
X29225Y-33215D01*
X29160Y-33059D01*
X29041Y-32939D01*
X28884Y-32875D01*
X28715Y-32874D01*
X28559Y-32939D01*
X28439Y-33058D01*
X28375Y-33215D01*
X28374Y-33384D01*
X28439Y-33540D01*
X28558Y-33660D01*
X28715Y-33724D01*
X28884Y-33725D01*
X29040Y-33660D01*
X29160Y-33541D01*
X29224Y-33384D01*
X29225Y-33215D01*
X29225Y-35215D01*
X29210Y-35181D01*
X29210Y-34257D01*
X29195Y-34182D01*
X29148Y-34146D01*
X28994Y-34300D01*
X29148Y-34453D01*
X29195Y-34417D01*
X29210Y-34257D01*
X29210Y-35181D01*
X29160Y-35059D01*
X29041Y-34939D01*
X28953Y-34903D01*
X28953Y-34648D01*
X28953Y-33951D01*
X28917Y-33904D01*
X28757Y-33889D01*
X28682Y-33904D01*
X28646Y-33951D01*
X28800Y-34105D01*
X28953Y-33951D01*
X28953Y-34648D01*
X28800Y-34494D01*
X28646Y-34648D01*
X28682Y-34695D01*
X28842Y-34710D01*
X28917Y-34695D01*
X28953Y-34648D01*
X28953Y-34903D01*
X28884Y-34875D01*
X28715Y-34874D01*
X28605Y-34920D01*
X28605Y-34300D01*
X28451Y-34146D01*
X28404Y-34182D01*
X28389Y-34342D01*
X28404Y-34417D01*
X28451Y-34453D01*
X28605Y-34300D01*
X28605Y-34920D01*
X28559Y-34939D01*
X28439Y-35058D01*
X28375Y-35215D01*
X28374Y-35384D01*
X28439Y-35540D01*
X28558Y-35660D01*
X28715Y-35724D01*
X28884Y-35725D01*
X29040Y-35660D01*
X29160Y-35541D01*
X29224Y-35384D01*
X29225Y-35215D01*
X29225Y-36215D01*
X29160Y-36059D01*
X29041Y-35939D01*
X28884Y-35875D01*
X28715Y-35874D01*
X28559Y-35939D01*
X28439Y-36058D01*
X28375Y-36215D01*
X28374Y-36384D01*
X28439Y-36540D01*
X28558Y-36660D01*
X28715Y-36724D01*
X28884Y-36725D01*
X29040Y-36660D01*
X29160Y-36541D01*
X29224Y-36384D01*
X29225Y-36215D01*
X29225Y-40215D01*
X29210Y-40181D01*
X29210Y-39257D01*
X29210Y-38257D01*
X29210Y-37257D01*
X29195Y-37182D01*
X29148Y-37146D01*
X28994Y-37300D01*
X29148Y-37453D01*
X29195Y-37417D01*
X29210Y-37257D01*
X29210Y-38257D01*
X29195Y-38182D01*
X29148Y-38146D01*
X28994Y-38300D01*
X29148Y-38453D01*
X29195Y-38417D01*
X29210Y-38257D01*
X29210Y-39257D01*
X29195Y-39182D01*
X29148Y-39146D01*
X28994Y-39300D01*
X29148Y-39453D01*
X29195Y-39417D01*
X29210Y-39257D01*
X29210Y-40181D01*
X29160Y-40059D01*
X29041Y-39939D01*
X28953Y-39903D01*
X28953Y-39648D01*
X28953Y-38951D01*
X28953Y-38648D01*
X28953Y-37951D01*
X28953Y-37648D01*
X28953Y-36951D01*
X28917Y-36904D01*
X28757Y-36889D01*
X28682Y-36904D01*
X28646Y-36951D01*
X28800Y-37105D01*
X28953Y-36951D01*
X28953Y-37648D01*
X28800Y-37494D01*
X28646Y-37648D01*
X28682Y-37695D01*
X28842Y-37710D01*
X28917Y-37695D01*
X28953Y-37648D01*
X28953Y-37951D01*
X28917Y-37904D01*
X28757Y-37889D01*
X28682Y-37904D01*
X28646Y-37951D01*
X28800Y-38105D01*
X28953Y-37951D01*
X28953Y-38648D01*
X28800Y-38494D01*
X28646Y-38648D01*
X28682Y-38695D01*
X28842Y-38710D01*
X28917Y-38695D01*
X28953Y-38648D01*
X28953Y-38951D01*
X28917Y-38904D01*
X28757Y-38889D01*
X28682Y-38904D01*
X28646Y-38951D01*
X28800Y-39105D01*
X28953Y-38951D01*
X28953Y-39648D01*
X28800Y-39494D01*
X28646Y-39648D01*
X28682Y-39695D01*
X28842Y-39710D01*
X28917Y-39695D01*
X28953Y-39648D01*
X28953Y-39903D01*
X28884Y-39875D01*
X28715Y-39874D01*
X28605Y-39920D01*
X28605Y-39300D01*
X28605Y-38300D01*
X28605Y-37300D01*
X28451Y-37146D01*
X28404Y-37182D01*
X28389Y-37342D01*
X28404Y-37417D01*
X28451Y-37453D01*
X28605Y-37300D01*
X28605Y-38300D01*
X28451Y-38146D01*
X28404Y-38182D01*
X28389Y-38342D01*
X28404Y-38417D01*
X28451Y-38453D01*
X28605Y-38300D01*
X28605Y-39300D01*
X28451Y-39146D01*
X28404Y-39182D01*
X28389Y-39342D01*
X28404Y-39417D01*
X28451Y-39453D01*
X28605Y-39300D01*
X28605Y-39920D01*
X28559Y-39939D01*
X28439Y-40058D01*
X28375Y-40215D01*
X28374Y-40384D01*
X28439Y-40540D01*
X28558Y-40660D01*
X28715Y-40724D01*
X28884Y-40725D01*
X29040Y-40660D01*
X29160Y-40541D01*
X29224Y-40384D01*
X29225Y-40215D01*
X29225Y-41215D01*
X29160Y-41059D01*
X29041Y-40939D01*
X28884Y-40875D01*
X28715Y-40874D01*
X28559Y-40939D01*
X28439Y-41058D01*
X28375Y-41215D01*
X28374Y-41384D01*
X28439Y-41540D01*
X28558Y-41660D01*
X28715Y-41724D01*
X28884Y-41725D01*
X29040Y-41660D01*
X29160Y-41541D01*
X29224Y-41384D01*
X29225Y-41215D01*
X29225Y-42250D01*
X27850Y-42250D01*
X27850Y-23850D01*
X30750Y-23850D01*
X30750Y-42250D01*
M02*
