M48
;DRILL file {Pcbnew (2013-06-11 BZR 4021)-stable} date Sat 08 Feb 2014 02:58:10 AM CST
;FORMAT={-:-/ absolute / inch / decimal}
FMAT,2
INCH,TZ
T1C0.025
T2C0.032
T3C0.039
T4C0.055
T5C0.110
T6C0.122
T7C0.126
%
G90
G05
M72
T1
X3.38Y4.01
T2
X2.88Y2.53
X2.88Y2.63
X2.88Y2.73
X2.88Y2.83
X2.88Y2.93
X2.88Y3.03
X2.88Y3.13
X2.88Y3.23
X2.88Y3.33
X2.88Y3.43
X2.88Y3.53
X2.88Y3.63
X2.88Y3.73
X2.88Y3.83
X2.88Y3.93
X2.88Y4.03
X2.88Y4.13
X2.98Y2.53
X2.98Y2.63
X2.98Y2.73
X2.98Y2.83
X2.98Y2.93
X2.98Y3.03
X2.98Y3.13
X2.98Y3.23
X2.98Y3.33
X2.98Y3.43
X2.98Y3.53
X2.98Y3.63
X2.98Y3.73
X2.98Y3.83
X2.98Y3.93
X2.98Y4.03
X2.98Y4.13
X3.28Y4.2476
X3.38Y4.2524
X3.48Y4.2476
T3
X3.4123Y3.1143
X3.4123Y3.2221
X3.4123Y3.33
X3.4123Y3.4379
X3.4123Y3.5457
X3.4871Y3.1682
X3.4871Y3.2761
X3.4871Y3.3839
X3.4871Y3.4918
T4
X3.0146Y2.23
X3.18Y2.23
X3.3454Y2.23
T5
X2.83Y1.85
X2.83Y4.47
X3.53Y1.85
X3.53Y4.47
T6
X3.0146Y2.0804
X3.3454Y2.3796
T7
X3.4497Y2.8379
X3.4497Y3.8221
T0
M30
