M48
;DRILL file {Pcbnew (2013-06-11 BZR 4021)-stable} date Wed 16 Apr 2014 08:44:19 AM CDT
;FORMAT={-:-/ absolute / inch / decimal}
FMAT,2
INCH,TZ
T1C0.025
T2C0.032
T3C0.039
T4C0.055
T5C0.110
T6C0.122
T7C0.126
%
G90
G05
M72
T1
X3.38Y-4.01
T2
X2.88Y-2.53
X2.88Y-2.63
X2.88Y-2.73
X2.88Y-2.83
X2.88Y-2.93
X2.88Y-3.03
X2.88Y-3.13
X2.88Y-3.23
X2.88Y-3.33
X2.88Y-3.43
X2.88Y-3.53
X2.88Y-3.63
X2.88Y-3.73
X2.88Y-3.83
X2.88Y-3.93
X2.88Y-4.03
X2.88Y-4.13
X2.98Y-2.53
X2.98Y-2.63
X2.98Y-2.73
X2.98Y-2.83
X2.98Y-2.93
X2.98Y-3.03
X2.98Y-3.13
X2.98Y-3.23
X2.98Y-3.33
X2.98Y-3.43
X2.98Y-3.53
X2.98Y-3.63
X2.98Y-3.73
X2.98Y-3.83
X2.98Y-3.93
X2.98Y-4.03
X2.98Y-4.13
X3.28Y-4.2476
X3.38Y-4.2524
X3.48Y-4.2476
T3
X3.4123Y-3.1143
X3.4123Y-3.2221
X3.4123Y-3.33
X3.4123Y-3.4379
X3.4123Y-3.5457
X3.4871Y-3.1682
X3.4871Y-3.2761
X3.4871Y-3.3839
X3.4871Y-3.4918
T4
X3.1106Y-2.123
X3.276Y-2.123
X3.4414Y-2.123
T5
X2.83Y-1.85
X2.83Y-4.47
X3.53Y-1.85
X3.53Y-4.47
T6
X3.1106Y-1.9714
X3.3587Y-2.3415
T7
X3.4497Y-2.8379
X3.4497Y-3.8221
T0
M30
