M48
;DRILL file {Pcbnew (2013-06-11 BZR 4021)-stable} date Thu 06 Feb 2014 10:57:34 PM CST
;FORMAT={-:-/ absolute / inch / decimal}
FMAT,2
INCH,TZ
T1C0.028
T2C0.031
T3C0.040
T4C0.055
T5C0.079
T6C0.110
T7C0.122
T8C0.140
%
G90
G05
M72
T1
X6.0039Y8.5039
X6.0827Y8.5039
X12.874Y7.9528
X12.874Y8.0315
X12.874Y8.2205
X12.874Y8.315
X12.874Y8.8504
X12.874Y8.9449
X12.874Y9.1339
X12.874Y9.2126
X13.2283Y8.4646
X13.2283Y8.5433
X13.2283Y8.8189
X13.2283Y8.8976
T2
X6.0039Y8.8386
X6.2008Y8.8386
T3
X13.1102Y8.1283
X13.1102Y8.2283
X13.1102Y8.3283
X13.1102Y9.0339
X13.1102Y9.1339
X13.1102Y9.2339
T4
X6.0039Y7.8661
X6.0039Y8.0315
X6.0039Y8.1969
X9.4488Y8.4173
X9.4488Y8.5827
X9.4488Y8.748
X13.4961Y8.6811
X13.6614Y8.6811
X13.8268Y8.6811
T5
X6.5354Y7.9055
X6.5354Y8.1299
X6.5354Y9.0354
X8.9764Y7.7953
X8.9764Y8.5827
X8.9764Y9.3701
X10.Y7.7953
X10.Y8.5827
X10.Y9.3701
X12.4409Y7.7953
X12.4409Y8.1299
X12.4409Y8.5827
X12.4409Y9.0354
X12.4409Y9.3701
T6
X5.6496Y7.6575
X5.6496Y9.5079
X9.4488Y7.6575
X9.4488Y9.5079
X14.0157Y7.6575
X14.0157Y9.5079
T7
X5.8543Y8.1969
X6.1535Y7.8661
X9.2992Y8.748
X9.5984Y8.4173
X13.4961Y8.5315
X13.8268Y8.8307
T8
X13.8102Y8.2283
X13.8102Y9.1339
T0
M30
