G04 (created by PCBNEW (2013-06-11 BZR 4021)-stable) date Thu 06 Feb 2014 10:57:33 PM CST*
%MOIN*%
G04 Gerber Fmt 3.4, Leading zero omitted, Abs format*
%FSLAX34Y34*%
G01*
G70*
G90*
G04 APERTURE LIST*
%ADD10C,0.00590551*%
%ADD11C,0.011811*%
%ADD12C,0.015*%
G04 APERTURE END LIST*
G54D10*
G54D11*
X127277Y-75829D02*
X127277Y-76251D01*
X127249Y-76335D01*
X127193Y-76392D01*
X127109Y-76420D01*
X127052Y-76420D01*
X127896Y-76420D02*
X127699Y-76138D01*
X127559Y-76420D02*
X127559Y-75829D01*
X127784Y-75829D01*
X127840Y-75857D01*
X127868Y-75885D01*
X127896Y-75942D01*
X127896Y-76026D01*
X127868Y-76082D01*
X127840Y-76110D01*
X127784Y-76138D01*
X127559Y-76138D01*
X128093Y-75829D02*
X128458Y-75829D01*
X128262Y-76054D01*
X128346Y-76054D01*
X128402Y-76082D01*
X128430Y-76110D01*
X128458Y-76167D01*
X128458Y-76307D01*
X128430Y-76363D01*
X128402Y-76392D01*
X128346Y-76420D01*
X128177Y-76420D01*
X128121Y-76392D01*
X128093Y-76363D01*
X129161Y-76420D02*
X129161Y-75829D01*
X129386Y-75829D01*
X129443Y-75857D01*
X129471Y-75885D01*
X129499Y-75942D01*
X129499Y-76026D01*
X129471Y-76082D01*
X129443Y-76110D01*
X129386Y-76138D01*
X129161Y-76138D01*
X129836Y-76420D02*
X129780Y-76392D01*
X129752Y-76363D01*
X129724Y-76307D01*
X129724Y-76138D01*
X129752Y-76082D01*
X129780Y-76054D01*
X129836Y-76026D01*
X129921Y-76026D01*
X129977Y-76054D01*
X130005Y-76082D01*
X130033Y-76138D01*
X130033Y-76307D01*
X130005Y-76363D01*
X129977Y-76392D01*
X129921Y-76420D01*
X129836Y-76420D01*
X130230Y-76026D02*
X130343Y-76420D01*
X130455Y-76138D01*
X130568Y-76420D01*
X130680Y-76026D01*
X131130Y-76392D02*
X131074Y-76420D01*
X130961Y-76420D01*
X130905Y-76392D01*
X130877Y-76335D01*
X130877Y-76110D01*
X130905Y-76054D01*
X130961Y-76026D01*
X131074Y-76026D01*
X131130Y-76054D01*
X131158Y-76110D01*
X131158Y-76167D01*
X130877Y-76223D01*
X131411Y-76420D02*
X131411Y-76026D01*
X131411Y-76138D02*
X131439Y-76082D01*
X131467Y-76054D01*
X131524Y-76026D01*
X131580Y-76026D01*
X132199Y-76392D02*
X132283Y-76420D01*
X132424Y-76420D01*
X132480Y-76392D01*
X132508Y-76363D01*
X132536Y-76307D01*
X132536Y-76251D01*
X132508Y-76195D01*
X132480Y-76167D01*
X132424Y-76138D01*
X132311Y-76110D01*
X132255Y-76082D01*
X132227Y-76054D01*
X132199Y-75998D01*
X132199Y-75942D01*
X132227Y-75885D01*
X132255Y-75857D01*
X132311Y-75829D01*
X132452Y-75829D01*
X132536Y-75857D01*
X133042Y-76026D02*
X133042Y-76420D01*
X132789Y-76026D02*
X132789Y-76335D01*
X132817Y-76392D01*
X132874Y-76420D01*
X132958Y-76420D01*
X133014Y-76392D01*
X133042Y-76363D01*
X133323Y-76026D02*
X133323Y-76616D01*
X133323Y-76054D02*
X133380Y-76026D01*
X133492Y-76026D01*
X133548Y-76054D01*
X133577Y-76082D01*
X133605Y-76138D01*
X133605Y-76307D01*
X133577Y-76363D01*
X133548Y-76392D01*
X133492Y-76420D01*
X133380Y-76420D01*
X133323Y-76392D01*
X133858Y-76026D02*
X133858Y-76616D01*
X133858Y-76054D02*
X133914Y-76026D01*
X134026Y-76026D01*
X134083Y-76054D01*
X134111Y-76082D01*
X134139Y-76138D01*
X134139Y-76307D01*
X134111Y-76363D01*
X134083Y-76392D01*
X134026Y-76420D01*
X133914Y-76420D01*
X133858Y-76392D01*
X134476Y-76420D02*
X134420Y-76392D01*
X134392Y-76335D01*
X134392Y-75829D01*
X134645Y-76026D02*
X134786Y-76420D01*
X134926Y-76026D02*
X134786Y-76420D01*
X134730Y-76560D01*
X134701Y-76588D01*
X134645Y-76616D01*
X127446Y-77365D02*
X127249Y-77083D01*
X127109Y-77365D02*
X127109Y-76774D01*
X127334Y-76774D01*
X127390Y-76802D01*
X127418Y-76830D01*
X127446Y-76886D01*
X127446Y-76971D01*
X127418Y-77027D01*
X127390Y-77055D01*
X127334Y-77083D01*
X127109Y-77083D01*
X127924Y-77336D02*
X127868Y-77365D01*
X127755Y-77365D01*
X127699Y-77336D01*
X127671Y-77280D01*
X127671Y-77055D01*
X127699Y-76999D01*
X127755Y-76971D01*
X127868Y-76971D01*
X127924Y-76999D01*
X127952Y-77055D01*
X127952Y-77111D01*
X127671Y-77168D01*
X128149Y-76971D02*
X128290Y-77365D01*
X128430Y-76971D01*
X129077Y-77196D02*
X129358Y-77196D01*
X129021Y-77365D02*
X129218Y-76774D01*
X129415Y-77365D01*
X127109Y-78309D02*
X127109Y-77719D01*
X127249Y-77719D01*
X127334Y-77747D01*
X127390Y-77803D01*
X127418Y-77859D01*
X127446Y-77972D01*
X127446Y-78056D01*
X127418Y-78169D01*
X127390Y-78225D01*
X127334Y-78281D01*
X127249Y-78309D01*
X127109Y-78309D01*
X127924Y-78281D02*
X127868Y-78309D01*
X127755Y-78309D01*
X127699Y-78281D01*
X127671Y-78225D01*
X127671Y-78000D01*
X127699Y-77944D01*
X127755Y-77916D01*
X127868Y-77916D01*
X127924Y-77944D01*
X127952Y-78000D01*
X127952Y-78056D01*
X127671Y-78113D01*
X128177Y-78281D02*
X128233Y-78309D01*
X128346Y-78309D01*
X128402Y-78281D01*
X128430Y-78225D01*
X128430Y-78197D01*
X128402Y-78141D01*
X128346Y-78113D01*
X128262Y-78113D01*
X128205Y-78084D01*
X128177Y-78028D01*
X128177Y-78000D01*
X128205Y-77944D01*
X128262Y-77916D01*
X128346Y-77916D01*
X128402Y-77944D01*
X128683Y-78309D02*
X128683Y-77916D01*
X128683Y-77719D02*
X128655Y-77747D01*
X128683Y-77775D01*
X128712Y-77747D01*
X128683Y-77719D01*
X128683Y-77775D01*
X129218Y-77916D02*
X129218Y-78394D01*
X129190Y-78450D01*
X129161Y-78478D01*
X129105Y-78506D01*
X129021Y-78506D01*
X128965Y-78478D01*
X129218Y-78281D02*
X129161Y-78309D01*
X129049Y-78309D01*
X128993Y-78281D01*
X128965Y-78253D01*
X128937Y-78197D01*
X128937Y-78028D01*
X128965Y-77972D01*
X128993Y-77944D01*
X129049Y-77916D01*
X129161Y-77916D01*
X129218Y-77944D01*
X129499Y-77916D02*
X129499Y-78309D01*
X129499Y-77972D02*
X129527Y-77944D01*
X129583Y-77916D01*
X129668Y-77916D01*
X129724Y-77944D01*
X129752Y-78000D01*
X129752Y-78309D01*
X130258Y-78281D02*
X130202Y-78309D01*
X130089Y-78309D01*
X130033Y-78281D01*
X130005Y-78225D01*
X130005Y-78000D01*
X130033Y-77944D01*
X130089Y-77916D01*
X130202Y-77916D01*
X130258Y-77944D01*
X130286Y-78000D01*
X130286Y-78056D01*
X130005Y-78113D01*
X130793Y-78309D02*
X130793Y-77719D01*
X130793Y-78281D02*
X130736Y-78309D01*
X130624Y-78309D01*
X130568Y-78281D01*
X130539Y-78253D01*
X130511Y-78197D01*
X130511Y-78028D01*
X130539Y-77972D01*
X130568Y-77944D01*
X130624Y-77916D01*
X130736Y-77916D01*
X130793Y-77944D01*
X131524Y-78309D02*
X131524Y-77719D01*
X131524Y-77944D02*
X131580Y-77916D01*
X131692Y-77916D01*
X131749Y-77944D01*
X131777Y-77972D01*
X131805Y-78028D01*
X131805Y-78197D01*
X131777Y-78253D01*
X131749Y-78281D01*
X131692Y-78309D01*
X131580Y-78309D01*
X131524Y-78281D01*
X132002Y-77916D02*
X132142Y-78309D01*
X132283Y-77916D02*
X132142Y-78309D01*
X132086Y-78450D01*
X132058Y-78478D01*
X132002Y-78506D01*
X132508Y-78253D02*
X132536Y-78281D01*
X132508Y-78309D01*
X132480Y-78281D01*
X132508Y-78253D01*
X132508Y-78309D01*
X132508Y-77944D02*
X132536Y-77972D01*
X132508Y-78000D01*
X132480Y-77972D01*
X132508Y-77944D01*
X132508Y-78000D01*
X133239Y-78309D02*
X133239Y-77719D01*
X133773Y-78309D02*
X133773Y-78000D01*
X133745Y-77944D01*
X133689Y-77916D01*
X133577Y-77916D01*
X133520Y-77944D01*
X133773Y-78281D02*
X133717Y-78309D01*
X133577Y-78309D01*
X133520Y-78281D01*
X133492Y-78225D01*
X133492Y-78169D01*
X133520Y-78113D01*
X133577Y-78084D01*
X133717Y-78084D01*
X133773Y-78056D01*
X134055Y-77916D02*
X134055Y-78309D01*
X134055Y-77972D02*
X134083Y-77944D01*
X134139Y-77916D01*
X134223Y-77916D01*
X134280Y-77944D01*
X134308Y-78000D01*
X134308Y-78309D01*
X135039Y-78309D02*
X135039Y-77719D01*
X135236Y-78141D01*
X135433Y-77719D01*
X135433Y-78309D01*
X135967Y-78281D02*
X135911Y-78309D01*
X135798Y-78309D01*
X135742Y-78281D01*
X135714Y-78253D01*
X135686Y-78197D01*
X135686Y-78028D01*
X135714Y-77972D01*
X135742Y-77944D01*
X135798Y-77916D01*
X135911Y-77916D01*
X135967Y-77944D01*
X136220Y-78309D02*
X136220Y-77719D01*
X136501Y-77916D02*
X136501Y-78309D01*
X136501Y-77972D02*
X136529Y-77944D01*
X136586Y-77916D01*
X136670Y-77916D01*
X136726Y-77944D01*
X136754Y-78000D01*
X136754Y-78309D01*
X137260Y-78281D02*
X137204Y-78309D01*
X137092Y-78309D01*
X137035Y-78281D01*
X137007Y-78225D01*
X137007Y-78000D01*
X137035Y-77944D01*
X137092Y-77916D01*
X137204Y-77916D01*
X137260Y-77944D01*
X137289Y-78000D01*
X137289Y-78056D01*
X137007Y-78113D01*
X137542Y-78309D02*
X137542Y-77916D01*
X137542Y-78028D02*
X137570Y-77972D01*
X137598Y-77944D01*
X137654Y-77916D01*
X137710Y-77916D01*
X137907Y-77916D02*
X137907Y-78309D01*
X137907Y-77972D02*
X137935Y-77944D01*
X137992Y-77916D01*
X138076Y-77916D01*
X138132Y-77944D01*
X138160Y-78000D01*
X138160Y-78309D01*
X138667Y-78281D02*
X138610Y-78309D01*
X138498Y-78309D01*
X138442Y-78281D01*
X138413Y-78225D01*
X138413Y-78000D01*
X138442Y-77944D01*
X138498Y-77916D01*
X138610Y-77916D01*
X138667Y-77944D01*
X138695Y-78000D01*
X138695Y-78056D01*
X138413Y-78113D01*
X138892Y-77916D02*
X139032Y-78309D01*
X139173Y-77916D02*
X139032Y-78309D01*
X138976Y-78450D01*
X138948Y-78478D01*
X138892Y-78506D01*
X92716Y-89637D02*
X92997Y-89637D01*
X92660Y-89805D02*
X92857Y-89215D01*
X93053Y-89805D01*
X93588Y-89749D02*
X93560Y-89777D01*
X93475Y-89805D01*
X93419Y-89805D01*
X93335Y-89777D01*
X93278Y-89721D01*
X93250Y-89665D01*
X93222Y-89552D01*
X93222Y-89468D01*
X93250Y-89356D01*
X93278Y-89299D01*
X93335Y-89243D01*
X93419Y-89215D01*
X93475Y-89215D01*
X93560Y-89243D01*
X93588Y-89271D01*
X94291Y-89805D02*
X94291Y-89215D01*
X94572Y-89412D02*
X94572Y-89805D01*
X94572Y-89468D02*
X94600Y-89440D01*
X94656Y-89412D01*
X94741Y-89412D01*
X94797Y-89440D01*
X94825Y-89496D01*
X94825Y-89805D01*
X95106Y-89412D02*
X95106Y-90002D01*
X95106Y-89440D02*
X95163Y-89412D01*
X95275Y-89412D01*
X95331Y-89440D01*
X95359Y-89468D01*
X95388Y-89524D01*
X95388Y-89693D01*
X95359Y-89749D01*
X95331Y-89777D01*
X95275Y-89805D01*
X95163Y-89805D01*
X95106Y-89777D01*
X95894Y-89412D02*
X95894Y-89805D01*
X95641Y-89412D02*
X95641Y-89721D01*
X95669Y-89777D01*
X95725Y-89805D01*
X95809Y-89805D01*
X95866Y-89777D01*
X95894Y-89749D01*
X96091Y-89412D02*
X96316Y-89412D01*
X96175Y-89215D02*
X96175Y-89721D01*
X96203Y-89777D01*
X96259Y-89805D01*
X96316Y-89805D01*
X140396Y-91704D02*
X140818Y-91704D01*
X140902Y-91732D01*
X140958Y-91788D01*
X140987Y-91872D01*
X140987Y-91929D01*
X140987Y-91085D02*
X140705Y-91282D01*
X140987Y-91422D02*
X140396Y-91422D01*
X140396Y-91197D01*
X140424Y-91141D01*
X140452Y-91113D01*
X140508Y-91085D01*
X140593Y-91085D01*
X140649Y-91113D01*
X140677Y-91141D01*
X140705Y-91197D01*
X140705Y-91422D01*
X140396Y-90888D02*
X140396Y-90523D01*
X140621Y-90719D01*
X140621Y-90635D01*
X140649Y-90579D01*
X140677Y-90551D01*
X140733Y-90523D01*
X140874Y-90523D01*
X140930Y-90551D01*
X140958Y-90579D01*
X140987Y-90635D01*
X140987Y-90804D01*
X140958Y-90860D01*
X140930Y-90888D01*
X140987Y-89820D02*
X140396Y-89820D01*
X140396Y-89595D01*
X140424Y-89538D01*
X140452Y-89510D01*
X140508Y-89482D01*
X140593Y-89482D01*
X140649Y-89510D01*
X140677Y-89538D01*
X140705Y-89595D01*
X140705Y-89820D01*
X140987Y-89145D02*
X140958Y-89201D01*
X140930Y-89229D01*
X140874Y-89257D01*
X140705Y-89257D01*
X140649Y-89229D01*
X140621Y-89201D01*
X140593Y-89145D01*
X140593Y-89060D01*
X140621Y-89004D01*
X140649Y-88976D01*
X140705Y-88948D01*
X140874Y-88948D01*
X140930Y-88976D01*
X140958Y-89004D01*
X140987Y-89060D01*
X140987Y-89145D01*
X140593Y-88751D02*
X140987Y-88638D01*
X140705Y-88526D01*
X140987Y-88413D01*
X140593Y-88301D01*
X140958Y-87851D02*
X140987Y-87907D01*
X140987Y-88020D01*
X140958Y-88076D01*
X140902Y-88104D01*
X140677Y-88104D01*
X140621Y-88076D01*
X140593Y-88020D01*
X140593Y-87907D01*
X140621Y-87851D01*
X140677Y-87823D01*
X140733Y-87823D01*
X140790Y-88104D01*
X140987Y-87570D02*
X140593Y-87570D01*
X140705Y-87570D02*
X140649Y-87542D01*
X140621Y-87514D01*
X140593Y-87457D01*
X140593Y-87401D01*
X140930Y-86417D02*
X140958Y-86445D01*
X140987Y-86529D01*
X140987Y-86586D01*
X140958Y-86670D01*
X140902Y-86726D01*
X140846Y-86754D01*
X140733Y-86782D01*
X140649Y-86782D01*
X140537Y-86754D01*
X140480Y-86726D01*
X140424Y-86670D01*
X140396Y-86586D01*
X140396Y-86529D01*
X140424Y-86445D01*
X140452Y-86417D01*
X140987Y-86079D02*
X140958Y-86136D01*
X140930Y-86164D01*
X140874Y-86192D01*
X140705Y-86192D01*
X140649Y-86164D01*
X140621Y-86136D01*
X140593Y-86079D01*
X140593Y-85995D01*
X140621Y-85939D01*
X140649Y-85911D01*
X140705Y-85883D01*
X140874Y-85883D01*
X140930Y-85911D01*
X140958Y-85939D01*
X140987Y-85995D01*
X140987Y-86079D01*
X140593Y-85629D02*
X140987Y-85629D01*
X140649Y-85629D02*
X140621Y-85601D01*
X140593Y-85545D01*
X140593Y-85461D01*
X140621Y-85404D01*
X140677Y-85376D01*
X140987Y-85376D01*
X140593Y-85095D02*
X140987Y-85095D01*
X140649Y-85095D02*
X140621Y-85067D01*
X140593Y-85011D01*
X140593Y-84926D01*
X140621Y-84870D01*
X140677Y-84842D01*
X140987Y-84842D01*
X140958Y-84336D02*
X140987Y-84392D01*
X140987Y-84505D01*
X140958Y-84561D01*
X140902Y-84589D01*
X140677Y-84589D01*
X140621Y-84561D01*
X140593Y-84505D01*
X140593Y-84392D01*
X140621Y-84336D01*
X140677Y-84308D01*
X140733Y-84308D01*
X140790Y-84589D01*
X140958Y-83802D02*
X140987Y-83858D01*
X140987Y-83970D01*
X140958Y-84026D01*
X140930Y-84055D01*
X140874Y-84083D01*
X140705Y-84083D01*
X140649Y-84055D01*
X140621Y-84026D01*
X140593Y-83970D01*
X140593Y-83858D01*
X140621Y-83802D01*
X140593Y-83633D02*
X140593Y-83408D01*
X140396Y-83548D02*
X140902Y-83548D01*
X140958Y-83520D01*
X140987Y-83464D01*
X140987Y-83408D01*
X140987Y-83211D02*
X140593Y-83211D01*
X140396Y-83211D02*
X140424Y-83239D01*
X140452Y-83211D01*
X140424Y-83183D01*
X140396Y-83211D01*
X140452Y-83211D01*
X140987Y-82845D02*
X140958Y-82902D01*
X140930Y-82930D01*
X140874Y-82958D01*
X140705Y-82958D01*
X140649Y-82930D01*
X140621Y-82902D01*
X140593Y-82845D01*
X140593Y-82761D01*
X140621Y-82705D01*
X140649Y-82677D01*
X140705Y-82649D01*
X140874Y-82649D01*
X140930Y-82677D01*
X140958Y-82705D01*
X140987Y-82761D01*
X140987Y-82845D01*
X140593Y-82395D02*
X140987Y-82395D01*
X140649Y-82395D02*
X140621Y-82367D01*
X140593Y-82311D01*
X140593Y-82227D01*
X140621Y-82170D01*
X140677Y-82142D01*
X140987Y-82142D01*
X57325Y-90748D02*
X56735Y-90748D01*
X56735Y-90607D01*
X56763Y-90523D01*
X56819Y-90466D01*
X56875Y-90438D01*
X56988Y-90410D01*
X57072Y-90410D01*
X57185Y-90438D01*
X57241Y-90466D01*
X57297Y-90523D01*
X57325Y-90607D01*
X57325Y-90748D01*
X57156Y-90185D02*
X57156Y-89904D01*
X57325Y-90241D02*
X56735Y-90044D01*
X57325Y-89848D01*
X57381Y-89257D02*
X57353Y-89313D01*
X57297Y-89370D01*
X57213Y-89454D01*
X57185Y-89510D01*
X57185Y-89566D01*
X57325Y-89538D02*
X57297Y-89595D01*
X57241Y-89651D01*
X57128Y-89679D01*
X56931Y-89679D01*
X56819Y-89651D01*
X56763Y-89595D01*
X56735Y-89538D01*
X56735Y-89426D01*
X56763Y-89370D01*
X56819Y-89313D01*
X56931Y-89285D01*
X57128Y-89285D01*
X57241Y-89313D01*
X57297Y-89370D01*
X57325Y-89426D01*
X57325Y-89538D01*
X57325Y-88582D02*
X56735Y-88582D01*
X56735Y-88357D01*
X56763Y-88301D01*
X56791Y-88273D01*
X56847Y-88245D01*
X56931Y-88245D01*
X56988Y-88273D01*
X57016Y-88301D01*
X57044Y-88357D01*
X57044Y-88582D01*
X57325Y-87907D02*
X57297Y-87964D01*
X57269Y-87992D01*
X57213Y-88020D01*
X57044Y-88020D01*
X56988Y-87992D01*
X56960Y-87964D01*
X56931Y-87907D01*
X56931Y-87823D01*
X56960Y-87767D01*
X56988Y-87739D01*
X57044Y-87710D01*
X57213Y-87710D01*
X57269Y-87739D01*
X57297Y-87767D01*
X57325Y-87823D01*
X57325Y-87907D01*
X56931Y-87514D02*
X57325Y-87401D01*
X57044Y-87289D01*
X57325Y-87176D01*
X56931Y-87064D01*
X57297Y-86614D02*
X57325Y-86670D01*
X57325Y-86782D01*
X57297Y-86839D01*
X57241Y-86867D01*
X57016Y-86867D01*
X56960Y-86839D01*
X56931Y-86782D01*
X56931Y-86670D01*
X56960Y-86614D01*
X57016Y-86586D01*
X57072Y-86586D01*
X57128Y-86867D01*
X57325Y-86332D02*
X56931Y-86332D01*
X57044Y-86332D02*
X56988Y-86304D01*
X56960Y-86276D01*
X56931Y-86220D01*
X56931Y-86164D01*
X57269Y-85179D02*
X57297Y-85208D01*
X57325Y-85292D01*
X57325Y-85348D01*
X57297Y-85433D01*
X57241Y-85489D01*
X57185Y-85517D01*
X57072Y-85545D01*
X56988Y-85545D01*
X56875Y-85517D01*
X56819Y-85489D01*
X56763Y-85433D01*
X56735Y-85348D01*
X56735Y-85292D01*
X56763Y-85208D01*
X56791Y-85179D01*
X57325Y-84842D02*
X57297Y-84898D01*
X57269Y-84926D01*
X57213Y-84955D01*
X57044Y-84955D01*
X56988Y-84926D01*
X56960Y-84898D01*
X56931Y-84842D01*
X56931Y-84758D01*
X56960Y-84701D01*
X56988Y-84673D01*
X57044Y-84645D01*
X57213Y-84645D01*
X57269Y-84673D01*
X57297Y-84701D01*
X57325Y-84758D01*
X57325Y-84842D01*
X56931Y-84392D02*
X57325Y-84392D01*
X56988Y-84392D02*
X56960Y-84364D01*
X56931Y-84308D01*
X56931Y-84223D01*
X56960Y-84167D01*
X57016Y-84139D01*
X57325Y-84139D01*
X56931Y-83858D02*
X57325Y-83858D01*
X56988Y-83858D02*
X56960Y-83830D01*
X56931Y-83773D01*
X56931Y-83689D01*
X56960Y-83633D01*
X57016Y-83605D01*
X57325Y-83605D01*
X57297Y-83098D02*
X57325Y-83155D01*
X57325Y-83267D01*
X57297Y-83323D01*
X57241Y-83352D01*
X57016Y-83352D01*
X56960Y-83323D01*
X56931Y-83267D01*
X56931Y-83155D01*
X56960Y-83098D01*
X57016Y-83070D01*
X57072Y-83070D01*
X57128Y-83352D01*
X57297Y-82564D02*
X57325Y-82620D01*
X57325Y-82733D01*
X57297Y-82789D01*
X57269Y-82817D01*
X57213Y-82845D01*
X57044Y-82845D01*
X56988Y-82817D01*
X56960Y-82789D01*
X56931Y-82733D01*
X56931Y-82620D01*
X56960Y-82564D01*
X56931Y-82395D02*
X56931Y-82170D01*
X56735Y-82311D02*
X57241Y-82311D01*
X57297Y-82283D01*
X57325Y-82227D01*
X57325Y-82170D01*
X57325Y-81974D02*
X56931Y-81974D01*
X56735Y-81974D02*
X56763Y-82002D01*
X56791Y-81974D01*
X56763Y-81946D01*
X56735Y-81974D01*
X56791Y-81974D01*
X57325Y-81608D02*
X57297Y-81664D01*
X57269Y-81692D01*
X57213Y-81721D01*
X57044Y-81721D01*
X56988Y-81692D01*
X56960Y-81664D01*
X56931Y-81608D01*
X56931Y-81524D01*
X56960Y-81467D01*
X56988Y-81439D01*
X57044Y-81411D01*
X57213Y-81411D01*
X57269Y-81439D01*
X57297Y-81467D01*
X57325Y-81524D01*
X57325Y-81608D01*
X56931Y-81158D02*
X57325Y-81158D01*
X56988Y-81158D02*
X56960Y-81130D01*
X56931Y-81074D01*
X56931Y-80989D01*
X56960Y-80933D01*
X57016Y-80905D01*
X57325Y-80905D01*
G54D10*
X136702Y-89438D02*
X136702Y-93238D01*
X133402Y-93238D02*
X139002Y-93238D01*
X139002Y-93238D02*
X139002Y-89438D01*
X139002Y-89438D02*
X133402Y-89438D01*
X133402Y-89438D02*
X133402Y-93238D01*
X136702Y-80383D02*
X136702Y-84183D01*
X133402Y-84183D02*
X139002Y-84183D01*
X139002Y-84183D02*
X139002Y-80383D01*
X139002Y-80383D02*
X133402Y-80383D01*
X133402Y-80383D02*
X133402Y-84183D01*
X128740Y-89842D02*
X128740Y-90078D01*
X128582Y-87992D02*
X128897Y-87992D01*
X128740Y-88149D02*
X128740Y-87834D01*
X129960Y-88976D02*
G75*
G03X129960Y-88976I-1220J0D01*
G74*
G01*
X128740Y-83543D02*
X128740Y-83779D01*
X128582Y-81692D02*
X128897Y-81692D01*
X128740Y-81850D02*
X128740Y-81535D01*
X129960Y-82677D02*
G75*
G03X129960Y-82677I-1220J0D01*
G74*
G01*
X128858Y-80669D02*
X128622Y-80669D01*
X128740Y-80551D02*
X128740Y-80787D01*
X128740Y-79055D02*
X128740Y-79291D01*
X129685Y-79921D02*
G75*
G03X129685Y-79921I-944J0D01*
G74*
G01*
X128858Y-92480D02*
X128622Y-92480D01*
X128740Y-92362D02*
X128740Y-92598D01*
X128740Y-90866D02*
X128740Y-91102D01*
X129685Y-91732D02*
G75*
G03X129685Y-91732I-944J0D01*
G74*
G01*
X132165Y-87834D02*
X132401Y-87834D01*
X132283Y-87952D02*
X132283Y-87716D01*
X132283Y-89448D02*
X132283Y-89212D01*
X133228Y-88582D02*
G75*
G03X133228Y-88582I-944J0D01*
G74*
G01*
X132165Y-84291D02*
X132401Y-84291D01*
X132283Y-84409D02*
X132283Y-84173D01*
X132283Y-85905D02*
X132283Y-85669D01*
X133228Y-85039D02*
G75*
G03X133228Y-85039I-944J0D01*
G74*
G01*
X59685Y-85157D02*
X59685Y-84921D01*
X59803Y-85039D02*
X59566Y-85039D01*
X61299Y-85039D02*
X61062Y-85039D01*
X61377Y-85039D02*
G75*
G03X61377Y-85039I-944J0D01*
G74*
G01*
X62480Y-88385D02*
X62755Y-88385D01*
X59370Y-88543D02*
X59370Y-88582D01*
X59370Y-88228D02*
X59370Y-88188D01*
X59370Y-88543D02*
X59370Y-88228D01*
X59566Y-88385D02*
X59173Y-88385D01*
X62992Y-88385D02*
G75*
G03X62992Y-88385I-1968J0D01*
G74*
G01*
X59724Y-81141D02*
X59448Y-81417D01*
X59448Y-81417D02*
X59448Y-82519D01*
X59448Y-82519D02*
X59724Y-82795D01*
X59724Y-82795D02*
X61102Y-82795D01*
X61102Y-81141D02*
X59724Y-81141D01*
X61102Y-77598D02*
X61102Y-83031D01*
X61102Y-83031D02*
X58976Y-83031D01*
X58976Y-83031D02*
X58976Y-77598D01*
X58976Y-77598D02*
X61102Y-77598D01*
X135787Y-86496D02*
X135511Y-86220D01*
X135511Y-86220D02*
X134409Y-86220D01*
X134409Y-86220D02*
X134133Y-86496D01*
X134133Y-86496D02*
X134133Y-87874D01*
X135787Y-87874D02*
X135787Y-86496D01*
X139330Y-87874D02*
X133897Y-87874D01*
X133897Y-87874D02*
X133897Y-85748D01*
X133897Y-85748D02*
X139330Y-85748D01*
X139330Y-85748D02*
X139330Y-87874D01*
X94803Y-85000D02*
X95078Y-84724D01*
X95078Y-84724D02*
X95078Y-83622D01*
X95078Y-83622D02*
X94803Y-83346D01*
X94803Y-83346D02*
X93425Y-83346D01*
X93425Y-85000D02*
X94803Y-85000D01*
X93425Y-88543D02*
X93425Y-83110D01*
X93425Y-83110D02*
X95551Y-83110D01*
X95551Y-83110D02*
X95551Y-88543D01*
X95551Y-88543D02*
X93425Y-88543D01*
X63779Y-91732D02*
X67322Y-95275D01*
X67322Y-95275D02*
X91338Y-95275D01*
X91338Y-95275D02*
X91338Y-76377D01*
X91338Y-76377D02*
X63779Y-76377D01*
X63779Y-76377D02*
X63779Y-91732D01*
X124409Y-75196D02*
X126771Y-75196D01*
X126771Y-75196D02*
X126771Y-96456D01*
X126771Y-96456D02*
X97637Y-96456D01*
X97637Y-96456D02*
X97637Y-75196D01*
X100000Y-75196D02*
X97637Y-75196D01*
X100000Y-75196D02*
X124409Y-75196D01*
G54D12*
X141057Y-76574D02*
G75*
G03X141057Y-76574I-900J0D01*
G74*
G01*
X141057Y-95078D02*
G75*
G03X141057Y-95078I-900J0D01*
G74*
G01*
X57396Y-76574D02*
G75*
G03X57396Y-76574I-900J0D01*
G74*
G01*
X57396Y-95078D02*
G75*
G03X57396Y-95078I-900J0D01*
G74*
G01*
X95388Y-76574D02*
G75*
G03X95388Y-76574I-900J0D01*
G74*
G01*
X95388Y-95078D02*
G75*
G03X95388Y-95078I-900J0D01*
G74*
G01*
G54D10*
X139268Y-91638D02*
X139586Y-91638D01*
X139624Y-91619D01*
X139642Y-91601D01*
X139661Y-91563D01*
X139661Y-91488D01*
X139642Y-91451D01*
X139624Y-91432D01*
X139586Y-91413D01*
X139268Y-91413D01*
X139305Y-91244D02*
X139286Y-91226D01*
X139268Y-91188D01*
X139268Y-91094D01*
X139286Y-91057D01*
X139305Y-91038D01*
X139343Y-91019D01*
X139380Y-91019D01*
X139436Y-91038D01*
X139661Y-91263D01*
X139661Y-91019D01*
X139268Y-82583D02*
X139586Y-82583D01*
X139624Y-82564D01*
X139642Y-82545D01*
X139661Y-82508D01*
X139661Y-82433D01*
X139642Y-82395D01*
X139624Y-82377D01*
X139586Y-82358D01*
X139268Y-82358D01*
X139661Y-81964D02*
X139661Y-82189D01*
X139661Y-82077D02*
X139268Y-82077D01*
X139324Y-82114D01*
X139361Y-82152D01*
X139380Y-82189D01*
X127362Y-89041D02*
X127380Y-89060D01*
X127399Y-89116D01*
X127399Y-89154D01*
X127380Y-89210D01*
X127343Y-89248D01*
X127305Y-89266D01*
X127230Y-89285D01*
X127174Y-89285D01*
X127099Y-89266D01*
X127062Y-89248D01*
X127024Y-89210D01*
X127005Y-89154D01*
X127005Y-89116D01*
X127024Y-89060D01*
X127043Y-89041D01*
X127043Y-88892D02*
X127024Y-88873D01*
X127005Y-88835D01*
X127005Y-88742D01*
X127024Y-88704D01*
X127043Y-88685D01*
X127080Y-88667D01*
X127118Y-88667D01*
X127174Y-88685D01*
X127399Y-88910D01*
X127399Y-88667D01*
X127362Y-82742D02*
X127380Y-82761D01*
X127399Y-82817D01*
X127399Y-82855D01*
X127380Y-82911D01*
X127343Y-82949D01*
X127305Y-82967D01*
X127230Y-82986D01*
X127174Y-82986D01*
X127099Y-82967D01*
X127062Y-82949D01*
X127024Y-82911D01*
X127005Y-82855D01*
X127005Y-82817D01*
X127024Y-82761D01*
X127043Y-82742D01*
X127399Y-82367D02*
X127399Y-82592D01*
X127399Y-82480D02*
X127005Y-82480D01*
X127062Y-82517D01*
X127099Y-82555D01*
X127118Y-82592D01*
X130062Y-79986D02*
X130080Y-80005D01*
X130099Y-80061D01*
X130099Y-80099D01*
X130080Y-80155D01*
X130043Y-80193D01*
X130005Y-80211D01*
X129930Y-80230D01*
X129874Y-80230D01*
X129799Y-80211D01*
X129762Y-80193D01*
X129724Y-80155D01*
X129705Y-80099D01*
X129705Y-80061D01*
X129724Y-80005D01*
X129743Y-79986D01*
X129837Y-79649D02*
X130099Y-79649D01*
X129687Y-79743D02*
X129968Y-79836D01*
X129968Y-79593D01*
X130062Y-91797D02*
X130080Y-91816D01*
X130099Y-91872D01*
X130099Y-91910D01*
X130080Y-91966D01*
X130043Y-92004D01*
X130005Y-92022D01*
X129930Y-92041D01*
X129874Y-92041D01*
X129799Y-92022D01*
X129762Y-92004D01*
X129724Y-91966D01*
X129705Y-91910D01*
X129705Y-91872D01*
X129724Y-91816D01*
X129743Y-91797D01*
X129705Y-91441D02*
X129705Y-91629D01*
X129893Y-91647D01*
X129874Y-91629D01*
X129855Y-91591D01*
X129855Y-91497D01*
X129874Y-91460D01*
X129893Y-91441D01*
X129930Y-91422D01*
X130024Y-91422D01*
X130062Y-91441D01*
X130080Y-91460D01*
X130099Y-91497D01*
X130099Y-91591D01*
X130080Y-91629D01*
X130062Y-91647D01*
X131205Y-88648D02*
X131224Y-88667D01*
X131242Y-88723D01*
X131242Y-88760D01*
X131224Y-88817D01*
X131186Y-88854D01*
X131149Y-88873D01*
X131074Y-88892D01*
X131017Y-88892D01*
X130942Y-88873D01*
X130905Y-88854D01*
X130867Y-88817D01*
X130849Y-88760D01*
X130849Y-88723D01*
X130867Y-88667D01*
X130886Y-88648D01*
X131017Y-88423D02*
X130999Y-88460D01*
X130980Y-88479D01*
X130942Y-88498D01*
X130924Y-88498D01*
X130886Y-88479D01*
X130867Y-88460D01*
X130849Y-88423D01*
X130849Y-88348D01*
X130867Y-88310D01*
X130886Y-88292D01*
X130924Y-88273D01*
X130942Y-88273D01*
X130980Y-88292D01*
X130999Y-88310D01*
X131017Y-88348D01*
X131017Y-88423D01*
X131036Y-88460D01*
X131055Y-88479D01*
X131092Y-88498D01*
X131167Y-88498D01*
X131205Y-88479D01*
X131224Y-88460D01*
X131242Y-88423D01*
X131242Y-88348D01*
X131224Y-88310D01*
X131205Y-88292D01*
X131167Y-88273D01*
X131092Y-88273D01*
X131055Y-88292D01*
X131036Y-88310D01*
X131017Y-88348D01*
X131205Y-85104D02*
X131224Y-85123D01*
X131242Y-85179D01*
X131242Y-85217D01*
X131224Y-85273D01*
X131186Y-85311D01*
X131149Y-85329D01*
X131074Y-85348D01*
X131017Y-85348D01*
X130942Y-85329D01*
X130905Y-85311D01*
X130867Y-85273D01*
X130849Y-85217D01*
X130849Y-85179D01*
X130867Y-85123D01*
X130886Y-85104D01*
X130849Y-84973D02*
X130849Y-84711D01*
X131242Y-84880D01*
X60367Y-86361D02*
X60348Y-86379D01*
X60292Y-86398D01*
X60254Y-86398D01*
X60198Y-86379D01*
X60161Y-86342D01*
X60142Y-86304D01*
X60123Y-86229D01*
X60123Y-86173D01*
X60142Y-86098D01*
X60161Y-86061D01*
X60198Y-86023D01*
X60254Y-86005D01*
X60292Y-86005D01*
X60348Y-86023D01*
X60367Y-86042D01*
X60704Y-86005D02*
X60629Y-86005D01*
X60592Y-86023D01*
X60573Y-86042D01*
X60536Y-86098D01*
X60517Y-86173D01*
X60517Y-86323D01*
X60536Y-86361D01*
X60554Y-86379D01*
X60592Y-86398D01*
X60667Y-86398D01*
X60704Y-86379D01*
X60723Y-86361D01*
X60742Y-86323D01*
X60742Y-86229D01*
X60723Y-86192D01*
X60704Y-86173D01*
X60667Y-86155D01*
X60592Y-86155D01*
X60554Y-86173D01*
X60536Y-86192D01*
X60517Y-86229D01*
X60958Y-90807D02*
X60939Y-90826D01*
X60883Y-90845D01*
X60845Y-90845D01*
X60789Y-90826D01*
X60751Y-90788D01*
X60733Y-90751D01*
X60714Y-90676D01*
X60714Y-90620D01*
X60733Y-90545D01*
X60751Y-90507D01*
X60789Y-90470D01*
X60845Y-90451D01*
X60883Y-90451D01*
X60939Y-90470D01*
X60958Y-90488D01*
X61089Y-90451D02*
X61332Y-90451D01*
X61201Y-90601D01*
X61257Y-90601D01*
X61295Y-90620D01*
X61314Y-90638D01*
X61332Y-90676D01*
X61332Y-90770D01*
X61314Y-90807D01*
X61295Y-90826D01*
X61257Y-90845D01*
X61145Y-90845D01*
X61107Y-90826D01*
X61089Y-90807D01*
X61205Y-81846D02*
X61486Y-81846D01*
X61542Y-81864D01*
X61579Y-81902D01*
X61598Y-81958D01*
X61598Y-81996D01*
X61242Y-81677D02*
X61223Y-81658D01*
X61205Y-81621D01*
X61205Y-81527D01*
X61223Y-81489D01*
X61242Y-81471D01*
X61280Y-81452D01*
X61317Y-81452D01*
X61373Y-81471D01*
X61598Y-81696D01*
X61598Y-81452D01*
X135082Y-87976D02*
X135082Y-88257D01*
X135064Y-88314D01*
X135026Y-88351D01*
X134970Y-88370D01*
X134932Y-88370D01*
X135232Y-87976D02*
X135476Y-87976D01*
X135345Y-88126D01*
X135401Y-88126D01*
X135439Y-88145D01*
X135457Y-88164D01*
X135476Y-88201D01*
X135476Y-88295D01*
X135457Y-88332D01*
X135439Y-88351D01*
X135401Y-88370D01*
X135289Y-88370D01*
X135251Y-88351D01*
X135232Y-88332D01*
X92853Y-84558D02*
X93135Y-84558D01*
X93191Y-84576D01*
X93228Y-84614D01*
X93247Y-84670D01*
X93247Y-84707D01*
X93247Y-84164D02*
X93247Y-84389D01*
X93247Y-84276D02*
X92853Y-84276D01*
X92910Y-84314D01*
X92947Y-84351D01*
X92966Y-84389D01*
X77080Y-85592D02*
X77080Y-85198D01*
X77230Y-85198D01*
X77268Y-85217D01*
X77287Y-85236D01*
X77305Y-85273D01*
X77305Y-85329D01*
X77287Y-85367D01*
X77268Y-85386D01*
X77230Y-85404D01*
X77080Y-85404D01*
X77455Y-85573D02*
X77512Y-85592D01*
X77605Y-85592D01*
X77643Y-85573D01*
X77662Y-85554D01*
X77680Y-85517D01*
X77680Y-85479D01*
X77662Y-85442D01*
X77643Y-85423D01*
X77605Y-85404D01*
X77530Y-85386D01*
X77493Y-85367D01*
X77474Y-85348D01*
X77455Y-85311D01*
X77455Y-85273D01*
X77474Y-85236D01*
X77493Y-85217D01*
X77530Y-85198D01*
X77624Y-85198D01*
X77680Y-85217D01*
X77830Y-85236D02*
X77849Y-85217D01*
X77887Y-85198D01*
X77980Y-85198D01*
X78018Y-85217D01*
X78037Y-85236D01*
X78055Y-85273D01*
X78055Y-85311D01*
X78037Y-85367D01*
X77812Y-85592D01*
X78055Y-85592D01*
X75412Y-85946D02*
X75543Y-86340D01*
X75674Y-85946D01*
X75787Y-86321D02*
X75843Y-86340D01*
X75937Y-86340D01*
X75974Y-86321D01*
X75993Y-86302D01*
X76012Y-86265D01*
X76012Y-86227D01*
X75993Y-86190D01*
X75974Y-86171D01*
X75937Y-86152D01*
X75862Y-86134D01*
X75824Y-86115D01*
X75806Y-86096D01*
X75787Y-86059D01*
X75787Y-86021D01*
X75806Y-85984D01*
X75824Y-85965D01*
X75862Y-85946D01*
X75956Y-85946D01*
X76012Y-85965D01*
X76181Y-86340D02*
X76181Y-85946D01*
X76406Y-86340D02*
X76237Y-86115D01*
X76406Y-85946D02*
X76181Y-86171D01*
X76574Y-86190D02*
X76874Y-86190D01*
X77043Y-86321D02*
X77099Y-86340D01*
X77193Y-86340D01*
X77230Y-86321D01*
X77249Y-86302D01*
X77268Y-86265D01*
X77268Y-86227D01*
X77249Y-86190D01*
X77230Y-86171D01*
X77193Y-86152D01*
X77118Y-86134D01*
X77080Y-86115D01*
X77062Y-86096D01*
X77043Y-86059D01*
X77043Y-86021D01*
X77062Y-85984D01*
X77080Y-85965D01*
X77118Y-85946D01*
X77212Y-85946D01*
X77268Y-85965D01*
X77418Y-85984D02*
X77437Y-85965D01*
X77474Y-85946D01*
X77568Y-85946D01*
X77605Y-85965D01*
X77624Y-85984D01*
X77643Y-86021D01*
X77643Y-86059D01*
X77624Y-86115D01*
X77399Y-86340D01*
X77643Y-86340D01*
X77887Y-85946D02*
X77924Y-85946D01*
X77962Y-85965D01*
X77980Y-85984D01*
X77999Y-86021D01*
X78018Y-86096D01*
X78018Y-86190D01*
X77999Y-86265D01*
X77980Y-86302D01*
X77962Y-86321D01*
X77924Y-86340D01*
X77887Y-86340D01*
X77849Y-86321D01*
X77830Y-86302D01*
X77812Y-86265D01*
X77793Y-86190D01*
X77793Y-86096D01*
X77812Y-86021D01*
X77830Y-85984D01*
X77849Y-85965D01*
X77887Y-85946D01*
X78187Y-86190D02*
X78487Y-86190D01*
X78880Y-86340D02*
X78655Y-86340D01*
X78768Y-86340D02*
X78768Y-85946D01*
X78730Y-86002D01*
X78693Y-86040D01*
X78655Y-86059D01*
X79030Y-85984D02*
X79049Y-85965D01*
X79086Y-85946D01*
X79180Y-85946D01*
X79218Y-85965D01*
X79236Y-85984D01*
X79255Y-86021D01*
X79255Y-86059D01*
X79236Y-86115D01*
X79011Y-86340D01*
X79255Y-86340D01*
X79424Y-85946D02*
X79424Y-86265D01*
X79443Y-86302D01*
X79461Y-86321D01*
X79499Y-86340D01*
X79574Y-86340D01*
X79611Y-86321D01*
X79630Y-86302D01*
X79649Y-86265D01*
X79649Y-85946D01*
X111726Y-86497D02*
X111726Y-86104D01*
X111876Y-86104D01*
X111914Y-86122D01*
X111932Y-86141D01*
X111951Y-86179D01*
X111951Y-86235D01*
X111932Y-86272D01*
X111914Y-86291D01*
X111876Y-86310D01*
X111726Y-86310D01*
X112101Y-86479D02*
X112157Y-86497D01*
X112251Y-86497D01*
X112289Y-86479D01*
X112307Y-86460D01*
X112326Y-86422D01*
X112326Y-86385D01*
X112307Y-86347D01*
X112289Y-86329D01*
X112251Y-86310D01*
X112176Y-86291D01*
X112139Y-86272D01*
X112120Y-86254D01*
X112101Y-86216D01*
X112101Y-86179D01*
X112120Y-86141D01*
X112139Y-86122D01*
X112176Y-86104D01*
X112270Y-86104D01*
X112326Y-86122D01*
X112701Y-86497D02*
X112476Y-86497D01*
X112589Y-86497D02*
X112589Y-86104D01*
X112551Y-86160D01*
X112514Y-86197D01*
X112476Y-86216D01*
X110601Y-85592D02*
X110470Y-85404D01*
X110376Y-85592D02*
X110376Y-85198D01*
X110526Y-85198D01*
X110564Y-85217D01*
X110583Y-85236D01*
X110601Y-85273D01*
X110601Y-85329D01*
X110583Y-85367D01*
X110564Y-85386D01*
X110526Y-85404D01*
X110376Y-85404D01*
X110751Y-85479D02*
X110939Y-85479D01*
X110714Y-85592D02*
X110845Y-85198D01*
X110976Y-85592D01*
X111332Y-85554D02*
X111314Y-85573D01*
X111257Y-85592D01*
X111220Y-85592D01*
X111164Y-85573D01*
X111126Y-85536D01*
X111107Y-85498D01*
X111089Y-85423D01*
X111089Y-85367D01*
X111107Y-85292D01*
X111126Y-85254D01*
X111164Y-85217D01*
X111220Y-85198D01*
X111257Y-85198D01*
X111314Y-85217D01*
X111332Y-85236D01*
X111707Y-85592D02*
X111482Y-85592D01*
X111595Y-85592D02*
X111595Y-85198D01*
X111557Y-85254D01*
X111520Y-85292D01*
X111482Y-85311D01*
X112064Y-85198D02*
X111876Y-85198D01*
X111857Y-85386D01*
X111876Y-85367D01*
X111914Y-85348D01*
X112007Y-85348D01*
X112045Y-85367D01*
X112064Y-85386D01*
X112082Y-85423D01*
X112082Y-85517D01*
X112064Y-85554D01*
X112045Y-85573D01*
X112007Y-85592D01*
X111914Y-85592D01*
X111876Y-85573D01*
X111857Y-85554D01*
X112251Y-85442D02*
X112551Y-85442D01*
X112945Y-85592D02*
X112720Y-85592D01*
X112832Y-85592D02*
X112832Y-85198D01*
X112795Y-85254D01*
X112757Y-85292D01*
X112720Y-85311D01*
X113301Y-85198D02*
X113113Y-85198D01*
X113095Y-85386D01*
X113113Y-85367D01*
X113151Y-85348D01*
X113245Y-85348D01*
X113282Y-85367D01*
X113301Y-85386D01*
X113320Y-85423D01*
X113320Y-85517D01*
X113301Y-85554D01*
X113282Y-85573D01*
X113245Y-85592D01*
X113151Y-85592D01*
X113113Y-85573D01*
X113095Y-85554D01*
X113488Y-85592D02*
X113488Y-85198D01*
X113582Y-85198D01*
X113638Y-85217D01*
X113676Y-85254D01*
X113695Y-85292D01*
X113713Y-85367D01*
X113713Y-85423D01*
X113695Y-85498D01*
X113676Y-85536D01*
X113638Y-85573D01*
X113582Y-85592D01*
X113488Y-85592D01*
X113863Y-85479D02*
X114051Y-85479D01*
X113826Y-85592D02*
X113957Y-85198D01*
X114088Y-85592D01*
M02*
