G04 (created by PCBNEW (2013-06-11 BZR 4021)-stable) date Thu 06 Feb 2014 10:57:33 PM CST*
%MOIN*%
G04 Gerber Fmt 3.4, Leading zero omitted, Abs format*
%FSLAX34Y34*%
G01*
G70*
G90*
G04 APERTURE LIST*
%ADD10C,0.00590551*%
%ADD11C,0.08*%
%ADD12R,0.08X0.08*%
%ADD13R,0.18X0.18*%
%ADD14R,0.0551181X0.0551181*%
%ADD15C,0.0551181*%
%ADD16R,0.0511811X0.0511811*%
%ADD17C,0.0511811*%
%ADD18C,0.0787402*%
%ADD19C,0.15748*%
%ADD20C,0.11811*%
%ADD21C,0.16*%
G04 APERTURE END LIST*
G54D10*
G54D11*
X131102Y-91338D03*
X131102Y-92338D03*
G54D12*
X131102Y-90338D03*
G54D13*
X138102Y-91338D03*
G54D11*
X131102Y-82283D03*
X131102Y-83283D03*
G54D12*
X131102Y-81283D03*
G54D13*
X138102Y-82283D03*
G54D14*
X128740Y-88503D03*
G54D15*
X128740Y-89448D03*
G54D14*
X128740Y-82204D03*
G54D15*
X128740Y-83149D03*
G54D16*
X128740Y-80314D03*
G54D17*
X128740Y-79527D03*
G54D16*
X128740Y-92125D03*
G54D17*
X128740Y-91338D03*
G54D16*
X132283Y-88188D03*
G54D17*
X132283Y-88976D03*
G54D16*
X132283Y-84645D03*
G54D17*
X132283Y-85433D03*
G54D16*
X60039Y-85039D03*
G54D17*
X60826Y-85039D03*
G54D14*
X60039Y-88385D03*
G54D15*
X62007Y-88385D03*
G54D18*
X60039Y-81968D03*
X60039Y-80314D03*
X60039Y-78661D03*
G54D19*
X61535Y-78661D03*
X58543Y-81968D03*
G54D18*
X134960Y-86811D03*
X136614Y-86811D03*
X138267Y-86811D03*
G54D19*
X138267Y-88307D03*
X134960Y-85314D03*
G54D18*
X94488Y-84173D03*
X94488Y-85826D03*
X94488Y-87480D03*
G54D19*
X92992Y-87480D03*
X95984Y-84173D03*
G54D20*
X89763Y-77952D03*
X89763Y-85826D03*
X89763Y-93700D03*
X65354Y-79055D03*
X65354Y-81299D03*
X65354Y-90354D03*
X100000Y-85826D03*
X100000Y-93700D03*
X100000Y-77952D03*
X124409Y-93700D03*
X124409Y-90354D03*
X124409Y-85826D03*
X124409Y-81299D03*
X124409Y-77952D03*
G54D21*
X140157Y-76574D03*
X140157Y-95078D03*
X56496Y-76574D03*
X56496Y-95078D03*
X94488Y-76574D03*
X94488Y-95078D03*
M02*
